<svg xmlns="http://www.w3.org/2000/svg" version="1.1" width="600px" height="600px" viewBox="0 0 200 200" style="overflow:hidden!important;"><g id="svga-group-wrapper"><g id="svga-group-backs-single"></g><g id="svga-group-humanwrap-move" transform="matrix(1,0,0,1,0,0)"><g id="svga-group-humanwrap"><g id="svga-group-hair-back-move" transform="matrix(1,0,0,1,0,0)"><g id="svga-group-hair-back"></g></g><g id="svga-group-humanbody-back"><path id="SvgjsPath4345" d="M180.8 184.9c-2.3-3.4-38.9-17.8-38.9-17.8l-13.4-5.2-5.6-68.8H76.8L71.3 162l-13.4 5.2S21.4 181.6 19 185c-2.3 3.4-3.3 14.9-3.3 14.9V219h168.5v-19.2c-.1.1-1-11.5-3.4-14.9z" fill="#f0c7b1" stroke-width="none" opacity="1" stroke="none"></path></g><g id="svga-group-chinshadow-single"><path id="SvgjsPath4463" d="M94.1 161.5s19.06 0 33.81-7.36l-4.97-61.04H76.82l-5.19 65.28c11.66 3.12 22.47 3.12 22.47 3.12z" fill="#d19271" stroke-width="none" opacity="1" stroke="none"></path></g><g id="svga-group-humanbody-front"><path id="SvgjsPath4346" d="M184.5 219c-.1-6.4-.1-12.8-.1-19.2l-.3-.1s.1-.1.2 0c.1 0 .1.1.1.1v-.4l-.1-.5-.1-.9-.2-1.9c-.2-1.3-.4-2.5-.6-3.8-.2-1.3-.5-2.5-.9-3.8-.4-1.2-.8-2.5-1.5-3.6-.8-.9-1.9-1.5-2.9-2.1-1-.6-2.1-1.1-3.2-1.7-2.1-1.1-4.3-2.1-6.5-3.1-4.4-2-8.7-3.9-13.1-5.7-4.4-1.9-8.8-3.7-13.2-5.5l-13-5.2-1.2-16.9c-.4-5.7-.9-11.5-1.3-17.2l-1.3-17.2-1.5-17.3-.1-.8h-.8c-7.7 0-15.4.1-23.1.1l-23.1.2h-.5v.5L75 110.2l-1.3 17.2c-.8 11.4-1.8 22.8-2.8 34.2-5.6 2.1-11.2 4.2-16.7 6.4-5.6 2.2-11.2 4.5-16.8 6.9-2.8 1.2-5.6 2.4-8.3 3.6-2.8 1.3-5.5 2.5-8.2 4.1-.7.4-1.3.8-2 1.4-.2.1-.4.4-.5.6l-.3.6c-.2.4-.4.7-.5 1.1-.6 1.5-1 3-1.3 4.5-.6 3-1.1 6-1.4 9.1l-.1 19.1v.9h.9l42.1.1H100c14 0 28.1-.1 42.1-.2l42.1-.5h.3v-.3zm-84.5-1-42.1-.1-41.2.1-.1-18.1c.3-3 .6-5.9 1.2-8.9.3-1.4.6-2.9 1.1-4.2.1-.3.3-.7.4-.9l.2-.4.3-.3c.5-.4 1.1-.8 1.8-1.2 2.5-1.5 5.3-2.8 8-4.1 2.7-1.3 5.5-2.5 8.2-3.7 5.5-2.4 11.1-4.8 16.7-7.1s11.2-4.5 16.9-6.7l.2-.1v-.2c.9-11.5 1.7-23 2.7-34.4l1.4-17.2 1.5-16.7 22.6.2c7.4.1 14.8.1 22.3.1l1.3 16.4 1.5 17.2c.5 5.7 1 11.5 1.5 17.2l1.6 17.2v.3l.3.1 13.4 5c4.4 1.7 8.9 3.4 13.3 5.2 4.4 1.8 8.8 3.7 13.2 5.6 2.2 1 4.3 2 6.5 3 1.1.5 2.1 1.1 3.2 1.6 1 .6 2.1 1.2 2.9 2 .7 1.1 1.1 2.3 1.4 3.5.3 1.2.6 2.5.8 3.7.2 1.3.4 2.5.6 3.8l.2 1.9.1.9.1.5v.4c0 6.3 0 12.6-.1 18.9l-41.8-.5c-14 .1-28.1 0-42.1 0z" fill="#c27b55" stroke-width="none" opacity="1" stroke="none"></path><path id="SvgjsPath4347" d="M125.1 142.4s-1.8 23-9.1 32.9c0 0 7.9-25 9.1-32.9zm-34.5 16s5 7.9 11.5 10.1c0 0-9.5 2.2-11.5-10.1zM73.4 140c6.7 25.6 6.7 25.6 8.5 30.7 0 0 .4-12.6-8.5-30.7z" fill="#d19271" stroke-width="none" opacity="1" stroke="none"></path></g><g id="svga-group-clothes-single"><path id="SvgjsPath8817" d="m69.9 150.1-1.8.9s-1.4 2.9-2.4 5.1c-1 2.2-4.7 5.9-4.7 5.9s-.6 2.2-.6 2.9c0 0-12.3 4.2-15.9 5.6-3.6 1.4-19.2 6.3-21.3 6.4s-5.1 1.8-5.1 1.8-3 1.7-3.9 4.5c-1 2.8-2.6 34.4-2.6 36.8h175.9s-1.8-32.4-3.5-34.9c-.6-.9-.2-2.6-5.9-5.1s-17-7-20.8-8.5-19.3-7.2-19.3-7.2-.2-2.3-2.3-3.4c-2.1-1.1-5.3-9.8-5.3-9.8l-1.3-1.3s.4 5.1.2 9.6-4.7 11.7-7.9 13.8c-3.2 2.1-9 5.7-11.3 6.6s-2.8 3.4-3.8 5.9-2.6 5.9-2.6 5.9-3.6-4.5-5.3-7.6c-1.7-3.2-4-5.5-8.3-5.1-4.2.4-5.5-.9-7-1.7-1.5-.9-10.6-15.1-11.9-18.7-1.1-3.6-1.3-8.4-1.3-8.4z" fill="#386e77" stroke-width="none" opacity="1"></path><path id="SvgjsPath8818" d="M188.3 220c-.4-6.9-.8-13.8-1.3-20.7-.3-3.5-.6-6.9-1.1-10.4-.1-.9-.3-1.7-.5-2.6-.1-.5-.2-.9-.5-1.5l-.1-.2-.1-.2-.3-.6c-.5-1-1.2-1.7-1.9-2.3-.8-.6-1.5-1-2.3-1.5-1.6-.9-3.2-1.4-4.8-2.1l-4.8-2-9.6-4c-6.2-2.5-15.8-5.4-21.9-8.3-.1-.6-.4-1.1-.7-1.6-.4-.7-1-1.3-1.7-1.7l-.3-.1c-.1-.1-.2-.1-.2-.1-.1-.1-.1-.1-.2-.1-.2-.2-.3-.3-.5-.6-.4-.4-.7-1-1-1.5-1.2-2.2-2.2-4.6-3.1-6.9l-.1-.2-.1-.1-1.3-1.3-1.9-1.9.2 2.8c.2 2.3.3 4.6.3 6.9v2.6l-.1.8c-.2 1-.5 2.1-.9 3.1-.8 2.1-2 4.1-3.3 5.9-.7.9-1.4 1.8-2.2 2.5-.4.4-.8.7-1.2 1-.4.3-.9.6-1.4.8-4.1 2.1-4.9 3.8-9.2 5.5-.6.2-1.3.6-1.8 1.1-.5.5-.9 1.1-1.2 1.6-.6 1.1-.9 2.3-1.3 3.3l-.9 2.1c-.5 1-.9 2-1.4 3-1.2-1.6-2.5-3.2-3.6-4.9-.3-.5-.6-1-.9-1.6-.3-.6-.7-1.1-1.1-1.7-.8-1.1-1.8-2.1-3-2.7-1.2-.7-2.6-.9-4-.9-.5.1-3.5.1-7.7-1.7-.5-.2-1.5-1.9-2.3-2.9-.7-1-1.5-2.1-2.2-3.1-1.4-2.1-2.8-4.2-4.1-6.4-.7-1.1-1.3-2.2-1.9-3.3-.6-1.1-1.1-2.1-1.4-3.4.1-1.6.4-4.6.5-5.7 0 0 .1-2.2.1-2.4-1.2-.1-3.2 1.1-3.9 1.4l-1.5 3c-.5 1-.9 2-1.5 2.9-.6.9-1.3 1.8-2 2.6s-1.5 1.6-2.3 2.4l-.1.1v.1c-.1.5-.2 1-.4 1.4-.1.4-.2.8-.2 1.3-3.2 1.4-9.4 2.7-12.6 4.1-3.2 1.4-6.6 2.4-10 3.5-3.4 1-6.8 2.1-10.1 3-.9.2-1.7.5-2.5.7l-1.2.3c-.2 0-.3.1-.6.1-.2 0-.5.1-.7.1-.9.2-1.8.5-2.7.8l-1.2.6-.6.3c-.3.1-.4.3-.6.4-1.5 1.1-2.9 2.5-3.6 4.4-.2.5-.3 1-.3 1.4l-.2 1.3-.3 2.7c-.3 3.5-.6 7.1-.8 10.6l-.7 10.6c-.2 3.6-.4 7-.5 10.6v.9h.9l22-.1 22-.2 22-.2 22-.1c7.3-.1 14.7 0 22 0s14.7 0 22 .1l44 .3h.8l-.3-1.2zm-68.2-44.9c.5-.3 1.1-.6 1.6-.9.5-.3 1.1-.7 1.5-1.2.9-.9 1.7-1.8 2.4-2.8 1.4-1.9 2.6-4 3.6-6.3.4-1.1.8-2.3 1-3.6l.1-1v-2.7c0-1 0-2-.1-3 .7 1.7 1.4 3.3 2.3 4.9.3.6.7 1.2 1.1 1.8.2.3.5.6.8.9.1.1.4.3.6.4l.4.2c.4.3.7.6 1 1 .2.4.4 1 .5 1.4l.1.6v.1c.5 2.7 1.1 5.3 1.7 8 .6 2.6 1.4 5.3 2.2 7.9l2.3 7.8 1.1 3.9c.2.8.5 1.7.7 2.5-1.4-.3-2.7-.7-3.9-1.4-.8-.5-1.4-1-2.3-1.7-.8-.6-1.6-1.3-2.5-1.8-1.7-1.2-3.5-2.2-5.4-3l-1.4-.6c-.4-.2-.9-.4-1.3-.6-.8-.5-1.6-1-2.4-1.6-.8-.6-1.5-1.2-2.2-1.9-.3-.4-.7-.7-.9-1.1-.2-.2-.3-.4-.4-.6l-.2-.3-.3-.4c-1.5-1.7-3.6-2.5-5.6-2.8-.3-.1-.7-.1-1-.1 1.8-.6 3.4-1.3 4.9-2zm-12.8 10.4c.9-2.2.5-4.6 6.9-7.5.9-.1 1.4 0 2.3.2 1.8.4 3.5 1.3 4.5 2.7l.2.2.2.3c.1.1.2.3.3.4 0 0-1.8 1.6-5.9 3.2-1.7.5-3.3.9-5 1.4-1.5.3-2.9.7-4.4.9l.9-1.8zm-4.5 6.1c-1.2 1.9-2.5 3.9-4 5.6l-.4.4c-1.7-3.4-5.1-8.9-6.2-10.7.5.1.9.1 1.4.1 1.9.1 3.8.1 5.7-.1 1.2 1.6 2.3 3.2 3.5 4.7zM91 179.5c1.2 0 2.3.2 3.3.8 1 .6 1.8 1.4 2.5 2.4.3.5.7 1 .9 1.6.3.6.6 1.1 1 1.7l.6.9c-1.9-.1-3.8-.3-5.6-.6-2-.3-4-.6-6-1s-6.6-2.2-8.4-2.7c.5-.6 1-1.1 1.5-1.7.6-.8 1.1-1.4 1.8-1.7.7-.3 1.6-.3 2.4-.3.1 0 5.4.6 6 .6zm-29.6-17.3c.8-.8 1.5-1.6 2.2-2.4.7-.9 1.4-1.7 2-2.7.6-1 .9-2 1.4-3l1.3-3c.5-.3 1-.6 1.6-.9v.8l.1.9c.1.6.1 1.3.2 1.9.2 1.3.4 2.5.7 3.8.3 1.2.9 2.4 1.5 3.6.6 1.1 1.2 2.2 1.8 3.4 1.3 2.2 2.6 4.4 3.9 6.5.7 1.1 1.4 2.1 2.1 3.2.8 1.1 1.4 2.1 2.4 3.1.3.3.6.5.9.6 0 0 .1 0 .1.1-.5 0-.9.1-1.4.2-.5.2-.9.5-1.3.8-.4.4-.6.7-.9 1l-1.9 1.9c-1.3 1.3-2.6 2.5-3.9 3.7-1.3 1.2-2.7 2.4-4 3.6-1.3 1.1-2.8 2.1-4.3 3.1-2.5 1.6-5.1 3.1-7.7 4.5.5-5.5 1-11 1.4-16.5l.7-9.1c.2-2 .3-3.9.5-5.9l.2-.1v-.2c0-.4.1-.9.2-1.4 0-.6.1-1.1.2-1.5zm-5.8 57.2-22-.2-21.1-.1c.3-6.7.6-13.5 1-20.2.2-3.5.4-7.1.8-10.6.1-.9.2-1.8.3-2.6l.2-1.3c0-.2.1-.4.1-.6.1-.2.1-.4.1-.6.5-1.4 1.7-2.7 3.1-3.6.2-.1.4-.2.5-.3l.6-.3c.4-.2.8-.4 1.2-.5.8-.3 1.6-.6 2.4-.8.2 0 .4-.1.6-.1l.7-.1c.5-.1.9-.2 1.3-.3.9-.2 1.7-.5 2.6-.7 3.4-1 6.8-2.1 10.1-3.2s6.8-2.2 10-3.7c3.1-1.4 9.2-2.8 12.3-4.2-.3 1.9-.6 3.7-.9 5.6-.5 3-1 6.1-1.3 9.1-.8 6.1-1.4 12.2-2.1 18.3l-.2 1.8 1.6-.8c3.3-1.6 6.4-3.4 9.5-5.4 1.5-1 3-2.1 4.4-3.4 1.3-1.2 2.7-2.5 3.9-3.8 1.3-1.3 2.6-2.6 3.8-3.9l.3-.3c3.6 1.7 4.4 2.8 8.2 3.6 1.2.2 2.4.4 3.5.6l-.1.1c.1.1 4.8 7.7 6.7 11.6-.1.1-.2.2-.2.4-.4.7-.6 1.5-.7 2.2-.1 1.4.1 2.7.2 3.9l.5 3.7.4 3.7c.2 2.4.5 4.9.9 7.3l-21.2-.1-22-.2zm43.3.3c.2-2.5.2-4.9.2-7.4.1-2.5 0-5.1-.3-7.6-.1-1.2-.2-2.5-.1-3.6.1-.5.2-1 .4-1.4.1-.2.3-.4.4-.6l.3-.3.4-.4c.9-1 1.7-2.1 2.4-3.1.7-1.1 1.3-2.2 2-3.3v-.1l.9-2.4.9-2c1.5.1 3.1-.1 4.6-.3.8-.1 1.5-.3 2.2-.4-1.5 2.6-6.5 11.1-7.8 12.9-1.3 1.8-1.1 3.3-.9 5 0 .4.1.8.1 1.3.1 2.1.8 11.5 1 13.6h-6.1l-.6.1zm22.7 0h-14.9c-.2-2-.9-11.6-1-13.7 0-.5-.1-.9-.1-1.3-.2-1.7-.3-2.9.8-4.4 1.5-2.1 6.3-10.5 6.6-10.9l1.6-2.8c1-.4 1.8-.8 3.4-1.5 2.2-1.2 2.8-1.8 3.9-3 0 .1.1.1.1.1.3.4.7.8 1 1.2.7.8 1.4 1.5 2.2 2.2.8.7 1.6 1.3 2.6 1.8.4.3.9.5 1.4.7l1.4.6c1.8.8 3.4 1.8 5 2.9.8.6 1.6 1.1 2.3 1.8.7.6 1.6 1.4 2.5 1.9 1.9 1.1 3.9 1.7 6.1 1.9l1.3.1-.3-1.3c-.3-1.4-.7-2.7-1.1-4l-1.2-3.9-2.5-7.8c-.8-2.6-1.7-5.1-2.5-7.7-.7-2.4-1.4-4.8-2-7.1 2.9 1.4 9.4 2.8 12.3 4.1 1.6.7 3.1 1.4 4.8 2.1l4.8 2 9.6 3.9 4.8 1.9c1.6.7 3.2 1.2 4.7 2 1.4.8 2.9 1.7 3.5 2.9.1.2.1.3.2.6 0 .1.1.2.2.4.1.1.2.3.2.3.1.1.2.6.3 1 .2.8.3 1.6.5 2.5.5 3.4.8 6.8 1.1 10.2.6 6.6 1.1 13.2 1.5 19.9l-43.2.3c-7.2 0-14.6 0-21.9.1zm-9.9-37.7c.8 0 1.5.7 1.5 1.5s-.7 1.5-1.5 1.5-1.5-.7-1.5-1.5.7-1.5 1.5-1.5zm-10.1 18.4c.8 0 1.5.7 1.5 1.5s-.7 1.5-1.5 1.5-1.5-.7-1.5-1.5.7-1.5 1.5-1.5zm-73.8-4.5c-.2-1.2-.5-2.6-.9-3.8-.4-1.2-.9-2.4-1.3-3.6-1-2.3-2-4.6-3.1-6.9l1.2 3.6 1.2 3.6 1.2 3.6c.4 1.2.6 2.4.8 3.6.4 2.5.6 5 .9 7.5l.4 3.8c.2 1.2.3 2.5.5 3.8 0-2.5 0-5.1-.2-7.6-.2-2.6-.4-5.1-.7-7.6zm150.5-9.2c-.5.6-.9 1.3-1.3 1.9-.8 1.3-1.5 2.7-2.2 4.1-1.4 2.8-2.6 5.7-3.6 8.6v.2c-.2 2.5-.3 5-.4 7.6-.1 2.5-.2 5-.2 7.6.4-2.5.7-5 .9-7.5.3-2.5.5-5 .7-7.5 1.1-2.9 2.2-5.7 3.4-8.6.6-1.4 1.2-2.8 1.9-4.2.7-1.4 1.4-2.8 2.5-3.8-.6.4-1.2 1-1.7 1.6z" fill="#184f58" stroke-width="none" opacity="1"></path><path id="SvgjsPath8819" d="M135.7 164.5c-.1 4.2.8 8.5 1.7 12.6.3 1.3 4.5 13.8 4.4 13.8 0 0-6.8-5.8-8.1-6.6-3.9-2.4-8.2-4.3-12.3-6.2-.3-.1-.5.3-.2.4 7.3 4 15.5 8.1 21.4 14.1.1.1.4 0 .4-.2-3.6-9.2-4.6-18.4-6.7-27.9-.2-.4-.6-.3-.6 0zm43.6 17.9c-5-2.4-10.5-3.8-15.7-5.7-6.6-2.4-16.5-5.3-22.9-8.2-.3-.2-.6.3-.3.5 5.1 3.5 14.5 5.8 20.3 8 5.9 2.2 12.2 4.8 18.4 6.1.3 0 .6-.5.2-.7zm-2.4 2.3c-2.5 2.6-4.7 5.8-5.6 9.2-.1.2.3.4.4.2 1.4-3.4 3-6.4 5.6-9 .1-.3-.2-.6-.4-.4zm6 2.1c0-.4-.6-.4-.6 0 .1 5.9.2 11.8.8 17.6 0 .4.6.4.6 0 .1-5.8-.3-11.8-.8-17.6zm-105-9.3c-6.2 5.9-13 11.3-19.1 17.2-.2.2.1.7.4.5 7.2-4.7 13.5-10.9 19.5-17 .3-.4-.4-1.1-.8-.7z" fill="#4d7e86" stroke-width="none" opacity="1"></path></g><g id="svga-group-head" transform="matrix(1,0,0,1,0,0)"><g id="svga-group-ears-left-move" transform="matrix(1,0,0,1,0,0)"><g id="svga-group-ears-left"><path id="SvgjsPath5354" d="M70.01 81.26s-3.24-4.86-12.55-8.1c0 0-3.1-.67-10.39 10.66 0 0-1.35 5.94 5.13 15.65 0 0 6.34 3.37 16.73-1.21 0 0 4.72-7.69 1.08-17z" fill="#f0c7b1" stroke-width="none" opacity="1" stroke="none"></path><path id="SvgjsPath5355" d="M68.66 90.08s-5.67-8.43-10.93-11.38c0 0-3.51 2.67-6.48 7.73 0 0 2.97 6.89 4.45 8.71 0 0 3.64 1.41 11.2-.56l1.76-4.5z" fill="#e1ac8f" stroke-width="none" opacity="1" stroke="none"></path><path id="SvgjsPath5356" d="M46.91 83.79c-.12.72-.12 1.43-.08 2.13.03.71.12 1.41.22 2.1.23 1.39.63 2.75 1.08 4.08.45 1.34 1.04 2.62 1.65 3.9.32.63.66 1.25 1 1.87l1.1 1.81.05.08.09.04c1.39.67 2.82.98 4.28 1.17 1.46.18 2.94.17 4.4.04 1.46-.13 2.9-.44 4.3-.84.71-.19 1.39-.45 2.08-.68l2.03-.82.13-.05.07-.12c.77-1.34 1.25-2.75 1.64-4.19.39-1.44.58-2.93.62-4.41.04-1.48-.04-2.97-.34-4.41-.21-1.46-.68-2.86-1.19-4.24-.75-1.04-1.67-1.91-2.62-2.75-.96-.83-1.97-1.6-3.03-2.3-1.06-.7-2.17-1.33-3.3-1.9-1.14-.58-2.32-1.04-3.51-1.49l-.03-.01h-.02c-.53-.05-.8.08-1.15.19-.32.12-.62.29-.91.46-.56.36-1.08.76-1.57 1.19-.98.85-1.83 1.83-2.63 2.82-1.61 2-2.97 4.15-4.35 6.28l-.02.03.01.02zm.32.09c.7-1.04 1.4-2.08 2.17-3.07.76-1.01 1.55-1.99 2.39-2.94.84-.93 1.7-1.85 2.64-2.66.47-.4.96-.78 1.48-1.09.26-.16.52-.29.79-.4.24-.1.57-.18.69-.18l1.73.62 1.73.71c1.15.49 2.28 1.03 3.37 1.66 1.08.63 2.15 1.3 3.12 2.09.97.79 1.9 1.66 2.65 2.66.47 1.38.89 2.78 1.07 4.23.2 1.44.19 2.91.05 4.35-.13 1.44-.45 2.86-.87 4.23-.4 1.33-.96 2.63-1.61 3.8l-1.83.73c-.67.21-1.34.46-2.02.64-1.36.38-2.75.65-4.14.82-1.4.15-2.81.18-4.21.04-1.35-.15-2.75-.43-3.95-.95l-1.08-1.65-1.06-1.79c-.66-1.22-1.3-2.46-1.79-3.76-.51-1.29-.92-2.63-1.17-4-.27-1.35-.38-2.76-.15-4.09z" fill="#e1ac8f" stroke-width="none" opacity="1" stroke="none"></path><path id="SvgjsPath5357" d="M52.21 84.06c.46-.6.96-1.16 1.45-1.73 1.01-1.12 2.05-2.19 3.12-3.26l.12-.12.16.12c.9.67 1.74 1.43 2.52 2.24.77.82 1.44 1.71 2.09 2.62 1.27 1.84 2.38 3.77 3.26 5.82l-.08.04c-1.24-1.84-2.49-3.65-3.81-5.4-.66-.87-1.34-1.73-2.03-2.57-.66-.79-1.34-1.57-2.09-2.27-1.1.89-2.11 1.91-3.01 3-.91 1.1-1.7 2.31-2.27 3.59.53 1.19 1.08 2.38 1.66 3.54.53 1.03 1.08 2.07 1.7 3.01.68-.6 1.35-1.23 1.97-1.88.72-.77 1.38-1.61 1.82-2.53-.13-.47-.36-.96-.61-1.42a7.38 7.38 0 0 0-1.01-1.36l.06-.07c.46.35.88.77 1.24 1.23.18.23.35.48.49.74.15.26.28.52.39.83l.02.07-.03.1c-.36 1.14-1.06 2.08-1.76 2.96-.72.89-1.51 1.68-2.37 2.45l-.39.34-.31-.42c-.85-1.16-1.45-2.4-2.02-3.65-.58-1.25-1.09-2.51-1.56-3.8l-.06-.15.07-.12c.38-.72.81-1.35 1.27-1.95z" fill="#c27b55" stroke-width="none" opacity="1" stroke="none"></path></g></g><g id="svga-group-ears-right-move" transform="matrix(1,0,0,1,0,0)"><g id="svga-group-ears-right"><path id="SvgjsPath5358" d="M129.99 81.26s3.24-4.86 12.55-8.1c0 0 3.1-.67 10.39 10.66 0 0 1.35 5.94-5.13 15.65 0 0-6.34 3.37-16.73-1.21 0 0-4.72-7.69-1.08-17z" fill="#f0c7b1" stroke-width="none" opacity="1" stroke="none"></path><path id="SvgjsPath5359" d="M131.34 90.08s5.67-8.43 10.93-11.38c0 0 3.51 2.67 6.48 7.73 0 0-2.97 6.89-4.45 8.71 0 0-3.64 1.41-11.2-.56l-1.76-4.5z" fill="#e1ac8f" stroke-width="none" opacity="1" stroke="none"></path><path id="SvgjsPath5360" d="m153.08 83.76-.02-.03c-1.38-2.13-2.74-4.29-4.35-6.28-.8-1-1.65-1.97-2.63-2.82-.49-.43-1-.84-1.57-1.19-.28-.18-.58-.34-.91-.46-.35-.11-.63-.24-1.15-.19h-.02l-.03.01c-1.19.45-2.38.92-3.51 1.49-1.14.58-2.24 1.2-3.3 1.9-1.06.7-2.07 1.47-3.03 2.3-.95.84-1.86 1.71-2.62 2.75-.51 1.38-.98 2.78-1.19 4.24-.29 1.45-.38 2.93-.34 4.41.04 1.48.23 2.97.62 4.41.39 1.45.87 2.85 1.64 4.19l.07.12.13.05 2.03.82c.69.22 1.38.49 2.08.68 1.41.4 2.84.7 4.3.84 1.46.13 2.94.14 4.4-.04 1.47-.19 2.9-.49 4.28-1.17l.09-.04.05-.08 1.1-1.81c.33-.62.68-1.24 1-1.87.61-1.27 1.2-2.56 1.65-3.9.45-1.33.85-2.69 1.08-4.08.11-.7.19-1.4.22-2.1.04-.71.04-1.41-.08-2.13l.01-.02zm-.43 4.21c-.25 1.37-.65 2.71-1.17 4-.49 1.3-1.13 2.54-1.79 3.76l-1.06 1.79-1.08 1.65c-1.21.52-2.6.81-3.95.95-1.4.14-2.81.11-4.21-.04-1.4-.17-2.78-.44-4.14-.82-.68-.18-1.35-.43-2.02-.64l-1.83-.73c-.65-1.18-1.21-2.48-1.61-3.8-.42-1.38-.74-2.79-.87-4.23-.14-1.44-.15-2.9.05-4.35.17-1.45.6-2.85 1.07-4.23.74-1 1.67-1.88 2.65-2.66.98-.79 2.04-1.46 3.12-2.09 1.09-.62 2.22-1.16 3.37-1.66l1.73-.71 1.73-.62c.11 0 .45.08.69.18.26.12.53.25.79.4.51.31 1.01.68 1.48 1.09.94.81 1.8 1.73 2.64 2.66.83.94 1.63 1.93 2.39 2.94.77.99 1.47 2.03 2.17 3.07.2 1.33.09 2.74-.15 4.09z" fill="#e1ac8f" stroke-width="none" opacity="1" stroke="none"></path><path id="SvgjsPath5361" d="M147.79 84.06c-.46-.6-.96-1.16-1.45-1.73a87.123 87.123 0 0 0-3.12-3.26l-.12-.12-.16.12c-.9.67-1.74 1.43-2.52 2.24-.77.82-1.44 1.71-2.09 2.62-1.27 1.84-2.38 3.77-3.26 5.82l.08.04c1.24-1.84 2.49-3.65 3.81-5.4.66-.87 1.34-1.73 2.03-2.57.66-.79 1.34-1.57 2.09-2.27 1.1.89 2.11 1.91 3.01 3 .91 1.1 1.7 2.31 2.27 3.59-.53 1.19-1.08 2.38-1.66 3.54-.53 1.03-1.08 2.07-1.7 3.01-.68-.6-1.35-1.23-1.97-1.88-.72-.77-1.38-1.61-1.82-2.53.13-.47.36-.96.61-1.42.28-.49.62-.94 1.01-1.36l-.06-.07c-.46.35-.88.77-1.24 1.23-.18.23-.35.48-.49.74-.15.26-.28.52-.39.83l-.02.07.03.1c.36 1.14 1.06 2.08 1.76 2.96.72.89 1.51 1.68 2.37 2.45l.39.34.31-.42c.85-1.16 1.45-2.4 2.02-3.65.58-1.25 1.09-2.51 1.56-3.8l.06-.15-.07-.12c-.38-.72-.81-1.35-1.27-1.95z" fill="#c27b55" stroke-width="none" opacity="1" stroke="none"></path></g></g><g id="svga-group-faceshape-wrap"><g id="svga-group-faceshape-single"><path id="SvgjsPath4453" d="M138.8 92.87c.5-12.9 1.36-24.05 1.36-24.05s.93-9.64.03-13.74c-2.2-10-6.07-15.94-14.97-20.74-9.3-5-25.19-4.9-25.19-4.9s-15.84-.22-25.14 4.78C66.08 39.03 61.8 44.9 59.6 54.9c-.9 4 0 13.6 0 13.6s.9 11.6 1.4 24.4c.38 9.74 2.53 31.14 2.59 41.04.02 3.48 2.87 6.71 5.9 8.42 14.58 8.22 30.52 8.31 30.52 8.31s15.97.01 30.56-8.21c3.06-1.72 5.93-4.99 5.95-8.5.03-9.99 1.9-31.39 2.28-41.09z" fill="#f0c7b1" stroke-width="none" opacity="1" stroke="none"></path><path id="SvgjsPath4454" d="M59.6 54.9c-.9 4 0 13.6 0 13.6s.9 11.6 1.4 24.4c.38 9.74 2.53 31.14 2.59 41.04.02 3.48 2.87 6.71 5.9 8.42 14.58 8.22 30.52 8.31 30.52 8.31s15.97.01 30.56-8.21c3.06-1.72 5.93-4.99 5.95-8.5.04-9.99 1.91-31.38 2.29-41.09.5-12.9 1.36-24.05 1.36-24.05s.93-9.64.03-13.74c-2.2-10-6.07-15.94-14.97-20.74-9.3-5-25.19-4.9-25.19-4.9s-15.84-.22-25.14 4.78C66.08 39.03 61.8 44.9 59.6 54.9zm22.18-22.56c3.47-.88 7.04-1.37 10.62-1.65 3.59-.28 7.18-.36 10.75-.12 3.58.21 7.15.63 10.66 1.28 3.5.67 6.97 1.58 10.1 3.08 1.57.74 3.11 1.67 4.54 2.66 1.44 1 2.81 2.09 4.01 3.36 2.4 2.52 4.22 5.57 5.46 8.91.62 1.67 1.14 3.38 1.57 5.12.42 1.67.5 3.48.55 5.27.04 1.8 0 3.61-.07 5.41-.08 1.8-.21 3.61-.26 5.43-.26 7.27-.63 14.52-1.03 21.77-.35 7.25-.96 14.49-1.58 21.72-.31 3.62-.62 7.24-.88 10.87-.13 1.81-.25 3.63-.35 5.45l-.12 2.74c-.02.88-.15 1.62-.46 2.4-.59 1.53-1.68 2.88-2.96 3.97-.64.55-3.65 2.25-4.44 2.65-3.21 1.54-6.56 2.8-9.98 3.8-3.43.99-6.93 1.74-10.46 2.25-1.77.24-3.54.43-5.31.54-.87.05-4.35-.03-5.24-.12-7.09-.66-14.13-2.31-20.7-4.99-.84-.31-1.63-.71-2.44-1.07-.82-.35-1.6-.77-2.39-1.18 0 0-1.89-1.03-2.24-1.26-.68-.47-1.32-1-1.89-1.59-1.14-1.18-2.03-2.59-2.34-4.07-.07-.38-.15-2.5-.15-2.5-.02-.92-.07-1.83-.1-2.75-.35-7.29-1.03-14.53-1.65-21.76l-.92-10.84-.77-10.86-1.54-21.73c-.1-1.8-.16-3.61-.14-5.41.02-1.82.14-3.56.63-5.31.82-3.51 2.14-6.9 4.09-9.89 1.97-2.99 4.67-5.43 7.66-7.38 1.51-.95 3.08-1.85 4.7-2.55a39 39 0 0 1 5.07-1.65z" fill="#c27b55" stroke-width="none" opacity="1" stroke="none"></path></g></g><g id="svga-group-mouth-single-move" transform="matrix(1,0,0,1,0,0)"><g id="svga-group-mouth-single"><path id="SvgjsPath9405" d="M81.92 117.96s.27 1.88 3.14 5.11 7.53 10.04 8.79 10.67 14.26.99 14.88.99c.63 0 3.68-6.81 4.3-8.88.63-2.06 2.24-6.37 2.06-6.99 0 0-4.66 1.26-7.53 2.06-2.87.81-8.34 1.52-9.24 1.52-.79 0-9.76-2.06-16.4-4.48z" fill="#000000" stroke-width="none" opacity="1"></path><path id="SvgjsPath9406" d="M107.66 120.83c-2.87.81-8.34 1.52-9.24 1.52s-9.86-1.97-16.5-4.39c0 0 .27 1.88 3.14 5.11.72.81 1.61 1.88 2.51 3.05 2.51.63 6.64 1.61 8.88 1.97 0 0 .45-1.26.63-1.34.18-.09.18 1.43.18 1.43s4.12.9 6.55.72c0 0 .63-.45 1.43-.09 0 0 3.95-.54 7.26-1.17.27-.72.54-1.34.63-1.7.63-2.06 2.24-6.37 2.06-6.99 0-.1-4.66 1.07-7.53 1.88z" fill="#ffffff" stroke-width="none" opacity="1"></path><path id="SvgjsPath9407" d="M116.89 118.41c-.54-.54-1.26-1.17-2.24-1.17-.36 0-.54.18-.36.36.09.09.18.27.27.36-2.42.72-4.84 1.34-7.35 1.88-2.78.63-6.01 1.79-8.97 1.79-2.6 0-5.65-.99-8.16-1.61-2.42-.63-4.84-1.43-7.26-2.24.18-.09.36-.09.54-.18.36-.18.45-.54-.09-.63-.72-.18-1.43.09-1.97.36s-.99.72-.72 1.26c.09.18.36.18.54.18.09 0 .09 0 .18-.09.45 1.88 2.51 3.68 3.77 5.38 1.97 2.51 4.03 5.02 5.83 7.62.63.9 1.17 2.24 2.24 2.87.9.54 2.24.54 3.41.63 4.03.27 8.07.45 12.19.45.54 0 .9-.18 1.08-.45 2.87-5.02 4.75-10.31 6.1-15.69.18.36.36.72.81.99.27.18.72.18.9-.09.43-.73-.29-1.54-.74-1.98zm-8.69 15.6c-2.96 0-5.83-.09-8.79-.27-1.34-.09-3.77 0-4.84-.54-.99-.54-1.97-2.15-2.69-2.87-1.7-1.97-3.32-3.95-4.93-5.92-1.43-1.7-3.86-3.95-4.39-5.92 2.24.99 4.66 1.79 7.17 2.51 2.69.81 6.01 1.88 8.88 2.15 2.6.27 5.92-.9 8.25-1.52 2.69-.72 5.38-1.61 7.89-2.6-1.35 5.2-3.68 10.22-6.55 14.98z" fill="#da7c87" stroke-width="none" opacity="1"></path><path id="SvgjsPath9408" d="M116.36 115.54c-.27-.09-.63.09-.36.27.81.54 1.61 1.08 2.24 1.7s.9 1.26 1.43 1.88c.09.18.54.09.54-.09-.09-1.43-1.97-3.05-3.85-3.76z" fill="#e8b9a0" stroke-width="none" opacity="1"></path></g></g><g id="svga-group-eyes-left-move" transform="matrix(1,0,0,1,0,0)"><g id="svga-group-eyes-left"><g id="svga-group-eyesback-left"><path id="SvgjsPath9173" d="M80.2 74.2c7.5 0 13.5 5.8 13.5 13s-6 13-13.5 13-13.5-5.8-13.5-13 6-13 13.5-13z" fill="#ffffff" stroke-width="none" opacity="1"></path></g><g id="svga-group-eyesiriswrapper-left" transform="matrix(1,0,0,1,0,0)"><g id="svga-group-eyesiriscontrol-left" transform="matrix(1,0,0,1,0,0)"><g id="svga-group-eyesiris-left"><path id="SvgjsPath6179" d="M80.2 81.6c3.1 0 5.6 2.5 5.6 5.6s-2.5 5.6-5.6 5.6-5.6-2.5-5.6-5.6 2.5-5.6 5.6-5.6z" fill="#4e60a3" stroke-width="none" opacity="1" stroke="none"></path><path id="SvgjsPath6180" d="M80.2 82.7c2.5 0 4.5 2 4.5 4.5s-2 4.5-4.5 4.5-4.5-2-4.5-4.5 2-4.5 4.5-4.5z" fill="#000000" stroke-width="none" opacity="1"></path><path id="SvgjsPath6181" d="M74.6 87.2c0 .9.2 1.8.6 2.6.8.5 1.8.8 2.8.8 2.9 0 5.3-2.4 5.3-5.3 0-1.2-.4-2.4-1.1-3.3-.6-.2-1.3-.4-2-.4-3.1 0-5.6 2.5-5.6 5.6z" fill="#6777b2" stroke-width="none" opacity="1" stroke="none"></path><path id="SvgjsPath6182" d="M75.7 87.2c0 1.3.5 2.4 1.4 3.3.3.1.6.1 1 .1 2.9 0 5.3-2.4 5.3-5.3 0-.5-.1-1.1-.2-1.6-.8-.7-1.8-1.1-2.9-1.1-2.6.1-4.6 2.1-4.6 4.6z" fill="#1e1e1e" stroke-width="none" opacity="1"></path><path id="SvgjsPath6183" d="M77.7 84.8c.6-.7 1.6-.9 2-.4.5.5.4 1.4-.3 2.1s-1.6.9-2 .4c-.4-.5-.3-1.4.3-2.1z" fill="#2b2b2b" stroke-width="none" opacity="1"></path></g></g></g><g id="svga-group-eyesfront-left"><path id="SvgjsPath9181" d="M80.2 73.7c-7.8 0-14.1 6.1-14.1 13.6s6.3 13.6 14.1 13.6 14.1-6.1 14.1-13.6S88 73.7 80.2 73.7zm0 21.9c-5.5 0-10.7-2.8-10.8-3.7-.2-1 .9-4.2 3.2-6.8 2.4-2.6 8-3.5 12.8-1.5s5.9 8 5.9 8c.1 1.8-5.6 4-11.1 4z" fill="#f0c7b1" stroke-width="none" opacity="1" stroke="none"></path><path id="SvgjsPath9182" d="M89.4 86.9c.7 0 3.1 0 2.4-.2-1.2-.4-5.6-3.8-6.8-4.3s-5.5-1.3-6.2-1.3-7.1 2.8-7.7 3.2c-.6.4-2.2 6-2.6 6.3-.2.2.4.5.8.7 0 .1 0 .2-.1.3v.2c0 .1.1.2.1.3.1.2.2.3.3.4.2.2.5.4.7.6.5.3 1 .6 1.6.9 2.1 1 4.4 1.6 6.8 1.8 2.4.2 4.7-.1 7-.7 1.1-.3 2.2-.7 3.3-1.2.5-.3 1-.5 1.5-.9l.6-.6c.2-.2.3-.5.3-.8-.2-1.1-.7-2.2-1.2-3.3-.3-.4-.5-.9-.8-1.4zm1.6 5.5-.6.6c-.5.3-1 .6-1.5.8-1.1.4-2.2.8-3.3 1-2.2.4-4.6.7-6.8.5-2.3-.2-4.5-.8-6.6-1.7-.5-.2-1-.5-1.5-.8-.2-.2-.5-.3-.7-.5-.1-.1-.2-.2-.2-.3 0-.1 0-.1-.1-.1v-.2c0-.2 0-.4.1-.6.4-1 1.6-3.8 2.5-5 1.2-1.5 3.6-3.3 6.9-3.3 1.7 0 3.2.2 4.5.5.5.2 1.1.3 1.6.6 1.1.4 2 1.1 2.8 1.8 1.6 1.6 2.8 3.7 3.3 5.9-.1.3-.2.6-.4.8z" fill="#000000" stroke-width="none" opacity="1" stroke="none"></path></g></g></g><g id="svga-group-eyes-right-move" transform="matrix(1,0,0,1,0,0)"><g id="svga-group-eyes-right"><g id="svga-group-eyesback-right"><path id="SvgjsPath9174" d="M119.8 74.2c7.5 0 13.5 5.8 13.5 13s-6 13-13.5 13-13.5-5.8-13.5-13 6-13 13.5-13z" fill="#ffffff" stroke-width="none" opacity="1"></path></g><g id="svga-group-eyesiriswrapper-right" transform="matrix(1,0,0,1,0,0)"><g id="svga-group-eyesiriscontrol-right" transform="matrix(1,0,0,1,0,0)"><g id="svga-group-eyesiris-right"><path id="SvgjsPath6184" d="M119.8 82.3c2.7 0 4.9 2.2 4.9 4.9s-2.2 4.9-4.9 4.9-4.9-2.2-4.9-4.9 2.2-4.9 4.9-4.9z" fill="#4e60a3" stroke-width="none" opacity="1" stroke="none"></path><path id="SvgjsPath6185" d="M119.8 83.2c2.2 0 4 1.8 4 4s-1.8 4-4 4-4-1.8-4-4 1.8-4 4-4z" fill="#000000" stroke-width="none" opacity="1"></path><path id="SvgjsPath6186" d="M114.9 87.2c0 .8.2 1.6.6 2.3.7.4 1.5.7 2.4.7 2.6 0 4.6-2.1 4.6-4.6 0-1.1-.4-2.1-1-2.9-.5-.2-1.1-.3-1.7-.3-2.7-.1-4.9 2.1-4.9 4.8z" fill="#6777b2" stroke-width="none" opacity="1" stroke="none"></path><path id="SvgjsPath6187" d="M115.8 87.2c0 1.1.5 2.2 1.2 2.9.3.1.6.1.8.1 2.6 0 4.6-2.1 4.6-4.6 0-.5-.1-.9-.2-1.4-.7-.6-1.6-.9-2.5-.9-2.1-.1-3.9 1.7-3.9 3.9z" fill="#1e1e1e" stroke-width="none" opacity="1"></path><path id="SvgjsPath6188" d="M117.6 86.1c.6-.6 1.4-.8 1.8-.4.4.4.3 1.2-.2 1.8s-1.4.8-1.8.4c-.4-.4-.3-1.2.2-1.8z" fill="#2b2b2b" stroke-width="none" opacity="1"></path></g></g></g><g id="svga-group-eyesfront-right"><path id="SvgjsPath9183" d="M119.8 73.7c-7.8 0-14.1 6.1-14.1 13.6s6.3 13.6 14.1 13.6 14.1-6.1 14.1-13.6-6.3-13.6-14.1-13.6zm.3 20.6c-5.5 0-11.3-1.9-11.1-3.4 0 0 1.2-5.1 5.9-6.9s9.6-.7 12 1.5c2.4 2.3 4.2 4.8 4 5.6-.1.8-5.3 3.2-10.8 3.2z" fill="#f0c7b1" stroke-width="none" opacity="1" stroke="none"></path><path id="SvgjsPath9186" d="M131.9 90c-.3-.3-3.5-4-4.1-4.3s-4-3.2-4.8-3.2-6.4 0-7.6.4-4.2 2.8-4.7 3.4c-.3.4.2.2.7 0-.4.5-.8 1-1.1 1.5-.6 1-1 2-1.3 3 0 .3.1.6.3.8.2.2.4.4.7.5.5.3 1 .5 1.5.8 1 .4 2.1.8 3.2 1 2.2.5 4.4.8 6.6.7 2.2-.1 4.4-.6 6.5-1.3 1-.4 2.1-.8 3-1.5l.3-.3c.1-.1.1-.2.1-.3v-.3c0-.1 0-.1-.1-.2.4-.2 1-.4.8-.7zm-1.2 1.1c-.1.1-.1.2-.2.2-.8.6-1.9 1-2.9 1.4-2.1.7-4.2 1.1-6.4 1.3-2.2.1-4.3-.1-6.5-.4-1.1-.2-2.1-.4-3.2-.8-.5-.2-1-.4-1.5-.7-.2-.1-.5-.3-.7-.5-.2-.2-.3-.4-.3-.7.6-2.1 1.9-4 3.6-5.3.9-.7 1.8-1.1 2.8-1.5.9-.3 1.7-.5 2.6-.6.2 0 .5-.1.7-.1h.7c1.8-.1 3.7.2 5.3.9 1.3.8 2.3 1.8 2.9 2.5.9 1 2.3 2.9 2.8 3.7.1.2.1.3.1.5.2-.1.2 0 .2.1z" fill="#000000" stroke-width="none" opacity="1" stroke="none"></path></g></g></g><g id="svga-group-facehighlight-single"></g><g id="svga-group-eyebrows-left-move" transform="matrix(1,0,0,1,0,0)"><g id="svga-group-eyebrows-left-rotate" transform="matrix(1,1.7453292519943295e-9,-1.7453292519943295e-9,1,1.2391838311032188e-7,-1.3753196981269866e-7)"><g id="svga-group-eyebrows-left"><path id="SvgjsPath6450" d="M91.5 72.22s-1.28 2.06-2.36 1.59c-1.08-.48-6.27-3.19-9.56-2.78-3.29.41-5.17 2.39-5.17 2.39l-1.48.75.48.39s-3.13 2.59-3.97 2.55c-.84-.04-2.04-1.27-1.97-3.59.07-2.32 3.08-5.09 3.08-5.09s-.48.18-1.49.66c0 0 1.23-1.86 4.52-3.33 3.3-1.47 9.08-1.46 10.9-.54L84 64.16s4.38 1.8 5.44 3.25l.17-1.09c-.01-.01 2.89 2.54 1.89 5.9z" fill="#2a232b" stroke-width="none" opacity="1" stroke="none"></path><path id="SvgjsPath6451" d="M91.49 68.91c-.18-.54-.44-1.04-.74-1.5-.3-.46-.63-.89-1.03-1.27l-.24-.24-.07.37-.11.62c-.3-.32-.63-.57-.97-.8-.45-.31-.91-.59-1.38-.85-.94-.52-1.88-.99-2.86-1.42l-.75-.33.37.82.13.29c-.45-.13-.9-.21-1.35-.28-.7-.09-1.4-.13-2.1-.13-1.4 0-2.79.12-4.17.4-.69.14-1.37.32-2.04.56-.67.25-1.31.56-1.94.91-.63.35-1.23.76-1.8 1.23-.57.47-1.11.97-1.57 1.63l-.57.81.85-.4.47-.22c-.59.67-1.12 1.39-1.57 2.19-.31.58-.58 1.22-.67 1.92-.07.7 0 1.4.21 2.07.21.66.58 1.27 1.11 1.65.27.18.58.32.92.25.31-.08.58-.23.85-.37 1.06-.62 2.06-1.35 3.04-2.11l.2-.16-.21-.18-.2-.17 1.19-.57.02-.01.04-.03c.56-.52 1.23-.95 1.91-1.29.68-.35 1.4-.61 2.13-.78.74-.17 1.47-.28 2.22-.21.75.06 1.5.2 2.25.38 1.49.39 2.96.93 4.41 1.55l1.08.48c.18.08.36.16.55.23.21.08.44.07.64.01.4-.13.72-.41 1.01-.71.29-.31.53-.65.75-1.02.15-.53.28-1.09.25-1.66.02-.56-.07-1.13-.26-1.66zm.1 2.7-.04.2-.08.4c-.23.33-.51.64-.8.92-.29.27-.62.51-.96.59-.17.03-.35.03-.5-.04-.17-.08-.35-.17-.53-.26l-1.07-.53c-1.43-.69-2.9-1.32-4.42-1.75-.76-.21-1.54-.38-2.33-.44l-.6-.02c-.2 0-.4.02-.6.03a9.226 9.226 0 0 0-3.41 1.05c-.7.38-1.35.84-1.95 1.43l-1.44.78-.31.16.28.22.28.22c-.87.74-1.77 1.46-2.72 2.05-.26.15-.52.3-.79.37-.25.06-.54-.06-.78-.22-.49-.34-.84-.92-1.02-1.54-.19-.62-.25-1.31-.18-1.95.08-.64.35-1.24.67-1.79.65-1.09 1.5-2.04 2.4-2.87l.95-.87-1.14.47-.45.19c.23-.21.47-.42.71-.61.55-.43 1.14-.8 1.75-1.13.61-.33 1.24-.62 1.87-.84.64-.21 1.3-.38 1.97-.5.67-.12 1.34-.21 2.02-.26.68-.07 1.36-.08 2.04-.09.68.01 1.36.04 2.03.12.66.09 1.35.2 1.92.47l.82.38-.42-.88-.11-.24c.7.3 1.39.62 2.07.97.46.24.92.5 1.36.79.43.28.87.6 1.18.98l.31.38.07-.49.1-.7c.27.27.52.57.75.88.3.42.56.89.76 1.38.21.49.32 1.03.37 1.57l.02.41-.03.41c-.01.06-.01.13-.02.2z" fill="#1b141c" stroke-width="none" opacity="1" stroke="none"></path></g></g></g><g id="svga-group-eyebrows-right-move" transform="matrix(1,0,0,1,0,0)"><g id="svga-group-eyebrows-right-rotate" transform="matrix(1,1.7453292519943295e-9,-1.7453292519943295e-9,1,1.2705996255135688e-7,-2.123193070246998e-7)"><g id="svga-group-eyebrows-right"><path id="SvgjsPath6452" d="M109.22 76.81s1.57 1.57 2.57.99 5.71-3.72 9.02-3.89c3.31-.17 5.46 1.24 5.46 1.24l1.57.41-.41.41s3.48 1.74 4.3 1.57c.83-.17 1.82-1.41 1.41-3.39-.41-1.99-3.81-3.89-3.81-3.89s.5.08 1.57.33c0 0-1.49-1.41-4.96-2.15s-9.18.17-10.84 1.24l.33-.99s-4.05 2.23-4.88 3.64l-.33-.91c-.01.01-2.49 2.66-1 5.39z" fill="#2a232b" stroke-width="none" opacity="1" stroke="none"></path><path id="SvgjsPath6453" d="M133.17 73.9c-.19-.59-.55-1.09-.95-1.55-.56-.62-1.2-1.16-1.88-1.64l.5.12.9.21-.69-.61c-.56-.49-1.16-.84-1.8-1.15-.63-.31-1.29-.57-1.96-.77-.67-.2-1.35-.37-2.05-.48-.7-.1-1.4-.15-2.1-.16-1.4-.03-2.79.09-4.17.31-.69.11-1.37.25-2.05.44-.43.13-.87.27-1.29.45l.09-.27.25-.76-.69.4c-.9.52-1.76 1.07-2.61 1.66-.42.3-.83.61-1.23.95-.3.25-.58.54-.83.86l-.21-.54-.12-.31-.21.24c-.33.39-.6.81-.83 1.25-.23.44-.4.91-.5 1.4-.11.49-.11 1-.04 1.49.05.5.27.96.5 1.39.28.29.57.54.89.76.33.21.69.4 1.11.45.21.02.43-.01.63-.11.18-.09.34-.19.51-.29l1-.58c1.34-.76 2.71-1.45 4.12-2.02.71-.27 1.43-.52 2.16-.68.73-.17 1.47-.2 2.23-.17.75.03 1.5.15 2.22.34.72.19 1.45.45 2.08.81l.04.02.03.01 1.26.3-.17.18-.18.19.22.1c1.08.5 2.17.97 3.31 1.34.29.08.58.17.9.19.34 0 .63-.17.87-.36.47-.41.74-1 .85-1.6.1-.6.06-1.22-.11-1.81zm-.09 1.78c-.09.56-.35 1.12-.78 1.48-.21.17-.48.32-.74.31-.27-.02-.56-.11-.84-.19-1.03-.35-2.02-.84-2.99-1.33l.24-.23.24-.23-.33-.09-1.54-.44a8.24 8.24 0 0 0-2.14-.92 10.3 10.3 0 0 0-2.34-.38c-.4-.02-.79-.02-1.19.01-.2.02-.4.04-.6.07l-.59.11c-.77.18-1.51.44-2.23.75-1.44.61-2.79 1.38-4.11 2.19l-.98.62c-.16.1-.32.22-.48.31-.14.08-.31.12-.49.11-.36-.02-.71-.17-1.04-.36-.32-.19-.64-.42-.92-.67l-.14-.33-.07-.16c-.02-.06-.03-.12-.05-.17l-.09-.35-.04-.35c-.04-.47 0-.95.13-1.41.13-.46.31-.89.54-1.31.18-.31.39-.6.61-.88l.2.59.14.41.25-.37c.25-.38.63-.72 1.02-1.03.39-.31.8-.61 1.22-.89.62-.41 1.25-.79 1.9-1.16l-.08.22-.28.82.76-.45c.53-.32 1.19-.53 1.83-.7a26 26 0 0 1 1.99-.42c.67-.1 1.35-.2 2.02-.25.68-.06 1.36-.09 2.03-.09.68 0 1.35.04 2.02.12.66.09 1.32.24 1.97.43.65.19 1.29.41 1.9.7.27.12.54.26.8.41l-.47-.09-1.2-.23 1.06.6c1.01.57 1.99 1.25 2.8 2.09.4.42.76.89.93 1.43.19.53.24 1.13.15 1.7z" fill="#1b141c" stroke-width="none" opacity="1" stroke="none"></path></g></g></g><g id="svga-group-beardwrap"><g id="svga-group-beard-single-move" transform="matrix(1,0,0,1,0,0)"><g id="svga-group-beard-single"><path id="SvgjsPath8613" d="M142.1 91.3c-2-4.1-3.8-7.2-4.9-6.9s-1.6 9.7-1.8 12.8-8.1 18.9-10.9 18.9c-3 0-4.2-1.7-5.6-2.6-4.4-2.8-10.6.5-18.5.2-4.6-.2-15-2.8-19.2-.2-2 1.2-3.1 3-6.5 1.8-3.1-1.5-10-13-10.3-17.3s-.8-10.7-1.6-12.5-3 3.6-4.8 7.2c-1.8 3.6-2.6 11.2-3 16.9s-.2 20 14.8 34.3c15 14.3 43.2 12.5 52.9 6.9 11.7-6.8 15.5-12.5 20-25.2 4.6-12.4 1.3-30.2-.6-34.3zm-28.3 44c-2.7 4-14.8 4.4-23.1 1.9-8.3-2.4-9.9-14.3-8.7-17.1 1.2-2.8 13.3-.1 17.9.1 6.6.3 17.1-1.7 17.9 1.4.9 3.2-1.4 9.7-4 13.7z" fill="#2a232b" stroke-width="none" opacity="1"></path><path id="SvgjsPath8614" d="M145.2 111.3c0-.1 0-.1 0 0v-1.4l.3 1.2c0-1.6-.2-3.2-.4-4.9 0-.4-.1-.9-.1-1.3-.2-2.3-.5-4.6-.9-6.9-.4-2.3-.9-4.6-1.9-6.7-.9-1.8-1.7-3.6-2.9-5.3l-.9-1.2c-.2-.2-.4-.3-.6-.4-.2-.1-.6-.2-.8.1-.3.4-.4.9-.5 1.4l-.3 1.5c-.3 2-.4 4-.6 6l-.2 3c0 .5 0 1-.2 1.5-.1.5-.3.9-.4 1.4-1.4 3.7-3.2 7.3-5.3 10.7-1 1.7-2.1 3.4-3.5 4.8-.3.3-.7.7-1.1.9-.1 0-.2.1-.3.1h-.3c-.2 0-.5 0-.7-.1-.9-.1-1.8-.5-2.6-1s-1.5-1.3-2.5-1.8c-.9-.5-2-.8-3-.9-2.1-.2-4.1.1-6.1.4-3.9.6-7.9 1.2-11.8.6-3.9-.5-7.9-1.2-12-1-1 .1-2 .2-3 .5s-2 .8-2.8 1.4c-.8.6-1.6 1.2-2.5 1.4-.9.2-1.8 0-2.8-.2-.9-.5-1.7-1.4-2.5-2.2-.8-.9-1.4-1.8-2.1-2.8-1.3-1.9-2.5-3.9-3.5-6s-2-4.2-2.2-6.5l-.6-6.9c-.1-1.2-.3-2.3-.5-3.5-.1-.6-.2-1.2-.5-1.7-.1-.1-.2-.3-.3-.4-.2-.1-.4 0-.6.1-.3.2-.5.4-.6.7-1.3 2-2.2 4.1-3.2 6.2-1.1 2.1-1.7 4.4-2.1 6.7-.1.3-.1.7-.2 1-.3.8-.6 1.7-.8 2.6.2-.2.3-.5.5-.7-.1.6-.2 1.2-.2 1.8-.1.4-.2.8-.3 1.1-.5 1.9-.8 3.9-.7 5.9.2-.8.4-1.7.6-2.5-.1 1.6-.2 3.1-.2 4.7v1.5c0 .8.1 1.5.2 2.2 0 .2 0 .3.1.5.1.6.2 1.3.3 1.9 0 .2 0 .3.1.4 0 .1 0 .2.1.4.1.4.2.9.3 1.3 0 .2.1.4.1.6.1.5.2.9.4 1.4v.2c.2 2.4.8 4.8 1.8 7-.2-1.1-.5-2.3-.6-3.4.6 1.5 1.2 3 2 4.4.5 1 1.1 2 1.7 3 .2.6.5 1.1.8 1.6.7 1.2 1.4 2.4 2.2 3.4-.3-.6-.6-1.2-.8-1.8.3.4.5.7.8 1 .1.1.1.2.2.3.7.8 1.3 1.6 2 2.4l.2.2c.6.6 1.1 1.2 1.7 1.8l.7.7c.1.1.3.2.4.4.3.2.5.5.8.7.2.2.4.3.6.5.5.4 1 .9 1.6 1.4.6.6 1.4 1 2.1 1.5.7.4 1.4 1 2.2 1.4.7.4 1.4.7 2.1 1.1.9.6 1.8 1.1 2.7 1.6 1.3.6 2.7 1.2 4.1 1.5-.9-.4-1.8-.9-2.6-1.4l2.7.9c.2.1.4.1.6.2.3.1.6.2.9.2.6.1 1.1.3 1.6.4.1 0 .2 0 .3.1.1 0 .2 0 .3.1.6.1 1.1.3 1.7.4l1.6.2.9.1c.4.1.8.1 1.3.2l1.3.1 2.5.2 2.5.1h2.6c.8 0 1.7 0 2.5-.1 1.7-.1 3.4-.2 5.1-.5 3.3-.5 6.7-1.2 9.9-2.5.8-.4 1.6-.8 2.3-1.1l2.2-1.3h.1c-.2.2-.5.5-.8.7 1.3-.8 2.4-1.6 3.6-2.6l.1-.1 1.2-.9c.2-.2.4-.3.6-.5.3-.2.6-.4.8-.7.3-.2.6-.5.8-.7l.6-.6.9-.9c.2-.2.4-.5.7-.7.2-.2.4-.4.6-.7.2-.2.3-.4.5-.6.3-.3.5-.7.8-1 .1-.1.2-.3.3-.4-.1.1-.1.2-.1.3-.7 1.4-1.4 2.7-2.2 4.1 1-1.2 1.9-2.5 2.7-3.8.8-1.3 1.5-2.7 2.1-4.2.1-.3.2-.7.4-1 .6-1.2 1.2-2.4 1.7-3.6.1-.3.2-.6.4-.9.1-.1.1-.2.2-.4s.2-.5.3-.7c-.2.7-.5 1.5-.8 2.2.7-1.1 1.3-2.3 1.8-3.5.5-1.2.9-2.5 1.2-3.8.2-1 .4-1.9.4-2.9.1-.3.1-.6.2-.9 0-.1 0-.2.1-.3 0-.1 0-.2.1-.2-.1 1.8-.3 3.6-.4 5.4.7-2.3 1.1-4.6 1.2-7 .1-1.5 0-3-.1-4.5-.5-1.2-.4-2.3-.4-3.4zM58.4 92.2c1-2.1 1.9-4.3 3.1-6.2.3-.4.8-1 1-.4.2.5.3 1.1.5 1.6.2 1.1.3 2.3.5 3.4l.6 6.9c.2 2.4 1.2 4.5 2.2 6.6 1 2.1 2.2 4.1 3.5 6.1.7 1 1.3 1.9 2.1 2.8.8.9 1.5 1.8 2.6 2.4 1 .3 2 .6 3.1.3 1.1-.2 1.9-.9 2.8-1.5.8-.6 1.6-1.1 2.5-1.3.9-.2 1.9-.4 2.9-.4 3.9-.1 7.9.6 11.8 1.1 4 .6 8.1.1 12-.6 2-.3 3.9-.6 5.9-.4 1 .1 1.9.3 2.7.8.8.4 1.5 1.1 2.4 1.7.8.6 1.9 1 2.9 1.1h.8c.1 0 .3 0 .5-.1.1-.1.3-.1.4-.2.5-.3.9-.7 1.2-1 1.4-1.5 2.4-3.2 3.5-5 2-3.5 3.8-7.1 5.1-10.9.2-.5.3-1 .4-1.5.1-.5.1-1 .1-1.5l.1-3c.1-2 .3-4 .6-6 .1-.5.1-1 .3-1.5.1-.5.2-1 .5-1.4.1-.2.4-.1.6-.1.2.1.4.2.6.4.4.3.7.7.9 1.1 1.1 1.7 2 3.4 2.9 5.2.9 2.1 1.4 4.4 1.8 6.7.4 2 .6 4 .8 6v.3c0-.2-.1-.3-.1-.5-.1-.3-.2-.6-.2-.9-.6-2.2-1.3-4.4-2.4-6.4.6 2.4 1.2 4.8 1.8 7.3.4 1.6.8 3.3 1.1 4.9v2.5c0 .5 0 1-.1 1.5-.1-.2-.1-.5-.1-.8v1.2c-.1-1.5-.3-3-.7-4.5-.1 2.1 0 4.1-.1 6.1 0 1.3 0 2.6-.1 3.9l-.3 2.4c-.1.8-.3 1.6-.4 2.4-.2.7-.4 1.3-.6 2-.7 1.9-1.4 3.8-2.2 5.6.2-1.1.4-2.2.5-3.3h-.1c-.4 1.5-.8 3-1.3 4.4-.3 1-.7 1.9-1 2.9-1.4 2.6-3.1 5.1-5.1 7.3l.6-.9c.8-1.2 1.5-2.5 2.1-3.9-.9 1.2-1.7 2.4-2.6 3.6-.9 1.1-1.8 2.3-2.8 3.4-.4.4-.8.9-1.2 1.3-.8.6-1.6 1.2-2.5 1.8-.9.7-1.9 1.3-2.9 1.9l-1.5.9c-.5.3-1 .5-1.5.8l-.8.4-.8.3-1.6.6c-1.1.3-2.2.7-3.3.9-2.2.5-4.5.8-6.8 1-4.4.4-8.9.3-13.4-.2-.3 0-.6-.1-.9-.1-.2 0-.5-.1-.7-.1-.3-.1-.7-.1-1.1-.2-.7-.1-1.3-.2-1.9-.4-1.2-.2-2.3-.5-3.5-.8-.1 0-.2-.1-.4-.1-.1-.1-.3-.1-.4-.2-2.2-1-4.4-2.1-6.5-3.4.8.8 1.7 1.4 2.6 2.1-.3-.1-.6-.2-.9-.4-.5-.2-1.1-.4-1.6-.7-.1-.1-.2-.1-.4-.2-.9-.7-1.9-1.4-2.8-2.2-1.1-.9-2.1-1.8-3.1-2.8-.4-.5-.8-.9-1.3-1.4.1.1.2.3.2.4-.9-.9-1.8-1.8-2.6-2.8-1-1.2-2-2.4-3-3.7.7 1.4 1.6 2.8 2.6 4 .9 1.3 2 2.5 3.2 3.6.7.6 1.3 1.2 2 1.8 0 .1.1.1.1.1l.4.4c-1.2-.8-2.4-1.7-3.6-2.7.4.3.9.7 1.4 1-1.7-1.8-3.3-3.5-4.9-5.3-.9-1-1.7-2.1-2.6-3.2-1-1.9-1.9-3.9-2.7-5.9 0 .2.1.4.1.6 0 1.4.4 2.8.8 4.1-.7-.9-1.3-1.8-1.8-2.8-.2-.5-.4-1-.5-1.4v-.1l.6.9c-.8-2.2-1.5-4.3-2.1-6.4-.6-2.2-1.1-4.4-1.6-6.6-.1 2.3.3 4.6.9 6.8.2.5.3 1 .5 1.5v.3c.1.6.2 1.1.4 1.6v-.1c-.7-1.5-1.4-3-1.9-4.6v-.1c-.1-.4-.3-.8-.4-1.2 0-.1-.1-.3-.1-.4v-.2c-.2-2.4-.2-4.7-.1-7.2-.4 1.4-.6 2.8-.7 4.3-.6-2.8-.9-5.8-.9-8.7.1-2.2.2-4.4.4-6.6.5-1.9 1.1-3.7 1.7-5.6-.5.8-1 1.6-1.3 2.4 0-.4.1-.7.2-1.1.3-.5.5-1.1.8-1.6.5-1.2 1-2.4 1.2-3.7-.6.8-1.1 1.8-1.6 2.7 0-.1.1-.3.1-.4.5-1.1 1-2.9 1.9-4.6zm26.4 26.4c-.5.1-1 .1-1.5.3-.5.2-1 .4-1.4.9-.3.5-.3 1-.4 1.5-.1.5-.1 1-.1 1.5 0 .8.1 1.6.2 2.3-.1-.6-.3-1.1-.4-1.7 0 .4 0 .8.1 1.3-.2-.5-.4-1-.6-1.6.1 1.2.4 2.5.8 3.7.1.3.1.7.2 1 .3 1.4.8 2.8 1.4 4.2.6 1.4 1.3 2.6 2.2 3.9.8 1.2 1.8 2.3 2.9 3.3-.9-1.2-1.7-2.4-2.4-3.6-.6-1.1-1.2-2.2-1.7-3.3.4.6.8 1.3 1.3 1.9.3.3.6.7.9 1 .1.1.1.1.1.2 1 1.1 2.2 2.1 3.4 3-.5-.5-1-1.1-1.5-1.6.7.4 1.4.7 2.1.9 3.9 1.2 8 1.6 12.1 1.4 2-.1 4.1-.4 6-.9 1-.3 1.9-.6 2.9-1 .9-.5 1.8-1 2.4-1.9 1.1-1.7 2-3.5 2.8-5.4.8-1.9 1.4-3.8 1.7-5.8.1-.5.1-1 .1-1.6 0-.3 0-.5-.1-.8 0-.2-.2-.6-.3-.8-.4-.5-.9-.8-1.4-1-.5-.2-1-.3-1.6-.4-2.1-.3-4.1-.2-6.1-.1l-4.1.2c.1-.6.1-1.2-.1-1.8-.2-.7-.6-1.4-1.2-1.8.1.8.3 1.4.5 2 .2.5.3 1 .6 1.6l-1.7.1c-1 0-2 .1-3 0-.5 0-1-.1-1.5-.1.5-.8.8-1.6.9-2.4.2-.9.2-1.8 0-2.8-.4.9-.5 1.8-.7 2.7-.2.8-.3 1.7-.3 2.6-.4-.1-.9-.1-1.3-.2-2-.2-4-.5-6-.7s-4.2-.4-6.2-.2zm24.1 1.8c2-.1 4-.2 5.9 0 .9.1 2 .3 2.4.9.2.3.3.8.3 1.2v1.5c-.3 3.9-1.8 7.8-3.9 11.2-1.2 1.6-3.3 2.3-5.2 2.7-2 .4-4 .5-6 .5-4-.1-8-.6-11.8-1.6-1.5-.4-2.9-1.2-4.1-2.2-.8-1.1-1.6-2.1-2.3-3.3-.7-1.1-1.3-2.3-1.9-3.6-.5-1.6-.7-3.2-.8-4.9 0-1 .1-2 .5-2.8.2-.3.7-.5 1.2-.7.5-.1.9-.2 1.4-.2 2-.1 4 .2 5.9.4 2 .2 4 .6 6 .8 4.3.8 8.4.4 12.4.1zm-52.2-18.6c-.7 1.3-1 2.8-1.2 4.3-.2 1.5-.2 3 .2 4.4.2-1.5.4-2.9.5-4.3.2-1.5.4-2.9.5-4.4zm21.8 45.8c1.1.9 2.2 1.6 3.3 2.3 1.2.7 2.4 1.3 3.6 1.9s2.5 1 3.8 1.3l-3.6-1.8c-1.2-.6-2.4-1.3-3.5-2-1.2-.7-2.3-1.4-3.4-2.1-1.1-.8-2.2-1.5-3.3-2.3 1 .9 2 1.8 3.1 2.7zM61 126.4c.5 1.3 1 2.5 1.7 3.7.7 1.2 1.4 2.4 2.2 3.4-.6-1.2-1.2-2.4-1.7-3.7-.5-1.2-1-2.5-1.5-3.7-.5-1.3-.9-2.5-1.2-3.8-.4-1.3-.7-2.6-1-3.9 0 1.4.2 2.7.5 4.1.1 1.3.5 2.6 1 3.9zm5.9 8.8c-.6-1.5-1.3-3-1.9-4.5-.6-1.5-1.1-3-1.8-4.6 0 1.7.5 3.3 1.1 4.9.6 1.5 1.4 2.9 2.6 4.2zm3.2 2.3c.5 1.3 1 2.5 1.7 3.7.7 1.2 1.4 2.4 2.2 3.4-.6-1.2-1.2-2.4-1.7-3.7-.5-1.2-1-2.5-1.5-3.7-.5-1.3-.9-2.5-1.2-3.8-.4-1.3-.7-2.6-1-3.9 0 1.4.2 2.7.5 4.1.2 1.3.6 2.6 1 3.9zm5.9 8.7c-.6-1.5-1.3-3-1.9-4.5-.6-1.5-1.1-3-1.8-4.6 0 1.7.4 3.3 1.1 4.9.7 1.5 1.5 3 2.6 4.2zm-20-35.4c0 .7 0 1.5.2 2.2.4-.7.5-1.4.6-2.1 0-.7 0-1.5-.2-2.2-.4.7-.5 1.4-.6 2.1zm27.7 5c1.6-.9 3.4-1.2 5.2-1.8-1.9-.1-3.8.2-5.6 1.1-.9.5-1.6 1.1-2.2 1.9-.6.8-.9 1.8-.9 2.7.2-.9.7-1.7 1.3-2.3.7-.6 1.4-1.2 2.2-1.6zM85 118c1.5-.8 3-1.7 4.5-2.4s3.1-1.3 4.7-2c-1.7.1-3.4.6-5 1.3-1.6.8-3 1.8-4.2 3.1zm6.9.6c.8-.7 1.4-1.3 2.2-1.9.7-.6 1.4-1.2 2.2-1.9-1 .1-1.9.6-2.7 1.3-.8.6-1.4 1.5-1.7 2.5zm25.9-.3c1 1.7 1.6 3.6 1.8 5.6.4-2-.1-4.2-1.1-6-1-1.8-2.6-3.3-4.5-4.1 1.6 1.3 2.8 2.8 3.8 4.5zm4.3 3.4c0-1.5-.4-2.9-1.1-4.2-.7-1.3-1.6-2.5-2.8-3.4.8 1.3 1.5 2.4 2.1 3.7.7 1.2 1.2 2.5 1.8 3.9zm-43.9-1.9c.3-1.5.8-2.9 1.4-4.3-1.1 1.1-1.8 2.6-2.2 4.2-.3 1.6-.2 3.2.4 4.7.1-1.6.1-3.1.4-4.6z" fill="#1b141c" stroke-width="none" opacity="1"></path></g></g></g><g id="svga-group-mustache-single-move" transform="matrix(1,0,0,1,0,0)"><g id="svga-group-mustache-single"><path id="SvgjsPath8398" d="M100.2 112.1c-10.3 0-17-3.9-22.2-2.2-4.9 1.6-3.4 8-3.4 12.3s.5 21.2 1.9 24.7 4.1 6.9 7.2 5.1 1.9-20.9 1.9-25.5.5-6.8 2.3-6.6c1.9.2 7 1.2 10.6 1.9 3.6.6 13.3-2.3 15.3-1.2 2 1.1.9 22 1.6 25.7.6 3.8.9 7 2.8 6.6 1.9-.5 4.1-3.4 5.2-6.2 1.1-2.8.2-26.8.2-30.4s-2.2-6.4-8.7-6.4-8.6 2.2-14.7 2.2z" fill="#2a232b" stroke-width="none" opacity="1"></path><path id="SvgjsPath8399" d="M124.3 132.3c-.1-4.8-.3-9.6-.5-14.4l-.1-1.8c0-.6-.1-1.2-.2-1.8-.3-1.2-1.1-2.3-2.1-3-2.1-1.5-4.7-1.6-7-1.6-2.4 0-4.8.5-7.1 1.2s-4.7 1.2-7.1 1.2c-4.8 0-9.5-1-14.2-2.1-2.3-.5-4.8-1-7.2-.5-1.2.2-2.4.8-3.2 1.8-.8 1-1.2 2.2-1.3 3.5 0 9.7-.1 19.3 1.2 28.9.2 1.2.3 2.4.8 3.6.5 1.1 1.1 2.2 1.8 3.2.8 1 1.7 1.9 3 2.3.6.2 1.3.2 1.9 0 .3-.1.6-.2.9-.4.3-.2.5-.5.7-.8.6-1.1.8-2.4 1-3.6.2-1.2.3-2.4.3-3.6.1-2.4.2-4.8.1-7.2 0-2.4-.1-4.8-.2-7.2-.1-2.4-.2-4.8.1-7.2.1-.6.2-1.2.4-1.7s.7-.9 1.2-.9c1.1 0 2.3.3 3.5.5l7.1 1.4c1.2.2 2.5.1 3.7 0 1.2-.1 2.4-.3 3.6-.5 2.4-.3 4.8-.9 7.1-.8.3 0 .6 0 .8.1.1 0 .2.1.3.1 0 0 .1.1.1.2.2.4.3 1.1.4 1.6.2 1.2.2 2.3.3 3.5.1 2.4.1 4.8.2 7.2v7.2c0 1.2 0 2.4.1 3.6 0 .6.1 1.2.1 1.8l.3 1.8c.2 1.2.4 2.4.8 3.6.2.6.5 1.3 1.3 1.7.4.2.9.2 1.2.1.3-.1.7-.2.9-.4 1.1-.7 1.9-1.7 2.7-2.7.7-1 1.3-2.1 1.8-3.3.3-.7.3-1.3.4-1.9.1-.6.1-1.2.1-1.8.1-1.2.1-2.4.1-3.6 0-2.5 0-4.9-.1-7.3zm-1 7.2c0 1.2 0 2.4-.1 3.6 0 .6-.1 1.2-.1 1.8s-.1 1.2-.3 1.6c-.4 1.1-1 2.1-1.7 3.1-.7.9-1.4 1.8-2.3 2.4-.4.3-1 .5-1.2.3-.3-.1-.6-.6-.7-1.1-.3-1.1-.5-2.2-.7-3.4l-.3-1.8c-.1-.6-.1-1.2-.1-1.8-.1-1.2-.1-2.4-.1-3.6l-.1-7.2c0-2.4-.1-4.8-.2-7.2-.1-1.2-.2-2.4-.4-3.6-.1-.6-.2-1.2-.5-1.8-.1-.2-.2-.3-.4-.5-.2-.1-.4-.2-.6-.2-.3-.1-.7-.1-1-.1-2.5 0-4.8.6-7.2 1-1.2.2-2.4.4-3.5.6-1.2.1-2.4.2-3.5 0l-7.1-1.3c-1.2-.2-2.3-.4-3.6-.5-.7 0-1.3.6-1.5 1.2-.3.6-.4 1.2-.5 1.8-.3 2.4-.2 4.8-.1 7.2.1 2.4.1 4.8.1 7.2 0 2.4 0 4.8-.2 7.2-.1 1.2-.2 2.4-.4 3.6-.2 1.2-.4 2.4-1 3.3-.1.2-.3.4-.5.6-.2.1-.5.2-.8.3-.5.2-1.1.1-1.6 0-1.1-.3-1.9-1.2-2.6-2.1-.7-.9-1.2-2-1.7-3.1-.4-1-.6-2.2-.7-3.4-1.1-9.5-1.1-19.2-1.4-28.7.1-1.2.4-2.3 1.1-3.2.7-.9 1.8-1.5 2.9-1.7 2.3-.5 4.7-.1 7.1.3 2.4.4 4.7 1 7.1 1.3 2.4.4 4.8.6 7.2.6 4.9.2 9.3-2.5 14.2-2.2 2.3 0 4.9.3 6.8 1.7.9.7 1.6 1.7 1.8 2.8.1.6.2 1.1.2 1.7v1.8l.2 14.4c.1 2.3.1 4.7 0 7.1zm-44.2-6.9c-.4-1.8-1-3.6-1.5-5.3-.2-.9-.5-1.8-.8-2.6-.2-.9-.4-1.8-.4-2.7-.2-1.8-.1-3.7.1-5.5.1-.9.3-1.8.6-2.7.1-.2.1-.4.2-.6l.1-.3c.1-.1.1-.1.1-.2.2-.1.7-.2 1.1-.2 1.8-.2 3.6-.3 5.4-.4l5.5-.2v-.1c-1.8-.3-3.7-.4-5.5-.4-1.8 0-3.7 0-5.6.3-.5.1-.9.1-1.5.6-.1.1-.2.3-.2.4l-.1.4c-.1.2-.1.5-.2.7-.2.9-.3 1.8-.3 2.8-.2 1.8-.3 3.7-.3 5.6 0 .9 0 1.9.2 2.8l.6 2.7L78 133c.2.9.4 1.8.5 2.6l.2 2.7c.2 1.8.3 3.7.6 5.5h.1c.1-1.9.1-3.7.1-5.5v-2.8c0-1-.2-1.9-.4-2.9zm3.3-1.3-1.2-2.3h-.1c.1 1.8.9 3.4 1.4 5 .3.8.6 1.6.6 2.4 0 .9-.2 1.7-.5 2.5s-.7 1.6-.9 2.4c-.3.8-.5 1.7-.5 2.7.1 1.8.6 3.5 1.5 5.1h.1c-.2-1.7-.5-3.4-.5-5.1 0-1.6.6-3.2.8-4.9.1-.9.2-1.7.3-2.6.1-.9.1-1.8-.1-2.7-.1-1-.5-1.8-.9-2.5zm8.2-16.5c-1.1-.1-2-.4-3-.8-1-.3-2-.7-3.2-.5-.6.1-1.2.4-1.5.8-.4.4-.6.9-.8 1.4-.4 1-.7 2-1.1 3-.4 1-.7 2-.8 3.1-.2 1.1-.2 2.3.3 3.4.3.5.6 1 .9 1.4.3.4.6.8.8 1.3l1.7 2.7h.1c-.3-1-.7-2-1.1-3-.2-.5-.5-1-.7-1.4-.3-.5-.6-.9-.7-1.3-.8-1.7-.3-3.8 0-5.9.2-1 .4-2.1.8-3 .4-.9 1.3-1.6 2.2-1.6 1.8-.1 4 1.1 6.1.6v-.2zm25.8 6.1-.9-2.4c-.3-.8-.5-1.7-1.1-2.5-.6-.8-1.5-1.1-2.3-1.4-.8-.3-1.6-.6-2.4-1l-.1.1c1.2 1.4 3.1 1.9 4.1 2.9.6.5 1.1 1.2 1.4 2 .3.8.5 1.6.7 2.5.1.8.2 1.7.3 2.5.1.8.1 1.6.1 2.5.1 1.7.3 3.5.7 5.2h.1c.2-1.7.3-3.5.3-5.2 0-.8-.1-1.8-.2-2.6-.1-.9-.4-1.7-.7-2.6zm-5.8-4.5c-.3-.2-.7-.3-1.1-.3-.4-.1-.7-.1-1.1 0-.4.1-.7.1-1 .1-.3 0-.7-.2-1-.2-.7-.1-1.3 0-2 .3v.1c.7.4 1.3.5 2 .4.3-.1.7-.2 1-.3s.7 0 1 .1c.6.3 1.2.4 1.7.7.6.2 1.1.5 1.7.9l.1-.1c-.1-.7-.7-1.3-1.3-1.7zm-15-2.2c-.3.3-.5.6-.9.8-.3.2-.7.3-1.1.4-.8.1-1.6.3-2.3.8-.3.2-.7.5-.9.9-.2.3-.5.8-.4 1.2h.1c.5-.6 1.2-.9 1.8-1.3l.9-.6c.3-.2.7-.4 1-.6.3-.2.7-.4 1-.6s.8-.2 1.2-.4c.7-.4 1.3-.9 1.7-1.7l-.1-.1c-.7.4-1.4.7-2 1.2zm4.1 2.3c.2-.3.5-.5.8-.7.4-.6.7-1.3.7-2h-.1c-.6.5-1 1-1.3 1.6-.1.3-.2.7-.3 1l-.6.9c-.5.6-.6 1.6-.2 2.4.4.8 1.4 1.2 2.1 1v-.1c-.6-.4-1-.9-1.2-1.3-.1-.2-.2-.5-.2-.8 0-.3-.1-.6 0-.9 0-.4.1-.8.3-1.1zm21.6-2.3c-.7-.6-1.2-1.3-1.9-1.9-.7-.6-1.6-1-2.6-1.1-.9-.1-1.8 0-2.7.2-.9.1-1.7.3-2.6.5v.1c1.8.4 3.6.1 5.3.1.8 0 1.7.1 2.4.5.7.5 1.1 1.3 1.7 2 .5.8 1 1.5 1 2.1 0 .7-.4 1.5-.7 2.4-.6 1.8-.7 3.6-.4 5.4h.1c.3-1.8.7-3.5 1.3-5.1.3-.8.7-1.7.6-2.8 0-.6-.3-1.1-.6-1.4-.3-.4-.6-.7-.9-1zm.3 18c-.3-.7-.5-1.4-.6-2.1-.1-.8-.5-1.5-.8-2.1-.3-.6-.6-1.2-.9-1.9h-.1c-.1.8 0 1.6.3 2.3.3.7.7 1.2 1.1 1.9.3.6.5 1.4.6 2.1l.3 2.1c-.2.8-.3 1.6-.4 2.4-.1.9-.1 1.7 0 2.6h.1c.4-.8.6-1.6.8-2.5s.3-1.7.4-2.5v-.2c-.2-.8-.5-1.4-.8-2.1zm-3 4.2c.1-.6 0-1.3-.4-1.8h-.1c0 .6-.1 1.1-.3 1.6-.2.5-.4 1.1-.4 1.7 0 .6.1 1.2.1 1.8 0 .6 0 1.1-.1 1.7-.2 1.2 0 2.4.1 3.5.1.6.1 1.1.2 1.7 0 .6.1 1.1.2 1.7h.1c.2-.6.4-1.1.5-1.7.1-.6.1-1.2.1-1.8 0-.6-.1-1.2-.2-1.7-.1-.6-.2-1.1-.3-1.7-.1-.6-.2-1.1-.1-1.7 0-.6.2-1.1.4-1.7 0-.5.1-1 .2-1.6zm3.3 6.3c-.4.3-.5.4-.5.7 0 .1.2.3.2.4s-.1.2-.2.3c-.3.2-.4.4-.5.6 0 .2 0 .5.2.9h.1c.4-.1.6-.3.8-.5.1-.2.1-.5 0-.8 0-.1-.1-.3 0-.4.1-.1.2-.2.3-.4 0-.2 0-.6-.4-.8z" fill="#1b141c" stroke-width="none" opacity="1"></path></g></g><g id="svga-group-nose-single-move" transform="matrix(1,0,0,1,0,0)"><g id="svga-group-nose-single"><path id="SvgjsPath5002" d="M110.66 104.38c.25.93-.49 3.19-1.5 4.38-1.01 1.18-1.6.4-2.31-.27 0 0-1.02-1.71-2.17-1.92-1.14-.21-1.88 1.31-3.09 1.99-1.21.69-2.21 1.32-2.81 1.29-.6-.03-4.4-2.52-4.4-2.52s-2.39.46-3.12 1.33c-.72.87-1.15 1.34-1.38 1.38-.23.04-.26-.02-.26-.02s-.69-2.12-.88-2.79c-.2-.67-.05-1.27.2-1.6.25-.33 2.06-1.42 2.06-1.42s-.37-.95-.05-1.64c.33-.69 2.48-2.37 4.25-2.76s3.31-1.1 5.41-.94c2.1.16 6.74 1.99 8.19 3.21 1.46 1.21 1.86 2.3 1.86 2.3z" fill="#f0c7b1" stroke-width="none" opacity="1" stroke="none"></path><path id="SvgjsPath5003" d="M94.8 90.92c.26 1.32.42 2.65.73 3.95.3 1.31.61 2.6.95 3.92l.09-.01c.16-1.37.04-2.73-.14-4.08-.17-1.35-.57-2.64-.91-3.95-.34-1.31-.71-2.6-1.09-3.89-.4-1.29-.81-2.57-1.24-3.85l-.09.03c.31 1.31.6 2.62.88 3.94.29 1.31.56 2.62.82 3.94z" fill="#c27b55" stroke-width="none" opacity="1" stroke="none"></path><path id="SvgjsPath5004" d="M104.67 106.4c-.09-.02-.2-.01-.3-.01-.11.02-.21.05-.29.1-.17.08-.31.17-.46.26-1.12.74-2.17 1.55-3.29 2.2-.28.15-.56.31-.84.41l-.21.08-.2.05c-.12.02-.22.03-.33-.01-.23-.05-.53-.21-.8-.35-.28-.16-.55-.32-.83-.5-1.1-.7-2.16-1.49-3.2-2.3-.52-.4-1.05-.81-1.54-1.23-.47-.39-.88-.87-1.03-1.37-.17-.5-.03-1.02.35-1.47.37-.45.88-.83 1.44-1.15 1.11-.65 2.34-1.15 3.59-1.53 1.26-.38 2.56-.63 3.89-.71-2.66-.18-5.4.38-7.83 1.62-.61.31-1.21.7-1.71 1.26-.13.13-.23.31-.34.46-.09.17-.18.35-.23.55-.13.39-.1.83 0 1.21.04.12.09.23.14.34-.49.12-.96.3-1.39.57-.28.16-.53.36-.78.64-.12.14-.23.32-.3.56-.01.07-.02.14-.02.21v.1l.01.07c.01.09.02.18.04.25.13.63.34 1.2.58 1.76.24.56.52 1.1.9 1.61-.01-.63-.1-1.23-.21-1.82-.11-.59-.25-1.18-.36-1.72-.02-.07-.02-.13-.03-.19l-.01-.05.01-.01s0-.01-.01-.02c.02-.03.01-.06.03-.1.03-.04.04-.08.08-.14.12-.2.33-.4.53-.6.32-.31.68-.63 1.03-.96.27.53.67.94 1.07 1.3.52.45 1.04.86 1.57 1.28.04.03.09.06.13.1-.28.02-.55.08-.8.17-.31.12-.59.3-.83.52-.24.22-.46.48-.59.81.71-.07 1.24-.28 1.77-.48.26-.1.51-.22.77-.33.13-.06.26-.11.4-.17.8.59 1.61 1.16 2.46 1.68.29.18.59.34.89.5.32.15.62.31 1.04.4.21.06.45.03.65-.01.2-.05.38-.11.54-.19.34-.15.63-.33.92-.51 1.15-.74 2.15-1.64 3.18-2.45.13-.1.26-.2.38-.28.13-.09.22-.1.36-.1.28.02.57.17.84.35.53.37 1 .85 1.38 1.39-.3-.6-.72-1.14-1.23-1.59-.3-.18-.59-.39-.98-.46z" fill="#c27b55" stroke-width="none" opacity="1" stroke="none"></path><path id="SvgjsPath5005" d="M111 104.19c-.12-.41-.3-.7-.53-.97-.45-.54-1.02-.93-1.66-1.13.41.52.79 1.02 1.06 1.53.12.25.25.54.27.76.03.24.02.53-.02.81-.07.57-.22 1.17-.39 1.76-.17.6-.37 1.19-.58 1.82.53-.41.93-.96 1.24-1.55.31-.59.56-1.22.64-1.92.05-.37.07-.73-.03-1.11z" fill="#c27b55" stroke-width="none" opacity="1" stroke="none"></path><path id="SvgjsPath5006" d="M101.11 100.66c-1.95-.8-4.77.64-6.5 1.51-1.75.88-.22 3.41 1.52 2.61.93-.43 1.9-.76 2.88-1.08.92-.3 1.85-.49 2.59-1.14.72-.63.23-1.6-.49-1.9z" fill="#f8d5c3" stroke-width="none" opacity="1" stroke="none"></path></g></g><g id="svga-group-hair-front"><path id="SvgjsPath8186" d="M142.42 55.29c-.13-2.39-.71-9.41-1.25-10.76-.54-1.35-1.92-4.55-4.99-7.22-3.07-2.66-4.92-4.05-4.92-4.05s.57-3.64-.47-5.23c-1.05-1.58-2.29-4.15-5.53-5.56s-8.16-2.87-8.3-2.87-4.62-1.48-6.71-1.92c-2.09-.44-9.91-1.62-11.77-1.99-1.85-.37-4.22-1.01-5.02-1.89-.81-.88-2.6-3.24-3.2-5.09 0 0-.1 2.09.4 4.25.51 2.16 1.38 3.74 2.36 4.55l-8.38-2.28c-7.75-3.21-9.69-8.54-9.69-8.54.96 4.08 2.58 7.37 5.53 9.99l-.08.03-.4-.1s-1.79-.61-3.47-2.26c-1.69-1.65-3.04-3.78-3.04-3.78s.3 2.46.78 3.74c.47 1.28.88 3.17.88 3.17s-1.85-2.87-2.43-3.57c-.57-.71-2.16-3.1-2.16-3.1s.13 2.26.03 3.74c-.1 1.48-.57 3.54-.57 3.54s-1.55 2.43-2.09 3.34c-.54.91-2.29 3.78-2.56 5.97s-.2 3.37.24 4.35c.44.98 1.01 2.9 1.01 2.9s-2.06 1.32-3.37 2.66c-1.32 1.35-3.27 3.17-4.42 6.27s-1.28 7.89-1.35 9.58-.24 8.26.13 10.32c.37 2.06 1.72 10.76 1.89 11.94.17 1.18 1.35 9.54 1.35 9.54l.95 4.44s-1.04-13.9 2.66-19.46c0 0 .69-13.32 1.85-16.56s1.74-7.3 6.83-11.58c0 0 4.75 3.01 10.31 2.55 0 0 6.14 4.29 9.5 2.66 0 0 3.65 2.73 7.44 1.41 1.44 1.38 2.75 1.65 2.75 1.65s1.73.41 3.34-.91l.13.05s2.08.58 4.63-.93c0 0 .95.9 5.51-1.23l8.23-5.94s2.6.51 6.54 6.68c0 0 1.55 3.88 2.19 7.12.64 3.24 1.18 8.06 1.35 10.18.17 2.12.2 5.02.2 5.02s1.72 3.34 2.23 5.94.71 10.05.71 10.05 1.18-4.15 1.18-4.25c0-.1 1.18-8.84 1.18-8.84l1.45-9.04c0 .02.54-6.28.41-8.68z" fill="#2a232b" stroke-width="none" opacity="1" stroke="none"></path><path id="SvgjsPath8187" d="M141.44 44.31c-.76-2.57-2.5-4.66-4.32-6.46-1.71-1.67-3.61-3.1-5.6-4.39.22-.75.35-1.53.35-2.32-.02-2.53-1.23-4.89-2.95-6.63-1.75-1.77-4.04-2.77-6.26-3.55-2.23-.8-4.52-1.4-6.58-2.44-1.02-.51-1.95-1.25-2.49-2.26-.54-1.01-.59-2.27-.15-3.36-.54 1.05-.6 2.36-.09 3.48.36.82.98 1.5 1.69 2.05-.92-.33-1.85-.59-2.77-.8-2.85-.68-5.73-1.07-8.6-1.47-1.43-.2-2.86-.4-4.28-.64-1.41-.26-2.83-.5-4.12-1.01-.32-.13-.63-.28-.9-.46-.27-.2-.56-.4-.81-.64a9.41 9.41 0 0 1-1.38-1.57c-.8-1.15-1.43-2.46-1.82-3.81l-.54-1.85.04 1.91c.04 1.74.27 3.45.72 5.12.4 1.41.99 2.83 2 3.9-1.53-.41-3.06-.79-4.58-1.17-2.64-.7-5.22-1.73-7.5-3.26-1.14-.76-2.18-1.66-3.12-2.67-.93-1-1.75-2.14-2.28-3.38l-.33.1c.55 2.23 1.33 4.42 2.52 6.4.81 1.36 1.85 2.57 3.01 3.63-1.45-.71-2.78-1.65-3.9-2.8-.57-.57-1.09-1.19-1.57-1.84-.47-.65-.92-1.33-1.27-2.03l-.78-1.54.24 1.71c.31 2.14.81 4.24 1.59 6.27.07.19.17.37.25.56-.57-1.02-1.16-2.03-1.78-3.02-.85-1.36-1.72-2.7-2.65-4.01l-.82-1.16.32 1.43c.38 1.66.28 3.41.16 5.16-.01-.03-.01-.06-.02-.08-.27-.91-.85-1.67-1.52-2.28.59.69 1.07 1.49 1.26 2.35.19.87.05 1.76-.26 2.58-.32.82-.77 1.59-1.28 2.33-.52.76-1.02 1.53-1.47 2.34-.92 1.61-1.6 3.39-1.88 5.27-.31 1.88.08 3.88.78 5.59.16.41.35.8.54 1.19-1.92 1.25-3.7 2.75-5.17 4.54-.79.97-1.5 2.01-2.07 3.14-.58 1.14-.92 2.36-1.21 3.58-1.09 4.9-1.15 9.89-.94 14.85.1 2.5.57 4.95.95 7.38l1.23 7.29c.42 2.41.65 4.88 1.12 7.31.44 2.43.92 4.85 1.42 7.27l.4-.05c-.12-1.71-.16-3.42-.19-5.14-.03-1.71 0-3.43.12-5.14.11-1.71.31-3.39.89-5.01.52-1.61 1.14-3.24 1.95-4.68l.04-.08v-.09c.13-2.53.31-5.06.56-7.58.28-2.52.56-5.03 1.04-7.51.24-1.24.52-2.47.88-3.67.36-1.2.75-2.4 1.34-3.49.57-1.07 1.39-2.09 2.12-3.11.38-.5.77-1.01 1.18-1.48.33-.36.68-.77 1.07-1.04 1.5 1.07 3.26 1.66 5.01 2 1.71.29 3.44.4 5.15.3 1.18.8 2.41 1.54 3.72 2.11.96.4 1.96.73 2.99.89.98.14 2.03.14 2.93-.28.4.37.85.69 1.33.92 1.98.96 4.24.99 6.29.54.77.72 1.67 1.29 2.71 1.58 1.25.26 2.57-.15 3.53-.97 1.32.45 2.85.24 4.06-.5.16-.1.3-.22.45-.33 1.11.34 2.32.14 3.41-.19 1.14-.36 2.21-.91 3.22-1.53 2-1.26 3.94-2.61 5.82-4.05.54-.41 1.07-.84 1.59-1.28.98.58 1.83 1.36 2.62 2.18.92.97 1.76 2.02 2.53 3.11.78 1.06 1.28 2.29 1.71 3.55.42 1.26.76 2.55 1.03 3.86.56 2.62.88 5.29 1.18 7.96.28 2.67.48 5.36.61 8.04v.09l.04.08c.81 1.44 1.43 3.06 1.95 4.68.58 1.62.77 3.3.89 5.01.11 1.71.15 3.42.12 5.14-.03 1.71-.08 3.43-.19 5.14l.4.05c.53-2.51 1.02-5.03 1.48-7.56.22-1.26.43-2.54.59-3.81.16-1.26.37-2.52.58-3.78l1.28-7.58c.21-1.27.41-2.54.58-3.82.17-1.29.23-2.59.28-3.88.16-5.17.07-10.39-1.42-15.43zm-69.72-1.39c-.46.45-.89.92-1.32 1.4-.82.98-1.66 1.93-2.33 3.08-1.29 2.28-1.93 4.81-2.47 7.3-.51 2.51-.9 5.04-1.12 7.59-.23 2.52-.37 5.04-.38 7.58-.79 1.56-1.31 3.16-1.77 4.79-.5 1.66-.69 3.42-.77 5.13-.08 1.72-.08 3.44-.09 5.16 0 .75.01 1.51.03 2.26-.24-1.48-.48-2.96-.69-4.45-.36-2.43-.55-4.88-.91-7.34-.34-2.45-.75-4.88-1.12-7.31-.36-2.44-.74-4.86-.88-7.29-.13-2.44-.15-4.9-.05-7.34.12-2.44.27-4.89.77-7.27.76-4.63 3.96-8.46 7.69-11.32.64 1.24 1.44 2.41 2.37 3.44 1.26 1.38 2.68 2.59 4.18 3.65-.44.25-.78.62-1.14.94zm6.39.68c-1.74-.44-3.44-1.1-4.79-2.23-2.83-2.23-5.42-4.83-6.69-8.16-.68-1.65-1.01-3.35-.77-5.1.2-1.74.83-3.43 1.62-5.03.4-.8.84-1.59 1.32-2.36.4-.65.77-1.34 1.05-2.06-.09 1.28-.17 2.57-.2 3.87-.04 2.07.06 4.17.54 6.24.46 2.08 1.42 4 2.58 5.74 2.35 3.49 5.51 6.28 8.81 8.74.5.37 1.01.73 1.52 1.08-1.69-.09-3.37-.31-4.99-.73zm11.8 3.53c-.99-.21-1.94-.6-2.84-1.05-1.82-.91-3.46-2.11-5.05-3.39-3.15-2.58-6.26-5.31-8.45-8.7-1.1-1.68-1.94-3.52-2.41-5.45-.48-1.94-.6-3.97-.59-6 0-2.03.18-4.07.27-6.13.05-1.03.08-2.06.05-3.11-.02-.61-.06-1.23-.14-1.85 1.51 2.03 2.99 4.08 4.37 6.21.29.62.61 1.23 1 1.81.6.91 1.41 1.79 2.33 2.39 1.75 1.26 3.59 2.34 5.17 3.69 1.57 1.34 2.86 2.98 3.64 4.91 1.68 3.84 1.84 8.19 3.2 12.31.35 1.03.76 2.03 1.29 2.99.28.49.64.94 1.05 1.32-.94.33-1.95.24-2.89.05zm4.42.52a5.585 5.585 0 0 1-2.1-2.16c-.46-.92-.84-1.91-1.14-2.92-1.14-4.03-1.28-8.41-2.98-12.48a13.2 13.2 0 0 0-3.87-5.29c-1.69-1.41-3.55-2.47-5.28-3.68-1.73-1.09-2.77-2.97-3.6-4.87-.62-1.47-1.11-3.01-1.46-4.57.67.93 1.43 1.78 2.28 2.55.61.56 1.27 1.06 1.97 1.49.68.45 1.42.77 2.17 1.08.54.49 1.09.96 1.69 1.39 1.85 1.39 4.04 2.32 6.09 3.21 1.98.98 3.56 2.63 4.66 4.55 2.18 3.91 3.03 8.46 3.7 12.94.28 2.25.72 4.59 1.75 6.66.57 1.1 1.3 2.15 2.22 3-2.09.27-4.31.12-6.1-.9zm8.83 2.38c-2.19-.67-3.8-2.56-4.69-4.61-.42-1.05-.77-2.12-.95-3.24-.21-1.11-.28-2.23-.41-3.38-.22-2.28-.59-4.56-1.12-6.81-.53-2.24-1.29-4.47-2.49-6.49-1.17-2.02-2.91-3.82-5.09-4.78-2.16-.86-4.25-1.65-6.12-2.95-1.89-1.23-3.5-2.88-4.7-4.81-.94-1.49-1.59-3.13-2.07-4.82 1.17 1.98 2.83 3.64 4.68 5 2.29 1.65 4.9 2.82 7.6 3.59 2.69.76 5.36 1.43 7.97 2.34 2.6.89 5.12 2.02 7.33 3.58 2.2 1.55 3.96 3.7 4.89 6.22.97 2.52 1.42 5.26 1.51 8 .1 2.74-.13 5.52-.87 8.17-.38 1.31-.87 2.65-1.77 3.67-.92 1.01-2.35 1.57-3.7 1.32zm7.44-1.58c-1.13.75-2.58 1.06-3.93.69.11-.09.22-.19.32-.3.95-1.06 1.51-2.38 1.96-3.71.87-2.67 1.25-5.48 1.3-8.29.01-2.81-.36-5.65-1.34-8.34-.99-2.71-2.89-5.06-5.22-6.72-2.32-1.69-4.98-2.75-7.63-3.64a60.4 60.4 0 0 0-3.41-1.02c-.96-1.12-1.47-2.57-1.81-3.99-.25-1.12-.39-2.26-.45-3.4.34.86.76 1.68 1.26 2.46.4.62.89 1.2 1.43 1.72.27.27.57.5.87.73.33.23.67.4 1.02.56 1.4.58 2.83.89 4.27 1.15 1.43.26 2.87.47 4.3.68 2.86.42 5.72.84 8.49 1.53 2.76.68 5.52 1.64 7.37 3.71 1.9 2.02 2.37 5.02 1.86 7.75-.29 1.32-.88 2.66-1.45 3.96-.6 1.3-1.24 2.59-1.93 3.86a83.922 83.922 0 0 1-4.46 7.4c-.84 1.18-1.63 2.43-2.82 3.21zm12.57-6.48c-1.79 1.51-3.69 2.89-5.6 4.27-.95.67-1.97 1.25-3.06 1.67-1.05.38-2.21.66-3.33.41 1.03-.77 1.8-1.82 2.58-2.81 1.74-2.33 3.27-4.8 4.72-7.32.73-1.26 1.41-2.54 2.05-3.85.63-1.32 1.24-2.64 1.59-4.14.26-1.47.33-2.99.01-4.48-.29-1.49-1-2.91-2.01-4.05a9.366 9.366 0 0 0-1.63-1.46c1.3.52 2.62.99 3.9 1.51 2.16.88 4.32 1.81 5.88 3.46 1.57 1.61 2.6 3.78 2.61 5.99.02 1.1-.23 2.2-.71 3.21-.46 1.01-1.19 1.89-1.96 2.77-1.53 1.73-3.26 3.3-5.04 4.82zm18.68 17.7c-.08 2.55-.42 5.04-.8 7.58l-1.17 7.6c-.39 2.55-.59 5.11-.95 7.63-.22 1.58-.47 3.15-.73 4.73.02-.75.03-1.5.03-2.25-.01-1.72-.01-3.44-.09-5.16-.09-1.71-.27-3.47-.77-5.13-.46-1.63-.98-3.23-1.77-4.79-.01-2.69-.17-5.37-.43-8.05-.26-2.7-.68-5.38-1.27-8.04-.62-2.63-1.37-5.34-3.07-7.58-.83-1.08-1.73-2.11-2.73-3.04-.84-.77-1.74-1.5-2.77-2.02 1.25-1.06 2.45-2.2 3.55-3.43.78-.88 1.6-1.83 2.14-2.96.18-.37.33-.77.46-1.17 1.89 1.38 3.67 2.93 5.28 4.62 1.74 1.84 3.27 3.92 3.93 6.33.68 2.42.95 4.96 1.09 7.49.15 2.55.17 5.1.07 7.64z" fill="#1b141c" stroke-width="none" opacity="1" stroke="none"></path></g><g id="svga-group-glasses-single-move" transform="matrix(1,0,0,1,0,0)"><g id="svga-group-glasses-single"></g></g></g></g></g><rect id="svga-credit-rect" width="200" height="15" x="0" y="185" fill="#ecf0f1" opacity="0.5" style="display: none;"></rect><text id="svga-credit-text" font-family="Avenir Next, Roboto, Helvetica, Arial, sans-serif" font-size="10px" text-anchor="start" font-weight="400" size="10px" anchor="start" weight="400" fill="#333333" x="33.40447998046875" y="182.60824704170227" style="display: none;"><tspan id="SvgjsTspan4207" dy="13" x="33.40447998046875">Created on AvatarMaker.com</tspan></text></g><defs id="SvgjsDefs4154"><linearGradient id="SvgjsLinearGradient4794" x1="100.0394" y1="79.6722" x2="100.0394" y2="122.2396" gradientUnits="userSpaceOnUse" class="svga-on-canvas-nose-gradient-single-0-null"><stop id="SvgjsStop4795" stop-opacity="0" stop-color="#ffe4d6" offset="0" ></stop><stop id="SvgjsStop4796" stop-opacity="0.9727" stop-color="#f0c7b1" offset="0.7584" ></stop><stop id="SvgjsStop4797" stop-opacity="0.9769" stop-color="#e8b9a0" offset="0.7953" ></stop><stop id="SvgjsStop4798" stop-opacity="0.9852" stop-color="#e1ac8f" offset="0.8691" ></stop><stop id="SvgjsStop4799" stop-opacity="0.9968" stop-color="#d19271" offset="0.972" ></stop><stop id="SvgjsStop4800" stop-opacity="1" stop-color="#c27b55" offset="1" ></stop></linearGradient><linearGradient id="SvgjsLinearGradient4980" x1="100.2671" y1="81.0612" x2="100.2671" y2="115.12" gradientUnits="userSpaceOnUse" class="svga-on-canvas-nose-gradient-single-0-null"><stop id="SvgjsStop4981" stop-opacity="0" stop-color="#e8b9a0" offset="0" ></stop><stop id="SvgjsStop4982" stop-opacity="1" stop-color="#d19271" offset="1" ></stop></linearGradient><linearGradient id="SvgjsLinearGradient7459" x1="79.4739" y1="121.3709" x2="79.4739" y2="101.6175" gradientTransform="matrix(1 0 0 -1 0 202)" gradientUnits="userSpaceOnUse" class="svga-on-canvas-glasses-gradient-single-0-null"><stop id="SvgjsStop7460" stop-opacity="1" stop-color="#bfeaf2" offset="0" ></stop><stop id="SvgjsStop7461" stop-opacity="0.649" stop-color="#a1cae3" offset="0.351" ></stop><stop id="SvgjsStop7462" stop-opacity="0" stop-color="#6086c4" offset="1" ></stop></linearGradient><linearGradient id="SvgjsLinearGradient7464" x1="-1738.6592" y1="121.1959" x2="-1738.6592" y2="101.7599" gradientTransform="matrix(-1 0 0 -1 -1618 202)" gradientUnits="userSpaceOnUse" class="svga-on-canvas-glasses-gradient-single-1-null"><stop id="SvgjsStop7465" stop-opacity="1" stop-color="#bfeaf2" offset="0" ></stop><stop id="SvgjsStop7466" stop-opacity="0.649" stop-color="#a1cae3" offset="0.351" ></stop><stop id="SvgjsStop7467" stop-opacity="0" stop-color="#6086c4" offset="1" ></stop></linearGradient></defs></svg>