<?xml version="1.0" encoding="iso-8859-1"?>
<!-- Generator: Adobe Illustrator 19.0.1, SVG Export Plug-In . SVG Version: 6.00 Build 0)  -->
<svg version="1.1" xmlns="http://www.w3.org/2000/svg" xmlns:xlink="http://www.w3.org/1999/xlink" x="0px" y="0px"
	 viewBox="0 0 128 128" style="enable-background:new 0 0 128 128;" xml:space="preserve">
<g id="_x36_">
	<path id="_x36__1_" style="fill:#1E1E1E;" d="M11.203,56.978c-2.246,0-4.062,1.816-4.062,4.062c0,2.24,1.816,4.062,4.062,4.062
		c2.24,0,4.062-1.822,4.062-4.062C15.265,58.795,13.443,56.978,11.203,56.978z M21.341,83.4c0.006-0.017,0.012-0.029,0.017-0.046
		v-0.168C21.358,83.261,21.353,83.33,21.341,83.4z M22.406,80.684c0,0.882-0.714,1.66-1.665,1.66c-0.725,0-1.37-0.476-1.584-1.172
		l-3.122-10.15h-0.656l5.078,18.21h-4.062v12.691h-4.207V90.219c0-0.545-0.442-0.987-0.987-0.987h0
		c-0.545,0-0.987,0.442-0.987,0.987v11.705H6.012V89.232H1.95l5.072-18.204h-0.65L3.25,81.171c-0.215,0.696-0.859,1.172-1.584,1.172
		C0.714,82.344,0,81.566,0,80.684c0-0.18,0.029-0.366,0.093-0.545l4.027-11.67c0.569-1.642,2.107-2.739,3.842-2.739h6.482
		c1.735,0,3.273,1.097,3.842,2.739l4.027,11.67C22.377,80.318,22.406,80.504,22.406,80.684z M74.404,56.978
		c-2.246,0-4.062,1.816-4.062,4.062c0,2.24,1.816,4.062,4.062,4.062c2.24,0,4.062-1.822,4.062-4.062
		C78.466,58.795,76.644,56.978,74.404,56.978z M84.542,83.4c0.006-0.017,0.012-0.029,0.017-0.046v-0.168
		C84.559,83.261,84.554,83.33,84.542,83.4z M68.264,66.321c-1.915,0.319-3.389,2.002-3.389,4.004v12.86
		c0,0.075,0.006,0.145,0.017,0.215c0.111,0.889,0.905,1.561,1.844,1.472c0.882-0.084,1.528-0.88,1.528-1.766V72.444
		c0-0.342,0.279-0.621,0.621-0.621c0.342,0,0.621,0.279,0.621,0.621v29.631h4.364V85.797c0-0.468,0.379-0.847,0.847-0.847h0
		c0.468,0,0.847,0.379,0.847,0.847v16.278h4.364V72.444c0-0.342,0.279-0.621,0.621-0.621c0.342,0,0.621,0.279,0.621,0.621v10.662
		c0,0.886,0.646,1.682,1.528,1.766c0.939,0.089,1.733-0.583,1.844-1.472c0.012-0.07,0.017-0.139,0.017-0.215v-12.86
		c0-2.002-1.474-3.685-3.389-4.004C80.95,66.281,68.485,66.281,68.264,66.321z M108.018,23.782c-4.006,0-7.246,3.24-7.246,7.246
		c0,3.995,3.24,7.246,7.246,7.246c3.995,0,7.246-3.25,7.246-7.246C115.263,27.022,112.013,23.782,108.018,23.782z M126.101,70.909
		c0.01-0.031,0.021-0.052,0.031-0.083v-0.3C126.132,70.661,126.121,70.785,126.101,70.909z M128,66.065
		c0,1.573-1.273,2.96-2.971,2.96c-1.294,0-2.443-0.849-2.826-2.091l-5.569-18.104h-1.17l9.057,32.481h-7.246v22.637h-7.504V83.071
		c0-0.972-0.788-1.76-1.76-1.76l0,0c-0.972,0-1.76,0.788-1.76,1.76v20.878h-7.494V81.312h-7.246l9.047-32.471h-1.159l-5.569,18.093
		c-0.383,1.242-1.532,2.091-2.826,2.091c-1.698,0-2.971-1.387-2.971-2.96c0-0.321,0.052-0.652,0.166-0.973l7.183-20.816
		c1.014-2.929,3.757-4.886,6.852-4.886h11.562c3.095,0,5.838,1.956,6.852,4.886l7.183,20.816C127.948,65.413,128,65.744,128,66.065z
		 M41.213,23.782c-4.006,0-7.246,3.24-7.246,7.246c0,3.995,3.24,7.246,7.246,7.246c3.995,0,7.246-3.25,7.246-7.246
		C48.459,27.022,45.209,23.782,41.213,23.782z M59.296,70.909c0.01-0.031,0.021-0.052,0.031-0.083v-0.3
		C59.327,70.661,59.317,70.785,59.296,70.909z M30.262,40.447c-3.416,0.569-6.045,3.571-6.045,7.142v22.937
		c0,0.135,0.01,0.259,0.031,0.383c0.198,1.585,1.614,2.784,3.289,2.625c1.573-0.149,2.725-1.569,2.725-3.149V51.367
		c0-0.611,0.497-1.108,1.108-1.108c0.611,0,1.108,0.497,1.108,1.108v52.851h7.784V75.184c0-0.835,0.677-1.511,1.511-1.511h0
		c0.835,0,1.511,0.677,1.511,1.511v29.034h7.784V51.367c0-0.611,0.497-1.108,1.108-1.108c0.611,0,1.108,0.497,1.108,1.108l0,19.018
		c0,1.58,1.152,3,2.725,3.149c1.675,0.159,3.091-1.04,3.289-2.625c0.021-0.124,0.031-0.248,0.031-0.383V47.589
		c0-3.571-2.629-6.573-6.045-7.142C52.889,40.374,30.655,40.374,30.262,40.447z"/>
</g>
<g id="Layer_1">
</g>
</svg>
