<?xml version="1.0" ?><svg id="Layer_1" style="enable-background:new 0 0 128 128;" version="1.1" viewBox="0 0 128 128" xml:space="preserve" xmlns="http://www.w3.org/2000/svg" xmlns:xlink="http://www.w3.org/1999/xlink"><style type="text/css">
	.st0{fill:#F1F2F4;}
	.st1{fill:#464C54;}
	.st2{fill:#C9C9C9;}
	.st3{fill:#F6CA47;}
	.st4{fill:#BFCC58;}
	.st5{fill:#FFFFFF;}
	.st6{fill:#627148;}
	.st7{fill:#0076B9;}
	.st8{fill:#00A6E4;}
	.st9{fill:none;stroke:#FFFFFF;stroke-width:6;stroke-linecap:round;stroke-linejoin:round;stroke-miterlimit:10;}
	.st10{fill:#464C54;stroke:#464C54;stroke-width:6;stroke-linecap:round;stroke-linejoin:round;stroke-miterlimit:10;}
	.st11{fill:#E8E8E8;}
	.st12{fill:#D65B36;}
	.st13{fill:#D65B4D;}
	.st14{fill:none;stroke:#464C54;stroke-width:6;stroke-linecap:round;stroke-linejoin:round;stroke-miterlimit:10;}
</style><g><path class="st5" d="M25.5,34L25.5,34C15.28,34,7,42.28,7,52.5V82c0,3.31,2.69,6,6,6h0l0,29.75c0,3.29,2.53,6.15,5.82,6.25   c3.4,0.1,6.18-2.62,6.18-6c0,3.37,2.79,6.1,6.18,6c3.28-0.1,5.82-2.96,5.82-6.25L37,82l7-22v-7.5C44,42.28,35.72,34,25.5,34z"/></g><g><circle class="st5" cx="25" cy="14" r="10"/></g><g><path class="st1" d="M25,27c-7.17,0-13-5.83-13-13S17.83,1,25,1s13,5.83,13,13S32.17,27,25,27z M25,7c-3.86,0-7,3.14-7,7   s3.14,7,7,7s7-3.14,7-7S28.86,7,25,7z"/></g><g><path class="st5" d="M96,98c0,5.74,4.84,10.36,10.67,9.98c5.32-0.34,9.33-4.99,9.33-10.32l0-3.66c0-5.52-4.48-10-10-10h0   c-5.52,0-10,4.48-10,10L96,98z"/></g><g><circle class="st5" cx="106" cy="67" r="7"/></g><g><path class="st1" d="M106,77c-5.51,0-10-4.49-10-10s4.49-10,10-10s10,4.49,10,10S111.51,77,106,77z M106,63c-2.21,0-4,1.79-4,4   s1.79,4,4,4s4-1.79,4-4S108.21,63,106,63z"/></g><g><path class="st5" d="M64,34L64,34c-10.49,0-19,8.51-19,19v29c0,3.31,2.69,6,6,6h0v10h24V86h8V53C83,42.51,74.49,34,64,34z"/></g><g><circle class="st5" cx="64" cy="14" r="10"/></g><g><path class="st1" d="M64,27c-7.17,0-13-5.83-13-13S56.83,1,64,1s13,5.83,13,13S71.17,27,64,27z M64,7c-3.86,0-7,3.14-7,7   s3.14,7,7,7s7-3.14,7-7S67.86,7,64,7z"/></g><path class="st1" d="M125.95,107.46l-1.76-9.67c-1.58-8.67-8.52-15.22-17.27-16.28c-10.71-1.3-18.97-9.7-20.08-20.42l-1.09-10.43  C84.58,39.45,75.21,31,63.94,31c-4.66,0-9.11,1.44-12.87,4.17c-1.34,0.97-1.64,2.85-0.67,4.19c0.97,1.34,2.85,1.64,4.19,0.67  c2.73-1.98,5.96-3.03,9.35-3.03c8.19,0,15,6.14,15.85,14.28l1.09,10.43c0.9,8.62,5.46,16.03,12.13,20.71V98  c0,3.65,1.52,6.96,3.96,9.32l1.05,16.87c0.1,1.59,1.42,2.81,2.99,2.81c0.06,0,0.13,0,0.19-0.01c1.65-0.1,2.91-1.53,2.81-3.18  l-0.82-13.13c0.91,0.2,1.85,0.32,2.83,0.32h2.81l-0.8,12.81c-0.1,1.65,1.15,3.08,2.81,3.18c0.06,0,0.13,0.01,0.19,0.01  c1.57,0,2.89-1.22,2.99-2.81l1-16c0.05-0.83-0.24-1.64-0.81-2.24S112.83,105,112,105h-6c-3.86,0-7-3.14-7-7V85.66  c2.27,0.89,4.68,1.51,7.2,1.81c6.13,0.74,10.99,5.32,12.09,11.39l1.76,9.67c0.26,1.45,1.53,2.46,2.95,2.46  c0.18,0,0.36-0.02,0.54-0.05C125.17,110.66,126.25,109.09,125.95,107.46z"/><path class="st1" d="M77,75c-1.66,0-3,1.34-3,3v17H54c0-1.66-1.34-3-3-3s-3,1.34-3,3c0,3.31,2.69,6,6,6h0.22l1.79,23.23  C56.13,125.8,57.44,127,59,127c0.08,0,0.16,0,0.23-0.01c1.65-0.13,2.89-1.57,2.76-3.22L60.24,101h7.52l-1.75,22.77  c-0.13,1.65,1.11,3.09,2.76,3.22C68.85,127,68.93,127,69,127c1.55,0,2.87-1.2,2.99-2.77L73.78,101H74c3.31,0,6-2.69,6-6V78  C80,76.34,78.66,75,77,75z"/><path class="st1" d="M47.75,50.66C46.58,39.45,37.21,31,25.94,31C13.84,31,4,40.84,4,52.94V82c0,3.91,2.51,7.25,6,8.49V118  c0,4.96,4.04,9,9,9c2.31,0,4.41-0.88,6-2.31c1.59,1.43,3.69,2.31,6,2.31c4.96,0,9-4.04,9-9V92c0-1.66-1.34-3-3-3s-3,1.34-3,3v26  c0,1.65-1.35,3-3,3s-3-1.35-3-3V82c0-1.66-1.34-3-3-3s-3,1.34-3,3v36c0,1.65-1.35,3-3,3s-3-1.35-3-3V88c0-1.66-1.34-3-3-3  c-1.65,0-3-1.35-3-3V52.94C10,44.15,17.15,37,25.94,37c8.14,0,14.92,6.07,15.83,14.14V82c0,1.66,1.34,3,3,3s3-1.34,3-3V50.97  C47.77,50.87,47.76,50.77,47.75,50.66z"/></svg>