<?xml version="1.0" encoding="UTF-8"?>
<!DOCTYPE svg PUBLIC "-//W3C//DTD SVG 1.1//EN" "http://www.w3.org/Graphics/SVG/1.1/DTD/svg11.dtd">
<!-- Creator: CorelDRAW -->
<svg xmlns="http://www.w3.org/2000/svg" xml:space="preserve" width="2048px" height="2048px" style="shape-rendering:geometricPrecision; text-rendering:geometricPrecision; image-rendering:optimizeQuality; fill-rule:evenodd; clip-rule:evenodd"
viewBox="0 0 2048 2048"
 xmlns:xlink="http://www.w3.org/1999/xlink">
 <defs>
  <style type="text/css">
   <![CDATA[
    .fil2 {fill:none}
    .fil1 {fill:#424242}
    .fil0 {fill:#424242;fill-rule:nonzero}
   ]]>
  </style>
 </defs>
 <g id="Layer_x0020_1">
  <metadata id="CorelCorpID_0Corel-Layer"/>
  <g id="_282238296">
   <path id="_282245912" class="fil0" d="M722.474 798.859c-47.7378,23.4768 -37.5284,70.0819 -37.5284,124.504l0 209.274c0,23.6079 -18.4181,42.7489 -41.139,42.7489 -22.7197,0 -41.1378,-19.141 -41.1378,-42.7489l0 -209.274c0,-36.5268 0.301181,-85.8768 16.5284,-128.969 11.8075,-31.3595 36.215,-59.4095 54.7347,-76.793 96.8989,-90.9485 256.431,-90.9461 353.331,0 18.5291,17.3929 42.9414,45.4607 54.7512,76.8379 16.2177,43.0831 16.5118,92.4107 16.5118,128.925l0 209.274c0,23.6079 -18.4181,42.7489 -41.1378,42.7489 -22.7209,0 -41.139,-19.141 -41.139,-42.7489l0 -209.274c0,-54.4193 10.2024,-101.027 -37.5343,-124.504 11.7638,231.649 0.125197,497.53 0.125197,732.983 0,23.6091 -19.141,42.75 -42.75,42.75 -23.6091,0 -42.7489,-19.141 -42.7489,-42.75 0,-393.819 -85.493,-489.493 -85.493,0 0,23.6091 -19.1398,42.75 -42.7489,42.75 -23.6091,0 -42.7489,-19.141 -42.7489,-42.75 0,-235.466 -11.6315,-501.315 0.124016,-732.983z"/>
   <ellipse id="_282244008" class="fil1" cx="850.594" cy="527.258" rx="85.4965" ry="85.4964"/>
   <g>
    <path id="_282243896" class="fil0" d="M469.583 1264.88l128.541 -79.7304c11.3457,-5.3315 16.3854,-18.5055 11.2547,-29.4225 -5.12835,-10.9181 -18.4866,-15.4488 -29.8323,-10.1173 -41.1981,14.1969 -107.914,57.4465 -141.597,48.7725 -55.689,-14.3386 -111.306,-1.53425 -144.111,29.2559 -23.3457,21.913 -37.8378,52.2697 -37.8378,85.7776l0 111.117c0,12.535 9.77954,22.6984 21.8421,22.6984 12.0638,0 21.8433,-10.1634 21.8433,-22.6984l0 -111.117c0,-28.8945 18.0591,-53.6422 43.4055,-66.1075 -6.24686,122.998 -0.0661418,215.212 -0.0661418,340.231 0,12.535 10.1622,22.6984 22.6973,22.6984 12.5362,0 22.6984,-10.1634 22.6984,-22.6984l0 -165.626c14.4555,-8.3067 20.9894,-8.46497 35.8311,0l17.0953 165.626c0,12.535 10.1622,22.6984 22.6984,22.6984 12.535,0 22.6984,-10.1634 22.6984,-22.6984 0,-125.025 -10.9193,-195.651 -17.1614,-318.659z"/>
    <ellipse id="_282243168" class="fil1" cx="401.185" cy="1138.52" rx="49.7704" ry="49.7703"/>
   </g>
   <g>
    <path id="_282241600" class="fil0" d="M1549.54 787.716c73.6737,60.2859 171.506,169.246 232.941,228.993 14.8488,18.3543 12.0083,45.2717 -6.34607,60.1217 -18.3543,14.85 -45.2729,12.0083 -60.1229,-6.34489 -51.6756,-39.4288 -82.0442,-62.3103 -130.812,-98.0965l53.8323 312.257 -387.747 0 54.8811 -308.162 -131.862 156.294c-14.8488,18.3532 -41.7685,21.1949 -60.1217,6.34489 -18.3543,-14.85 -21.1961,-41.7674 -6.34607,-60.1217l232.156 -286.806c59.9847,-74.1071 143.375,-58.6359 209.547,-4.47992z"/>
    <path id="_282240928" class="fil0" d="M1573.02 1284.18c-1.31102,84.3721 -2.65276,167.769 -2.65276,247.661 0,23.6091 -19.1398,42.75 -42.7489,42.75 -23.6091,0 -42.7489,-19.141 -42.7489,-42.75l0 -247.661 88.1505 0z"/>
    <path id="_282239136" class="fil0" d="M1405.45 1284.18c-1.31102,84.3721 -2.65276,167.769 -2.65276,247.661 0,23.6091 -19.141,42.75 -42.7489,42.75 -23.6091,0 -42.7489,-19.141 -42.7489,-42.75l0 -247.661 88.1505 0z"/>
    <ellipse id="_282240200" class="fil1" cx="1441.8" cy="645.703" rx="95.3031" ry="95.3029"/>
   </g>
  </g>
 </g>
 <rect class="fil2" width="2048" height="2048"/>
</svg>
