<svg width="443" height="569" viewBox="0 0 443 569" fill="none" xmlns="http://www.w3.org/2000/svg">
<path d="M425.335 147H148.419C142.897 147 137.734 150.126 134.637 155.34L122.361 176.03H396.55L112.923 191.936L95.7428 220.894H360.512L86.6399 236.251L70.2222 263.909H334.043L61.1432 279.203L43.2826 309.314H311.412L34.0743 324.866L16.3383 354.718H285.523L7.07247 370.332L2.88768 377.392C-4.59019 389.99 3.32395 407.024 16.6643 407.024H293.585C299.107 407.024 304.27 403.898 307.362 398.684L439.126 176.613C446.594 164.019 438.675 147 425.335 147Z" fill="url(#paint0_linear_302_14)"/>
<path d="M323.297 421.393L320.569 422.977V421.142L323.297 419.574V421.393Z" fill="#61F0FF"/>
<path d="M323.297 433.764L320.569 435.347V424.638L323.297 423.07V433.764Z" fill="#61F0FF"/>
<path d="M323.297 439.691L320.569 441.258V437.009L323.297 435.426V439.691Z" fill="#61F0FF"/>
<path d="M323.297 445.805L320.569 447.389V443.14L323.297 441.572V445.805Z" fill="#61F0FF"/>
<path d="M327.357 424.968L324.629 426.536V422.287L327.357 420.719V424.968Z" fill="#61F0FF"/>
<path d="M327.357 433.089L324.629 434.657V428.417L327.357 426.849V433.089Z" fill="#61F0FF"/>
<path d="M327.357 440.553L324.629 442.136V436.79L327.357 435.206V440.553Z" fill="#61F0FF"/>
<path d="M323.297 451.936L320.569 453.52V449.271L323.297 447.703V451.936Z" fill="#61F0FF"/>
<path d="M327.357 419.057L324.629 420.625V418.806L327.357 417.222V419.057Z" fill="#61F0FF"/>
<path d="M325.319 456.718L320.569 459.462V457.69L325.319 454.946V456.718Z" fill="#61F0FF"/>
<g opacity="0.11">
<path d="M225.857 458.333C223.546 457.004 220.928 456.305 218.262 456.305C215.597 456.305 212.978 457.004 210.667 458.333L120.141 510.497C119.815 510.684 119.544 510.953 119.356 511.278C119.168 511.603 119.069 511.972 119.069 512.347C119.069 512.723 119.168 513.092 119.356 513.417C119.544 513.742 119.815 514.011 120.141 514.198L211.42 566.927C213.459 568.097 215.77 568.713 218.121 568.713C220.473 568.713 222.783 568.097 224.823 566.927L316.258 514.26C316.584 514.072 316.854 513.801 317.042 513.474C317.229 513.148 317.328 512.779 317.328 512.402C317.328 512.026 317.229 511.656 317.042 511.33C316.854 511.004 316.584 510.733 316.258 510.545L225.857 458.333Z" fill="url(#paint1_linear_302_14)"/>
</g>
<g opacity="0.11">
<path d="M225.857 443.077C223.548 441.744 220.929 441.042 218.262 441.042C215.596 441.042 212.977 441.744 210.667 443.077L120.141 495.226C119.815 495.415 119.545 495.686 119.357 496.012C119.17 496.338 119.071 496.707 119.071 497.084C119.071 497.46 119.17 497.83 119.357 498.156C119.545 498.482 119.815 498.753 120.141 498.942L211.42 551.655C213.457 552.833 215.768 553.453 218.121 553.453C220.474 553.453 222.786 552.833 224.823 551.655L316.258 498.989C316.584 498.8 316.854 498.529 317.042 498.203C317.229 497.877 317.328 497.507 317.328 497.131C317.328 496.755 317.229 496.385 317.042 496.059C316.854 495.733 316.584 495.462 316.258 495.273L225.857 443.077Z" fill="url(#paint2_linear_302_14)"/>
</g>
<g opacity="0.11">
<path d="M225.857 427.821C223.548 426.488 220.929 425.786 218.262 425.786C215.596 425.786 212.977 426.488 210.667 427.821L120.141 479.97C119.815 480.159 119.545 480.43 119.357 480.756C119.17 481.082 119.071 481.452 119.071 481.828C119.071 482.204 119.17 482.574 119.357 482.9C119.545 483.226 119.815 483.497 120.141 483.686L211.42 536.399C213.457 537.577 215.768 538.198 218.121 538.198C220.474 538.198 222.786 537.577 224.823 536.399L316.258 483.733C316.584 483.546 316.855 483.277 317.043 482.952C317.231 482.627 317.33 482.258 317.33 481.883C317.33 481.507 317.231 481.139 317.043 480.814C316.855 480.489 316.584 480.219 316.258 480.033L225.857 427.821Z" fill="url(#paint3_linear_302_14)"/>
</g>
<g opacity="0.11">
<path d="M227.487 390.411C224.688 388.792 221.511 387.94 218.278 387.94C215.044 387.94 211.868 388.792 209.068 390.411L99.3391 453.661C98.9451 453.888 98.6179 454.214 98.3904 454.608C98.1628 455.001 98.0431 455.448 98.0431 455.903C98.0431 456.357 98.1628 456.804 98.3904 457.198C98.6179 457.591 98.9451 457.918 99.3391 458.145L209.993 522.069C212.465 523.494 215.268 524.245 218.121 524.245C220.974 524.245 223.777 523.494 226.249 522.069L337.123 458.208C337.516 457.979 337.843 457.65 338.07 457.256C338.297 456.861 338.417 456.413 338.417 455.958C338.417 455.502 338.297 455.055 338.07 454.66C337.843 454.265 337.516 453.937 337.123 453.708L227.487 390.411Z" fill="url(#paint4_linear_302_14)"/>
</g>
<g opacity="0.11">
<path d="M227.487 371.925C224.688 370.307 221.511 369.455 218.278 369.455C215.044 369.455 211.868 370.307 209.068 371.925L99.3391 435.175C98.9451 435.402 98.6179 435.729 98.3904 436.122C98.1628 436.516 98.0431 436.962 98.0431 437.417C98.0431 437.872 98.1628 438.319 98.3904 438.712C98.6179 439.106 98.9451 439.432 99.3391 439.659L209.993 503.567C212.465 504.993 215.268 505.743 218.121 505.743C220.974 505.743 223.777 504.993 226.249 503.567L337.123 439.706C337.517 439.479 337.844 439.153 338.071 438.759C338.299 438.365 338.419 437.919 338.419 437.464C338.419 437.009 338.299 436.563 338.071 436.169C337.844 435.775 337.517 435.449 337.123 435.222L227.487 371.925Z" fill="url(#paint5_linear_302_14)"/>
</g>
<g opacity="0.11">
<path d="M227.487 353.424C224.686 351.81 221.51 350.96 218.278 350.96C215.045 350.96 211.87 351.81 209.068 353.424L99.3391 416.673C98.9454 416.902 98.6188 417.231 98.3917 417.626C98.1646 418.02 98.0451 418.468 98.0451 418.923C98.0451 419.379 98.1646 419.826 98.3917 420.221C98.6188 420.616 98.9454 420.944 99.3391 421.173L209.993 485.081C212.465 486.507 215.268 487.257 218.121 487.257C220.974 487.257 223.777 486.507 226.249 485.081L337.123 421.205C337.517 420.978 337.844 420.651 338.071 420.258C338.299 419.864 338.419 419.417 338.419 418.963C338.419 418.508 338.299 418.061 338.071 417.668C337.844 417.274 337.517 416.947 337.123 416.72L227.487 353.424Z" fill="url(#paint6_linear_302_14)"/>
</g>
<g opacity="0.11">
<path d="M227.487 334.922C224.688 333.304 221.511 332.452 218.278 332.452C215.044 332.452 211.868 333.304 209.068 334.922L99.3391 398.156C98.9454 398.385 98.6188 398.714 98.3917 399.109C98.1646 399.503 98.0451 399.951 98.0451 400.406C98.0451 400.862 98.1646 401.309 98.3917 401.704C98.6188 402.099 98.9454 402.427 99.3391 402.656L209.993 466.58C212.465 468.006 215.268 468.756 218.121 468.756C220.974 468.756 223.777 468.006 226.249 466.58L337.123 402.719C337.516 402.49 337.843 402.162 338.07 401.767C338.297 401.372 338.417 400.924 338.417 400.469C338.417 400.013 338.297 399.566 338.07 399.171C337.843 398.776 337.516 398.448 337.123 398.219L227.487 334.922Z" fill="url(#paint7_linear_302_14)"/>
</g>
<path opacity="0.5" d="M337.107 398.219L227.487 334.922C224.686 333.309 221.51 332.459 218.278 332.459C215.045 332.459 211.87 333.309 209.068 334.922L99.3391 398.172C98.9419 398.4 98.6122 398.728 98.3836 399.125C98.155 399.522 98.0358 399.972 98.0381 400.43V455.918C98.037 456.374 98.1568 456.821 98.3854 457.215C98.614 457.609 98.9431 457.936 99.3391 458.16L209.993 522.069C212.465 523.494 215.268 524.245 218.121 524.245C220.974 524.245 223.777 523.494 226.249 522.069L337.123 458.208C337.516 457.981 337.842 457.654 338.067 457.26C338.293 456.866 338.411 456.419 338.408 455.965V400.461C338.409 400.006 338.289 399.558 338.061 399.164C337.832 398.77 337.503 398.444 337.107 398.219Z" fill="url(#paint8_linear_302_14)"/>
<g opacity="0.11">
<path d="M227.487 334.922C224.688 333.304 221.511 332.452 218.278 332.452C215.044 332.452 211.868 333.304 209.068 334.922L99.3391 398.156C98.9454 398.385 98.6188 398.714 98.3917 399.109C98.1646 399.503 98.0451 399.951 98.0451 400.406C98.0451 400.862 98.1646 401.309 98.3917 401.704C98.6188 402.099 98.9454 402.427 99.3391 402.656L209.993 466.58C212.465 468.006 215.268 468.756 218.121 468.756C220.974 468.756 223.777 468.006 226.249 466.58L337.123 402.719C337.516 402.49 337.843 402.162 338.07 401.767C338.297 401.372 338.417 400.924 338.417 400.469C338.417 400.013 338.297 399.566 338.07 399.171C337.843 398.776 337.516 398.448 337.123 398.219L227.487 334.922Z" fill="url(#paint9_linear_302_14)"/>
</g>
<path d="M337.107 400.163L226.233 464.024C223.762 465.45 220.959 466.2 218.105 466.2C215.252 466.2 212.449 465.45 209.978 464.024L99.2921 400.101C98.8887 399.872 98.5574 399.536 98.3359 399.128C97.9998 399.724 97.9117 400.428 98.0907 401.089C98.2696 401.749 98.7012 402.312 99.2921 402.656L209.993 466.58C212.465 468.006 215.268 468.756 218.121 468.756C220.974 468.756 223.777 468.006 226.249 466.58L337.123 402.719C337.713 402.375 338.145 401.811 338.324 401.151C338.503 400.491 338.415 399.787 338.079 399.191C337.844 399.594 337.51 399.929 337.107 400.163Z" fill="url(#paint10_linear_302_14)"/>
<path opacity="0.2" d="M218.207 435.504C251.59 435.504 278.653 419.878 278.653 400.602C278.653 381.327 251.59 365.701 218.207 365.701C184.824 365.701 157.762 381.327 157.762 400.602C157.762 419.878 184.824 435.504 218.207 435.504Z" fill="#180D5B"/>
<path d="M195.196 371.016C195.196 371.016 193.722 372.584 192.202 374.34C190.681 376.096 186.386 378.667 184.583 379.78C182.78 380.894 174.535 387.15 172.811 393.312C171.087 399.473 176.98 400.289 183.016 399.223C189.051 398.156 194.678 392.59 196.324 390.568C197.97 388.545 203.66 384.014 211.059 380.172C218.458 376.331 213.991 371.188 213.991 371.188L195.196 371.016Z" fill="#001751"/>
<path d="M250.139 389.297C250.951 391.305 251.478 393.416 251.706 395.569C252.067 399.128 252.553 406.858 252.741 409.116C253.152 413.783 251.83 418.439 249.026 422.192C245.06 427.492 243.006 429.577 237.724 427.492C232.441 425.406 232.551 416.516 233.491 411.985C234.394 406.748 234.965 401.459 235.2 396.149C235.127 395.547 235.231 394.937 235.498 394.393L250.139 389.297Z" fill="#001751"/>
<path d="M176.965 266.389C176.965 266.389 178.078 307.045 187.546 328.635C191.975 342.101 194.564 356.104 195.243 370.263C194.808 371.411 194.639 372.643 194.751 373.865C194.862 375.087 195.25 376.269 195.885 377.319C198.111 380.455 212.031 383.387 214.32 372.991C216.608 362.596 215.731 343.201 213.207 335.016C210.683 326.832 214.116 304.536 214.116 304.536C214.116 304.536 217.91 306.966 222.894 323.038C227.879 339.109 231.547 345.224 233.256 349.692C234.965 354.161 236.548 381.348 235.466 394.644C235.466 394.644 246.737 396.212 249.998 390.866C253.258 385.519 254.34 357.61 253.509 348.736C252.678 339.861 248.979 311.388 249.48 302.576C249.982 293.765 251.832 286.615 249.809 277.835C247.787 269.054 188.361 249.487 188.361 249.487L176.965 266.389Z" fill="#001751"/>
<path d="M249.48 302.561C249.998 293.765 251.832 286.599 249.809 277.819C249.057 274.511 240.185 269.681 229.431 264.946C211.247 263.284 188.173 261.356 186.574 261.607C183.737 262.362 180.96 263.326 178.266 264.492L176.996 266.389C176.996 266.389 176.996 268.85 177.31 272.896C181.558 274.166 189.709 272.896 189.709 272.896C190.869 275.749 197.954 285.893 206.764 290.268C215.574 294.642 241.392 293.153 242.818 294.815C244.245 296.477 244.589 318.741 244.386 321.564C244.182 324.386 246.815 342.229 249.23 357.986C251.581 373.493 247.991 392.324 247.866 392.935C248.711 392.429 249.425 391.731 249.951 390.897C253.195 385.503 254.293 357.641 253.462 348.767C252.631 339.893 248.979 311.372 249.48 302.561Z" fill="#001751"/>
<path d="M196.857 133.367C196.857 133.367 183.674 136.377 179.238 137.412C178.885 137.504 178.559 137.678 178.286 137.921C178.013 138.164 177.802 138.467 177.67 138.808C176.401 142.053 173.187 152.135 175.601 166.842C177.377 176.825 178.061 186.972 177.639 197.103L171.541 228.853C171.541 228.853 163.86 259.098 164.534 259.929C165.208 260.76 182.185 273.695 187.499 271.861C192.813 270.026 191.073 267.032 191.073 267.032C191.073 267.032 195.368 288.982 214.414 288.747C233.46 288.512 249.026 288.59 252.255 280.908C255.484 273.225 251.377 240.832 248.007 228.022C244.636 215.212 236.673 189.655 236.673 189.655L264.576 158.767L240.733 140.548C240.733 140.548 235.027 129.965 232.692 128.616C230.356 127.268 229.133 128.412 229.133 128.412L196.857 133.367Z" fill="#152E6D"/>
<path d="M187.781 264.884C187.781 265.981 187.154 267.627 183.737 268.803C180.037 270.073 170.977 264.554 165.02 260.415C167.998 262.877 182.592 273.538 187.452 271.861C188.303 271.59 189.107 271.188 189.835 270.669C189.001 268.797 188.314 266.863 187.781 264.884Z" fill="url(#paint11_linear_302_14)"/>
<path d="M252.067 278.321C248.665 286.458 232.237 286.395 212.141 286.615C207.689 286.733 203.31 285.473 199.6 283.009C201.547 284.903 203.855 286.387 206.386 287.373C208.917 288.359 211.62 288.826 214.336 288.747C233.381 288.543 248.947 288.59 252.176 280.908C253.242 278.383 253.509 273.194 253.274 266.906C253.352 272.002 252.992 276.125 252.067 278.321Z" fill="url(#paint12_linear_302_14)"/>
<path d="M232.127 128.334C232.127 128.334 237.003 134.229 229.996 142.194C223.237 150.472 217.196 159.31 211.937 168.614C207.987 175.466 204.335 179.119 202.265 184.999C202.265 184.999 201.968 178.006 201.701 167.218C201.435 157.027 201.293 146.444 201.701 143.778C202.689 138.275 226.751 125.669 232.127 128.334Z" fill="#F0F6FF"/>
<path d="M178.485 137.741C178.485 137.741 175.57 138.18 166.086 162.028C160.788 175.34 152.621 189.122 150.896 199.015C149.172 208.909 150.128 219.492 152.088 220.229C154.047 220.966 188.032 233.698 198.691 237.727C198.829 237.778 198.976 237.797 199.122 237.784C199.268 237.772 199.41 237.727 199.537 237.654C199.664 237.581 199.773 237.481 199.857 237.36C199.941 237.24 199.998 237.103 200.024 236.959L202.971 220.496L181.777 212.327C179.571 209.642 176.92 207.356 173.939 205.569C173.939 205.569 178.188 197.73 177.905 195.629C177.623 193.527 178.282 171.42 175.805 162.452C173.328 153.483 178.485 137.741 178.485 137.741Z" fill="#001751"/>
<path d="M190.869 200.787C190.869 200.787 187.953 198.827 187.232 198.545C186.511 198.263 182.624 196.977 181.871 196.616C180.561 196.437 179.232 196.437 177.921 196.616C177.72 196.639 177.527 196.71 177.358 196.821C177.189 196.933 177.049 197.083 176.949 197.259C176.056 198.937 173.548 203.782 173.814 205.647C173.814 205.647 180.852 210.085 181.652 212.076L182.781 212.311C182.781 212.311 187.499 202.245 190.869 200.787Z" fill="url(#paint13_linear_302_14)"/>
<path d="M247.96 228.006C247.16 224.87 246.079 221.092 244.919 217.031L202.156 235.422C206.597 240.313 212.058 244.169 218.152 246.718C224.246 249.267 230.826 250.448 237.426 250.177C242.357 249.898 247.138 248.383 251.33 245.771C250.526 239.793 249.401 233.863 247.96 228.006Z" fill="#001751"/>
<path d="M264.529 158.751C264.529 158.751 253.227 160.32 244.151 174.76C238.071 184.724 232.798 195.157 228.381 205.962L228.067 207.843C227.876 208.991 227.424 210.079 226.747 211.025C226.07 211.971 225.185 212.749 224.161 213.3C223.136 213.851 221.999 214.16 220.837 214.203C219.675 214.247 218.518 214.023 217.455 213.55C207.815 209.238 193.55 202.747 190.901 200.787C188.117 202.562 185.719 204.881 183.853 207.605C181.986 210.329 180.688 213.402 180.037 216.639C178.188 225.529 178.658 225.56 178.658 225.56C178.658 225.56 216.671 243.309 231.344 243.137C246.016 242.964 264.654 194.672 266.708 184.701C268.761 174.729 270.987 161.589 264.529 158.751Z" fill="#001751"/>
<path d="M264.529 158.751C264.529 158.751 253.227 160.32 244.151 174.76C238.071 184.724 232.798 195.157 228.381 205.962L228.067 207.843C227.876 208.991 227.424 210.079 226.747 211.025C226.07 211.971 225.185 212.749 224.161 213.3C223.136 213.851 221.999 214.16 220.837 214.203C219.675 214.247 218.518 214.023 217.455 213.55C207.815 209.238 193.55 202.747 190.901 200.787C188.117 202.562 185.719 204.881 183.853 207.605C181.986 210.329 180.688 213.402 180.037 216.639C178.188 225.529 178.658 225.56 178.658 225.56C178.658 225.56 216.671 243.309 231.344 243.137C246.016 242.964 264.654 194.672 266.708 184.701C268.761 174.729 270.987 161.589 264.529 158.751Z" fill="#2F4D94"/>
<path d="M222.879 215.792C222.879 215.792 227.675 220.276 229.76 217.815C231.845 215.353 231.234 215.087 231.234 215.087C231.234 215.087 235.545 215.087 236.078 212.343C236.611 209.599 238.727 211.073 238.837 208.062C238.946 205.052 235.356 205.663 235.356 205.663L222.879 215.792Z" fill="#152E6D"/>
<path d="M217.079 213.33C217.079 213.33 218.396 212.108 220.104 210.665C221.813 209.223 224.556 203.264 225.011 202.825C225.465 202.386 231.281 197.902 233.977 197.824C236.673 197.745 234.698 200.834 234.055 201.273C233.413 201.712 230.717 203.061 230.717 203.061C230.717 203.061 227.942 205.397 227.581 205.726C227.221 206.055 235.31 205.177 236.579 205.961C236.832 206.167 237.035 206.427 237.175 206.721C237.314 207.015 237.387 207.337 237.387 207.662C237.387 207.988 237.314 208.31 237.175 208.604C237.035 208.898 236.832 209.158 236.579 209.364C236.114 209.679 235.573 209.863 235.012 209.897C235.256 210.576 235.229 211.323 234.937 211.982C234.645 212.642 234.111 213.164 233.444 213.44C231.03 214.569 230.466 213.942 230.466 213.942C230.466 213.942 230.262 218.113 226.28 217.297L217.079 213.33Z" fill="url(#paint14_linear_302_14)"/>
<path d="M218.772 156.102L216.122 154.048C214.742 155.219 213.593 156.639 212.737 158.234C211.78 160.382 212.737 167.234 212.737 167.234L211.937 168.614L210.934 166.811L210.103 158.705C210.103 158.705 210.997 152.731 211.091 152.574C211.185 152.417 216.185 153.107 216.185 153.107C217.235 153.927 218.113 154.944 218.772 156.102Z" fill="#C4CCD6"/>
<path d="M206.074 148.042C204.626 148.121 203.218 148.545 201.967 149.281C201.967 149.281 204.93 149.438 205.4 149.485C205.871 149.532 206.074 148.042 206.074 148.042Z" fill="#C4CCD6"/>
<path d="M211.451 148.67L216.154 153.107C213.743 154.26 211.845 156.265 210.824 158.736C210.824 158.736 205.683 159.708 205.212 157.842C204.742 155.976 205.212 151.257 204.601 149.171C203.99 147.086 211.451 148.67 211.451 148.67Z" fill="#FF734D"/>
<path d="M205.432 157.732C205.015 159.618 204.394 161.452 203.582 163.204C202.626 164.772 201.638 166.606 201.638 166.606L201.748 189.341C201.748 189.341 210.119 172.094 211.937 168.613C211.937 168.613 211.655 160.319 210.856 158.736C210.056 157.152 205.432 157.732 205.432 157.732Z" fill="#FF734D"/>
<path d="M240.451 142.68C240.451 142.68 238.288 150.159 238.006 150.52C236.182 150.564 234.357 150.46 232.551 150.206L235.059 154.91C235.059 154.91 209.053 182.819 203.707 197.84C213.829 182.986 225.193 169.018 237.676 156.086L234.541 151.382L239.855 152.417L240.451 142.68Z" fill="#001751"/>
<path d="M197.719 136.08L196.34 137.648L197.907 139.215L193.095 143.559C193.095 143.559 191.637 174.086 197.5 194.312C197.5 194.312 189.537 175.763 191.339 142.728L196.544 139.2L194.835 137.522L197.719 136.08Z" fill="#001751"/>
<path d="M214.116 304.536L214.288 304.677L207.548 297.496C210.683 301.886 207.078 321.987 206.702 326.581C206.325 331.175 210.307 340.692 211.796 351.808C213.285 362.925 210.229 378.792 210.229 378.84C211.293 378.219 212.21 377.375 212.916 376.365C213.623 375.355 214.102 374.204 214.32 372.991C216.624 362.596 215.731 343.201 213.207 335.016C210.683 326.832 214.116 304.536 214.116 304.536Z" fill="#001751"/>
<path d="M231.312 243.121C246 242.949 264.623 194.657 266.676 184.685C267.021 183.023 267.366 181.267 267.68 179.479C267.68 179.636 263.808 190.047 260.14 199.298C256.472 208.549 236.83 236.802 226.813 238.653C217.768 240.22 185.242 225.121 178.94 222.127C178.376 225.513 178.626 225.545 178.626 225.545C178.626 225.545 216.64 243.309 231.312 243.121Z" fill="url(#paint15_linear_302_14)"/>
<path d="M205.103 78.5684C205.103 78.5684 202.422 49.405 211.514 32.1893C220.606 14.9736 230.105 0 230.105 0C230.105 0 235.404 13.9075 230.873 34.7764C227.753 48.5447 223.753 62.0984 218.897 75.3541L205.103 78.5684Z" fill="url(#paint16_linear_302_14)"/>
<path d="M165.647 131.031C172.567 119.056 178.552 106.565 183.549 93.6677C190.289 76.844 212.36 71.0897 228.851 75.0408C245.342 78.992 252.161 107.167 244.166 125.528C236.172 143.888 222.91 148.09 201.842 147.478L187.953 149.956C186.543 150.207 185.132 150.426 183.705 150.646C176.165 151.633 173.595 148.09 173.595 148.09C173.595 148.09 172.748 151.884 170.459 152.088H169.738C169.092 152.15 168.446 151.973 167.921 151.592C167.396 151.211 167.027 150.652 166.885 150.018L164.393 139.043C163.773 136.31 164.222 133.444 165.647 131.031Z" fill="#EBF2FF"/>
<path d="M168.233 133.994C173.814 129.761 181.715 107.684 185.085 95.7054C188.455 83.7265 201.889 76.8904 202.187 76.7022C210.724 73.59 219.978 73.0129 228.835 75.0403C232.254 75.9381 235.293 77.9114 237.504 80.6691C222.785 80.5123 213.05 86.9407 205.714 93.5573C199.616 99.0764 197.657 108.108 193.267 117.531C188.095 128.694 177.341 135.891 177.341 135.891L168.233 133.994Z" fill="url(#paint17_linear_302_14)"/>
<path d="M185.085 95.7367C188.408 83.8833 201.889 76.9218 202.187 76.7336C208.123 74.5647 214.435 73.6102 220.747 73.927C217.543 76.5039 213.922 78.5137 210.04 79.8695C205.864 81.3612 202.074 83.7711 198.952 86.9214C195.829 90.0718 193.453 93.8824 191.998 98.0729C186.276 115.32 179.05 129.619 173.595 135.138L168.233 134.025C173.814 129.761 181.777 107.684 185.085 95.7367Z" fill="url(#paint18_linear_302_14)"/>
<path d="M218.678 105.38C218.775 104.845 218.668 104.294 218.377 103.835C218.087 103.376 217.635 103.043 217.11 102.902C215.319 102.327 213.428 102.128 211.556 102.317C209.685 102.506 207.872 103.079 206.231 104C203.087 106.08 200.641 109.057 199.209 112.545C199.056 112.86 198.981 113.208 198.991 113.558C199 113.908 199.093 114.251 199.262 114.558C199.43 114.865 199.67 115.127 199.961 115.323C200.252 115.518 200.585 115.641 200.933 115.681C204.733 116.287 208.628 115.66 212.047 113.893C213.723 113.068 215.191 111.872 216.339 110.398C217.488 108.923 218.287 107.208 218.678 105.38Z" fill="#001751"/>
<path d="M188.471 129.902C201.544 128.945 216.687 124.069 223.725 115.884C227.918 110.893 230.147 104.543 229.995 98.0259L237.645 99.9232C239.981 116.935 235.858 129.51 226.124 136.738C216.389 143.966 201.779 147.541 201.779 147.541L187.891 150.018C186.48 150.269 185.069 150.488 183.643 150.708C194.913 144.201 188.471 129.902 188.471 129.902Z" fill="url(#paint19_linear_302_14)"/>
<path d="M226.108 136.738C251.471 115.916 234.024 77.1572 234.024 77.1572C246.69 85.0909 251.267 109.143 244.166 125.449C236.172 143.809 222.91 148.011 201.842 147.4C201.764 147.478 216.734 144.436 226.108 136.738Z" fill="url(#paint20_linear_302_14)"/>
<path d="M191.183 121.372C187.529 127.049 182.825 131.977 177.325 135.891L173.563 135.107C179.018 129.588 186.245 115.21 191.966 98.0417C193.42 93.8528 195.794 90.0431 198.914 86.8929C202.033 83.7426 205.819 81.332 209.993 79.8382C213.803 78.5041 217.363 76.5435 220.527 74.037C225.747 67.4831 230.058 54.9241 237.238 45.2187C244.417 35.5133 269.122 11.242 279.719 5.06445C279.719 5.06445 280.393 9.76809 270.705 31.2172C261.017 52.6662 253.822 63.5633 246.204 71.0893C243.12 74.1385 239.653 76.7738 235.89 78.9289C236.443 79.4525 236.967 80.0073 237.457 80.5908C222.738 80.434 213.003 86.8626 205.667 93.4792C199.569 98.9982 197.61 108.029 193.22 117.452C192.612 118.775 191.921 120.058 191.151 121.294" fill="url(#paint21_linear_302_14)"/>
<path d="M233.287 80.8103C235.08 67.6042 239.793 54.9637 247.082 43.8076C259.936 24.5379 278.214 6.05219 278.276 5.98947C278.794 5.64453 279.295 5.331 279.844 5.06445C279.844 5.06445 280.518 9.76809 270.83 31.2172C261.143 52.6662 253.948 63.5633 246.329 71.0893C243.245 74.1385 239.778 76.7738 236.015 78.9289C236.569 79.4525 237.092 80.0073 237.582 80.5908C236.088 80.6326 234.656 80.7058 233.287 80.8103Z" fill="url(#paint22_linear_302_14)"/>
<path d="M177.419 137.365C177.559 137.064 177.636 136.738 177.647 136.407C177.657 136.076 177.601 135.746 177.481 135.437C177.361 135.128 177.18 134.846 176.948 134.609C176.717 134.372 176.44 134.184 176.134 134.056C174.782 133.51 173.344 133.208 171.886 133.163C170.412 133.046 168.949 133.494 167.795 134.417C167.41 134.74 167.137 135.176 167.013 135.662C166.89 136.149 166.922 136.662 167.105 137.13C167.806 138.97 168.979 140.592 170.506 141.833C170.855 142.134 171.281 142.33 171.735 142.4C172.19 142.469 172.655 142.409 173.077 142.225C175.067 141.187 176.611 139.459 177.419 137.365Z" fill="#001751" stroke="#001751" stroke-miterlimit="10"/>
<path d="M238.774 60.1295C241.503 54.1468 244.8 48.4396 248.618 43.0863C250.264 40.7501 251.973 38.3824 253.713 36.1403C259.779 28.1126 266.253 20.3357 272.68 12.6216L276.019 8.67043C276.051 8.62356 276.066 8.56661 276.059 8.51004C276.053 8.45347 276.026 8.40116 275.984 8.36286C275.942 8.32455 275.887 8.3029 275.83 8.3018C275.773 8.3007 275.718 8.32027 275.674 8.35692C274.42 9.53286 273.197 10.74 271.975 11.963C265.832 18.1155 260.074 24.64 254.732 31.4994C251.155 36.0769 247.852 40.8622 244.84 45.8301C242.194 50.369 240.054 55.1852 238.46 60.1921C238.335 60.7252 238.523 60.6939 238.774 60.1295Z" fill="#001751"/>
<path d="M221.154 71.1519C217.219 71.6147 213.355 72.5573 209.648 73.9585C209.56 74.0028 209.489 74.0772 209.449 74.1683C209.41 74.2594 209.403 74.3615 209.431 74.4569C209.459 74.5522 209.52 74.6345 209.603 74.6896C209.685 74.7447 209.785 74.769 209.884 74.7581C213.421 74.2234 216.997 73.9823 220.574 74.037L221.154 71.1519Z" fill="#001751"/>
<path d="M189.991 129.682C194.271 129.039 206.513 127.001 213.63 123.567C213.705 123.542 213.786 123.543 213.861 123.57C213.935 123.597 213.997 123.65 214.038 123.717C214.078 123.785 214.094 123.865 214.082 123.944C214.071 124.022 214.033 124.094 213.975 124.147C210.637 126.344 206.962 127.981 203.096 128.992C196.073 130.983 191.966 130.748 189.976 130.356C189.899 130.338 189.831 130.294 189.783 130.231C189.735 130.169 189.709 130.092 189.711 130.013C189.713 129.934 189.742 129.858 189.793 129.798C189.844 129.738 189.914 129.697 189.991 129.682Z" fill="#001751"/>
<path d="M169.629 133.367C173.654 126.515 177.149 119.365 180.084 111.98C184.317 100.927 184.191 98.7002 184.191 98.7002" fill="#EBF2FF"/>
<path d="M170.475 133.947C175.098 125.656 178.915 116.941 181.871 107.92C182.767 105.309 183.495 102.643 184.05 99.9391C184.136 99.5527 184.183 99.1588 184.191 98.7632C184.099 99.5445 183.936 100.316 183.705 101.068C182.071 106.319 180.081 111.453 177.749 116.433C175.086 122.103 172.092 127.611 168.782 132.928L170.475 133.947Z" fill="#001751"/>
<path d="M177.67 135.296C184.137 131.029 189.229 124.978 192.327 117.876C194.939 111.488 197.88 105.24 201.137 99.1553" fill="#EBF2FF"/>
<path d="M178.188 136.142C181.653 133.747 184.73 130.833 187.311 127.503C187.781 126.86 188.533 125.935 188.878 125.245C190.191 123.334 191.31 121.296 192.217 119.162C192.938 117.594 193.597 115.744 194.286 114.082C196.371 109.033 198.582 104.031 201.074 99.1553C198.362 103.859 195.917 108.829 193.597 113.784C192.844 115.352 192.029 117.155 191.324 118.754C190.541 120.386 189.64 121.958 188.627 123.458L187.436 125.026L186.151 126.594C184.398 128.629 182.456 130.493 180.351 132.16C179.312 132.977 178.229 133.737 177.106 134.433L178.125 136.127L178.188 136.142Z" fill="#001751"/>
<defs>
<linearGradient id="paint0_linear_302_14" x1="-443.5" y1="225" x2="347" y2="328" gradientUnits="userSpaceOnUse">
<stop stop-color="#FF734D"/>
<stop offset="1" stop-color="#F3AC21" stop-opacity="0"/>
</linearGradient>
<linearGradient id="paint1_linear_302_14" x1="119.059" y1="512.504" x2="317.324" y2="512.504" gradientUnits="userSpaceOnUse">
<stop stop-color="#5761D7"/>
<stop offset="0.07" stop-color="#5472D8"/>
<stop offset="0.28" stop-color="#4E9CDB"/>
<stop offset="0.48" stop-color="#49BDDD"/>
<stop offset="0.67" stop-color="#45D5DF"/>
<stop offset="0.85" stop-color="#43E3E0"/>
<stop offset="1" stop-color="#42E8E0"/>
</linearGradient>
<linearGradient id="paint2_linear_302_14" x1="119.059" y1="497.248" x2="317.324" y2="497.248" gradientUnits="userSpaceOnUse">
<stop stop-color="#5761D7"/>
<stop offset="0.07" stop-color="#5472D8"/>
<stop offset="0.28" stop-color="#4E9CDB"/>
<stop offset="0.48" stop-color="#49BDDD"/>
<stop offset="0.67" stop-color="#45D5DF"/>
<stop offset="0.85" stop-color="#43E3E0"/>
<stop offset="1" stop-color="#42E8E0"/>
</linearGradient>
<linearGradient id="paint3_linear_302_14" x1="119.059" y1="481.993" x2="317.324" y2="481.993" gradientUnits="userSpaceOnUse">
<stop stop-color="#5761D7"/>
<stop offset="0.07" stop-color="#5472D8"/>
<stop offset="0.28" stop-color="#4E9CDB"/>
<stop offset="0.48" stop-color="#49BDDD"/>
<stop offset="0.67" stop-color="#45D5DF"/>
<stop offset="0.85" stop-color="#43E3E0"/>
<stop offset="1" stop-color="#42E8E0"/>
</linearGradient>
<linearGradient id="paint4_linear_302_14" x1="97.9911" y1="456.091" x2="338.392" y2="456.091" gradientUnits="userSpaceOnUse">
<stop stop-color="#5761D7"/>
<stop offset="0.07" stop-color="#5472D8"/>
<stop offset="0.28" stop-color="#4E9CDB"/>
<stop offset="0.48" stop-color="#49BDDD"/>
<stop offset="0.67" stop-color="#45D5DF"/>
<stop offset="0.85" stop-color="#43E3E0"/>
<stop offset="1" stop-color="#42E8E0"/>
</linearGradient>
<linearGradient id="paint5_linear_302_14" x1="97.9911" y1="437.605" x2="338.392" y2="437.605" gradientUnits="userSpaceOnUse">
<stop stop-color="#5761D7"/>
<stop offset="0.07" stop-color="#5472D8"/>
<stop offset="0.28" stop-color="#4E9CDB"/>
<stop offset="0.48" stop-color="#49BDDD"/>
<stop offset="0.67" stop-color="#45D5DF"/>
<stop offset="0.85" stop-color="#43E3E0"/>
<stop offset="1" stop-color="#42E8E0"/>
</linearGradient>
<linearGradient id="paint6_linear_302_14" x1="97.991" y1="419.104" x2="338.392" y2="419.104" gradientUnits="userSpaceOnUse">
<stop stop-color="#5761D7"/>
<stop offset="0.07" stop-color="#5472D8"/>
<stop offset="0.28" stop-color="#4E9CDB"/>
<stop offset="0.48" stop-color="#49BDDD"/>
<stop offset="0.67" stop-color="#45D5DF"/>
<stop offset="0.85" stop-color="#43E3E0"/>
<stop offset="1" stop-color="#42E8E0"/>
</linearGradient>
<linearGradient id="paint7_linear_302_14" x1="97.991" y1="400.602" x2="338.392" y2="400.602" gradientUnits="userSpaceOnUse">
<stop stop-color="#5761D7"/>
<stop offset="0.07" stop-color="#5472D8"/>
<stop offset="0.28" stop-color="#4E9CDB"/>
<stop offset="0.48" stop-color="#49BDDD"/>
<stop offset="0.67" stop-color="#45D5DF"/>
<stop offset="0.85" stop-color="#43E3E0"/>
<stop offset="1" stop-color="#42E8E0"/>
</linearGradient>
<linearGradient id="paint8_linear_302_14" x1="97.9911" y1="428.354" x2="338.392" y2="428.354" gradientUnits="userSpaceOnUse">
<stop stop-color="#5761D7"/>
<stop offset="0.07" stop-color="#5472D8"/>
<stop offset="0.28" stop-color="#4E9CDB"/>
<stop offset="0.48" stop-color="#49BDDD"/>
<stop offset="0.67" stop-color="#45D5DF"/>
<stop offset="0.85" stop-color="#43E3E0"/>
<stop offset="1" stop-color="#42E8E0"/>
</linearGradient>
<linearGradient id="paint9_linear_302_14" x1="97.991" y1="400.602" x2="338.392" y2="400.602" gradientUnits="userSpaceOnUse">
<stop stop-color="#5761D7"/>
<stop offset="0.07" stop-color="#5472D8"/>
<stop offset="0.28" stop-color="#4E9CDB"/>
<stop offset="0.48" stop-color="#49BDDD"/>
<stop offset="0.67" stop-color="#45D5DF"/>
<stop offset="0.85" stop-color="#43E3E0"/>
<stop offset="1" stop-color="#42E8E0"/>
</linearGradient>
<linearGradient id="paint10_linear_302_14" x1="97.991" y1="433.936" x2="338.392" y2="433.936" gradientUnits="userSpaceOnUse">
<stop stop-color="#5761D7"/>
<stop offset="0.07" stop-color="#5472D8"/>
<stop offset="0.28" stop-color="#4E9CDB"/>
<stop offset="0.48" stop-color="#49BDDD"/>
<stop offset="0.67" stop-color="#45D5DF"/>
<stop offset="0.85" stop-color="#43E3E0"/>
<stop offset="1" stop-color="#42E8E0"/>
</linearGradient>
<linearGradient id="paint11_linear_302_14" x1="161.907" y1="272.239" x2="187.286" y2="273.761" gradientUnits="userSpaceOnUse">
<stop stop-color="#5761D7"/>
<stop offset="0.07" stop-color="#5472D8"/>
<stop offset="0.28" stop-color="#4E9CDB"/>
<stop offset="0.48" stop-color="#49BDDD"/>
<stop offset="0.67" stop-color="#45D5DF"/>
<stop offset="0.85" stop-color="#43E3E0"/>
<stop offset="1" stop-color="#42E8E0"/>
</linearGradient>
<linearGradient id="paint12_linear_302_14" x1="197.279" y1="282.623" x2="250.357" y2="285.807" gradientUnits="userSpaceOnUse">
<stop stop-color="#5761D7"/>
<stop offset="0.07" stop-color="#5472D8"/>
<stop offset="0.28" stop-color="#4E9CDB"/>
<stop offset="0.48" stop-color="#49BDDD"/>
<stop offset="0.67" stop-color="#45D5DF"/>
<stop offset="0.85" stop-color="#43E3E0"/>
<stop offset="1" stop-color="#42E8E0"/>
</linearGradient>
<linearGradient id="paint13_linear_302_14" x1="173.814" y1="204.424" x2="190.869" y2="204.424" gradientUnits="userSpaceOnUse">
<stop stop-color="#B7CDF5"/>
<stop offset="1" stop-color="#EBF2FF"/>
</linearGradient>
<linearGradient id="paint14_linear_302_14" x1="217.079" y1="207.592" x2="237.488" y2="207.592" gradientUnits="userSpaceOnUse">
<stop stop-color="#B7CDF5"/>
<stop offset="1" stop-color="#EBF2FF"/>
</linearGradient>
<linearGradient id="paint15_linear_302_14" x1="176.926" y1="213.848" x2="263.251" y2="219.027" gradientUnits="userSpaceOnUse">
<stop stop-color="#5761D7"/>
<stop offset="0.07" stop-color="#5472D8"/>
<stop offset="0.28" stop-color="#4E9CDB"/>
<stop offset="0.48" stop-color="#49BDDD"/>
<stop offset="0.67" stop-color="#45D5DF"/>
<stop offset="0.85" stop-color="#43E3E0"/>
<stop offset="1" stop-color="#42E8E0"/>
</linearGradient>
<linearGradient id="paint16_linear_302_14" x1="212.167" y1="39.0879" x2="178.856" y2="42.0852" gradientUnits="userSpaceOnUse">
<stop stop-color="#B7CDF5"/>
<stop offset="1" stop-color="#EBF2FF"/>
</linearGradient>
<linearGradient id="paint17_linear_302_14" x1="208.263" y1="67.8745" x2="171.74" y2="104.109" gradientUnits="userSpaceOnUse">
<stop stop-color="#B7CDF5"/>
<stop offset="1" stop-color="#EBF2FF"/>
</linearGradient>
<linearGradient id="paint18_linear_302_14" x1="160.888" y1="131.823" x2="177.184" y2="91.7449" gradientUnits="userSpaceOnUse">
<stop stop-color="#B7CDF5"/>
<stop offset="1" stop-color="#EBF2FF"/>
</linearGradient>
<linearGradient id="paint19_linear_302_14" x1="170.27" y1="143.529" x2="205.51" y2="118.9" gradientUnits="userSpaceOnUse">
<stop stop-color="#B7CDF5"/>
<stop offset="1" stop-color="#EBF2FF"/>
</linearGradient>
<linearGradient id="paint20_linear_302_14" x1="206.55" y1="146.664" x2="192.527" y2="87.6588" gradientUnits="userSpaceOnUse">
<stop offset="0.39" stop-color="#B7CDF5"/>
<stop offset="1" stop-color="#EBF2FF"/>
</linearGradient>
<linearGradient id="paint21_linear_302_14" x1="246.24" y1="21.0206" x2="167.224" y2="122.73" gradientUnits="userSpaceOnUse">
<stop stop-color="#B7CDF5"/>
<stop offset="1" stop-color="#EBF2FF"/>
</linearGradient>
<linearGradient id="paint22_linear_302_14" x1="211.87" y1="81.4434" x2="235.096" y2="42.6876" gradientUnits="userSpaceOnUse">
<stop stop-color="#B7CDF5"/>
<stop offset="1" stop-color="#EBF2FF"/>
</linearGradient>
</defs>
</svg>
