<svg width="1305" height="233" viewBox="0 0 1305 233" fill="none" xmlns="http://www.w3.org/2000/svg">
<path opacity="0.5" d="M1223 140L880.567 198.048C879.395 198.246 878.917 196.599 880.013 196.14L1088.33 108.782C1088.73 108.614 1088.97 108.207 1088.94 107.774L1081.1 16.6189C1081.04 16.023 1080.49 15.6051 1079.9 15.7248L736 86L447.187 166.668C446.575 166.839 445.961 166.404 445.92 165.77L439.537 67.0702C439.514 66.7169 439.68 66.3778 439.972 66.1787L522.515 10.0501C523.432 9.42596 522.802 7.99429 521.722 8.25011L470 20.5L216.76 90.789C216.314 90.9127 215.842 90.7145 215.618 90.3097L170.044 7.98309C169.754 7.45966 169.073 7.30609 168.587 7.65465L113.393 47.218C113.145 47.3961 112.829 47.4508 112.535 47.3664L20.3238 20.8803C19.6706 20.6926 19.0245 21.1973 19.0484 21.8765L23.454 147.193C23.4772 147.851 24.12 148.308 24.7495 148.113L206.289 91.8403C207.191 91.5609 207.239 90.3028 206.361 89.9554L113 53" stroke="#61F0FF" stroke-width="2" stroke-dasharray="3 3"/>
<path opacity="0.5" d="M729 91L875.5 197.5" stroke="#61F0FF" stroke-width="2" stroke-dasharray="3 3"/>
<path opacity="0.5" d="M1287 61L1227.89 138.986C1227.65 139.299 1227.25 139.444 1226.87 139.357L1097.05 109.919C1096.03 109.687 1096.01 108.234 1097.03 107.975L1281.5 61" stroke="#61F0FF" stroke-width="2" stroke-dasharray="3 3"/>
<circle cx="28.5" cy="28.5" r="28" transform="matrix(-1 0 0 1 1258 107)" fill="#61F0FF" fill-opacity="0.3" stroke="#61F0FF"/>
<circle cx="12.5" cy="12.5" r="12" transform="matrix(-1 0 0 1 1242 123)" fill="#61F0FF" stroke="#61F0FF"/>
<g opacity="0.7">
<circle cx="9.5" cy="9.5" r="9" transform="matrix(-1 0 0 1 1091 5)" fill="#61F0FF" fill-opacity="0.3" stroke="#61F0FF"/>
<circle cx="4.16667" cy="4.16667" r="3.66667" transform="matrix(-1 0 0 1 1085.67 10.3333)" fill="#61F0FF" stroke="#61F0FF"/>
</g>
<circle cx="18.5" cy="18.5" r="18" transform="matrix(-1 0 0 1 1109 88)" fill="#FFC152" fill-opacity="0.3" stroke="#FFC152"/>
<circle cx="8.11403" cy="8.11403" r="7.61403" transform="matrix(-1 0 0 1 1098.61 98.386)" fill="#FFC152" stroke="#FFC152"/>
<circle cx="17" cy="17" r="16.5" transform="matrix(-1 0 0 1 1305 42.5)" fill="#61F0FF" fill-opacity="0.3" stroke="#61F0FF"/>
<circle cx="7.45614" cy="7.45614" r="6.95614" transform="matrix(-1 0 0 1 1295.46 52.0439)" fill="#61F0FF" stroke="#61F0FF"/>
<circle cx="36.5" cy="36.5" r="36" transform="matrix(-1 0 0 1 906 160)" fill="#61F0FF" fill-opacity="0.3" stroke="#61F0FF"/>
<circle cx="16.0088" cy="16.0088" r="15.5088" transform="matrix(-1 0 0 1 885.509 180.491)" fill="#61F0FF" stroke="#61F0FF"/>
<circle cx="16.5" cy="16.5" r="16" transform="matrix(-1 0 0 1 752 70)" fill="#61F0FF" fill-opacity="0.3" stroke="#61F0FF"/>
<circle cx="7.23684" cy="7.23684" r="6.73684" transform="matrix(-1 0 0 1 742.736 79.2632)" fill="#61F0FF" stroke="#61F0FF"/>
<circle cx="28.5" cy="28.5" r="28" transform="matrix(-1 0 0 1 479 136)" fill="#61F0FF" fill-opacity="0.3" stroke="#61F0FF"/>
<circle cx="12.5" cy="12.5" r="12" transform="matrix(-1 0 0 1 463 152)" fill="#61F0FF" stroke="#61F0FF"/>
<circle cx="13.5" cy="13.5" r="13" transform="matrix(-1 0 0 1 456 54)" fill="#FFC152" fill-opacity="0.3" stroke="#FFC152"/>
<circle cx="5.92105" cy="5.92105" r="5.42105" transform="matrix(-1 0 0 1 448.421 61.5789)" fill="#FFC152" stroke="#FFC152"/>
<circle cx="20.5" cy="20.5" r="20" transform="matrix(-1 0 0 1 238 69)" fill="#61F0FF" fill-opacity="0.3" stroke="#61F0FF"/>
<circle cx="8.99123" cy="8.99123" r="8.49123" transform="matrix(-1 0 0 1 226.491 80.5088)" fill="#61F0FF" stroke="#61F0FF"/>
<circle cx="14.5" cy="14.5" r="14" transform="matrix(-1 0 0 1 129 33)" fill="#61F0FF" fill-opacity="0.3" stroke="#61F0FF"/>
<circle cx="6.35965" cy="6.35965" r="5.85965" transform="matrix(-1 0 0 1 120.859 41.1404)" fill="#61F0FF" stroke="#61F0FF"/>
<g opacity="0.7">
<circle cx="7.5" cy="7.5" r="7" transform="matrix(-1 0 0 1 179 0)" fill="#61F0FF" fill-opacity="0.3" stroke="#61F0FF"/>
<circle cx="3.28947" cy="3.28947" r="2.78947" transform="matrix(-1 0 0 1 174.789 4.21053)" fill="#61F0FF" stroke="#61F0FF"/>
</g>
<g opacity="0.7">
<circle cx="7.5" cy="7.5" r="7" transform="matrix(-1 0 0 1 29 14)" fill="#61F0FF" fill-opacity="0.3" stroke="#61F0FF"/>
<circle cx="3.28947" cy="3.28947" r="2.78947" transform="matrix(-1 0 0 1 24.7891 18.2105)" fill="#61F0FF" stroke="#61F0FF"/>
</g>
<circle cx="25.5" cy="25.5" r="25" transform="matrix(-1 0 0 1 51 118)" fill="#FFC152" fill-opacity="0.3" stroke="#FFC152"/>
<circle cx="11.1842" cy="11.1842" r="10.6842" transform="matrix(-1 0 0 1 36.6836 132.316)" fill="#FFC152" stroke="#FFC152"/>
<g opacity="0.7">
<circle cx="8.5" cy="8.5" r="8" transform="matrix(-1 0 0 1 480 10)" fill="#FFC152" fill-opacity="0.3" stroke="#FFC152"/>
<circle cx="3.72807" cy="3.72807" r="3.22807" transform="matrix(-1 0 0 1 475.229 14.7719)" fill="#FFC152" stroke="#FFC152"/>
</g>
<g opacity="0.7">
<circle cx="4.5" cy="4.5" r="4" transform="matrix(-1 0 0 1 533 2)" fill="#61F0FF" fill-opacity="0.3" stroke="#61F0FF"/>
<circle cx="1.97368" cy="1.97368" r="1.47368" transform="matrix(-1 0 0 1 530.474 4.52632)" fill="#61F0FF" stroke="#61F0FF"/>
</g>
</svg>
