<svg width="238" height="54" viewBox="0 0 238 54" fill="none" xmlns="http://www.w3.org/2000/svg">
<g id="Layer_1" clip-path="url(#clip0_24_5383)">
<path id="Subtract" fill-rule="evenodd" clip-rule="evenodd" d="M67.9294 13.3524C68.9874 11.5395 67.8605 9.09177 65.9609 9.09177V9.1116H26.5448C26.141 9.11994 25.7466 9.23525 25.401 9.44595C25.0555 9.65666 24.7711 9.95532 24.5764 10.3119L22.8293 13.288H61.864L21.4859 15.5745L19.04 19.7435H56.7362L17.7482 21.9532L15.4107 25.9212H52.9641L14.1139 28.1235L11.5722 32.4561H49.7432L10.2582 34.6881L7.73611 38.986H46.0499L6.40986 41.2328L5.8144 42.2472C4.75635 44.0601 5.88329 46.5103 7.78287 46.5103H47.199C47.6029 46.5015 47.9975 46.3857 48.343 46.1746C48.6885 45.9635 48.9728 45.6644 49.1674 45.3075L67.9294 13.3524Z" fill="#FFC152"/>
<path id="Vector" d="M47.0464 47.8024H46.7757H46.7561C46.3451 47.7801 45.9367 47.7504 45.5405 47.7181L41.7758 47.3957C40.7144 47.5263 39.6464 47.595 38.5771 47.6015C33.8281 47.6015 30.7303 45.806 28.5354 41.776C28.4641 41.647 28.3976 41.5156 28.3312 41.3817L28.2795 41.275C28.2278 41.1684 28.1786 41.0642 28.1319 40.9576C26.3357 36.9424 26.7958 32.0617 28.2967 29.2593C27.6523 28.9104 27.0317 28.5185 26.439 28.0863L26.3873 28.0491C23.383 25.9237 20.6099 22.7344 16.8353 17.0675C15.7256 15.4009 14.8127 13.9253 14.1287 12.6779C13.8359 12.1472 13.5824 11.6561 13.3758 11.2196C13.2921 11.046 13.2207 10.8898 13.1592 10.7435C12.8965 10.2204 12.7243 9.6559 12.6499 9.07441L12.6056 7.3632L14.1927 7.9708L14.3797 8.0452L14.483 8.08736C17.4357 9.31001 23.3633 13.2954 27.0615 16.2318L27.1526 16.3037C27.9547 16.9435 28.6092 17.504 29.1038 17.9727C28.688 17.0378 28.2771 16.073 27.8883 15.0934C25.344 8.68505 26.2372 3.94077 26.2766 3.74236L26.7294 1.51035L28.2475 3.20916C28.2746 3.23892 30.8435 6.11822 33.7912 9.83082L34.4359 10.6517C34.5343 10.7757 34.6327 10.8997 34.7287 11.0262C35.024 11.4032 35.3192 11.7867 35.6145 12.1769C35.7548 12.3604 35.895 12.5564 36.0402 12.7746C36.1854 12.9928 36.3207 13.2012 36.4511 13.4219C36.5299 13.5509 36.6061 13.6699 36.6824 13.8162C36.7587 13.9625 36.8497 14.1237 36.9285 14.28L36.958 14.3345C37.0269 14.4685 37.0958 14.6073 37.1647 14.7487C37.3689 15.1678 37.5658 15.6117 37.7503 16.0631C37.7921 16.1623 37.8315 16.2615 37.8709 16.3607C37.9496 16.5591 38.0234 16.76 38.0973 16.9584C38.1711 17.1568 38.24 17.3602 38.3089 17.561C39.1483 20.142 39.7327 22.8003 40.0534 25.4971L40.1149 25.517H40.1641C43.016 26.2957 45.2403 27.997 46.4189 30.3232C49.0395 35.4866 51.1605 38.6437 52.1915 40.0648C52.8289 40.9387 53.1058 42.0275 52.9641 43.1028V43.1301L52.5409 45.4712L52.5261 45.5282C52.408 45.9375 52.0512 47.1824 50.5404 47.3535C50.4641 47.3535 50.3879 47.3535 50.314 47.3535C50.0434 47.3546 49.7758 47.2971 49.5291 47.1849C48.7723 47.6136 47.9142 47.827 47.0464 47.8024Z" fill="#01051D"/>
<path id="Vector_2" d="M27.3912 3.96557C27.3912 3.96557 29.9281 6.80768 32.8808 10.5352C33.0949 10.8005 33.3089 11.0733 33.523 11.3486L33.8133 11.7206C34.1061 12.0951 34.3965 12.477 34.6893 12.8614C34.8246 13.0375 34.9526 13.221 35.0805 13.407C35.2085 13.593 35.3266 13.7989 35.457 14.0022C35.5308 14.1237 35.6022 14.2502 35.6711 14.3693C35.74 14.4883 35.8286 14.6569 35.9172 14.8008L35.9442 14.8504C36.0106 14.9794 36.0746 15.0984 36.1411 15.2422C36.3379 15.6465 36.5225 16.0631 36.6972 16.4822L36.8103 16.765C36.8841 16.9559 36.9555 17.1469 37.0269 17.3379C37.0982 17.5288 37.1647 17.7223 37.2286 17.9157C38.1235 20.6777 38.7208 23.5288 39.0101 26.4197L39.202 26.4594L39.3595 26.4941C39.4801 26.5214 39.6056 26.5487 39.7212 26.5809L39.7803 26.5958L39.8467 26.6131C42.199 27.2555 44.2757 28.6269 45.4002 30.8292C48.0503 36.0496 50.2033 39.2612 51.2687 40.7245C51.7338 41.366 51.934 42.1643 51.8273 42.9515L51.4188 45.2083C51.254 45.7812 51.0251 46.1408 50.4001 46.2004H50.3017C50.1373 46.193 49.9783 46.1393 49.8426 46.0455C49.7069 45.9517 49.6 45.8215 49.534 45.6696C49.534 45.6696 48.9607 46.6368 47.0439 46.6368H46.8175C46.4214 46.6145 46.0277 46.5872 45.634 46.555L41.7561 46.2251C40.7038 46.3571 39.6448 46.4275 38.5844 46.436C34.5294 46.436 31.6825 45.1339 29.5393 41.2031C29.4753 41.0865 29.4163 40.97 29.3572 40.8509L29.3105 40.7542C29.2637 40.66 29.2219 40.5657 29.1776 40.469C27.4011 36.501 28.0826 31.5409 29.6156 29.2692C29.7263 29.0857 29.8469 28.9096 29.9724 28.741L29.6008 28.5748C28.8996 28.2946 28.2844 27.9598 27.091 27.1191C24.441 25.2516 21.7589 22.3649 17.7925 16.4103C16.5622 14.5726 15.7207 13.1689 15.1301 12.1C14.8275 11.5495 14.5913 11.0907 14.4092 10.7088C14.3329 10.5451 14.2665 10.3987 14.2074 10.2648C13.8014 9.3373 13.794 9.02481 13.794 9.02481L13.9613 9.0893L14.013 9.11162L14.0573 9.12898C16.9657 10.3368 22.8293 14.2973 26.3602 17.1122L26.4464 17.1816C27.2682 17.8388 27.9596 18.4216 28.4493 18.9176L28.4665 18.935C28.5403 19.0044 28.6117 19.0763 28.683 19.1483L28.7691 19.2351L28.9119 19.3839L29.0128 19.4905L29.1382 19.6244C29.1751 19.6616 29.2096 19.7013 29.244 19.7385L29.3622 19.87L29.468 19.989C29.5049 20.0312 29.5442 20.0733 29.5811 20.118C29.6181 20.1626 29.6525 20.1998 29.6894 20.242L29.7977 20.3684L29.9059 20.4974L30.0093 20.6214L30.12 20.7553L30.2184 20.8744L30.3316 21.0157C30.3636 21.0529 30.3931 21.0926 30.4227 21.1298L30.5408 21.2786L30.6244 21.3828L30.7475 21.5415C30.7721 21.5737 30.7967 21.6035 30.8188 21.6357L30.9517 21.8069L31.0083 21.8813L31.1534 22.0747L31.1904 22.1193C32.1746 23.4089 33.0432 24.6812 33.897 25.6831C33.9757 25.6831 34.0865 25.6683 34.2218 25.6633C32.2449 22.1038 30.4824 18.4275 28.9438 14.6545C26.4833 8.49409 27.3863 3.96061 27.3863 3.96061M25.1545 3.51173C25.1152 3.71013 24.2761 8.15681 26.3553 14.2254C22.6546 11.4304 17.6818 8.16673 14.9185 7.02096L14.8718 7.00112H14.8595L14.8029 6.97632L14.5937 6.89448L13.0436 6.30423C12.8653 6.23619 12.6732 6.21342 12.4841 6.23792C12.2951 6.26241 12.1149 6.33342 11.9596 6.44468C11.8042 6.55595 11.6784 6.70405 11.5932 6.87591C11.508 7.04778 11.4662 7.23812 11.4712 7.43016C11.4712 7.43016 12.9476 13.1714 15.9003 17.7049C19.7536 23.4883 22.6054 26.7619 25.7426 28.9816L25.7771 29.0088H25.7918C26.1782 29.2816 26.5177 29.5048 26.8327 29.7132C26.2964 31.1098 25.9753 32.581 25.8804 34.0755C25.6893 36.5862 26.1118 39.1059 27.1107 41.4139C27.1599 41.528 27.2141 41.6446 27.2682 41.7562C27.2854 41.7884 27.3002 41.8206 27.3174 41.8553V41.8727C27.3937 42.0289 27.4675 42.1728 27.5389 42.3017C28.8011 44.6181 30.3415 46.2549 32.2509 47.304C33.993 48.2588 36.0623 48.725 38.5795 48.725C39.6487 48.719 40.7166 48.6519 41.7782 48.5241L45.4322 48.8366C45.8358 48.8713 46.2565 48.8986 46.6822 48.9234H46.7216H47.0341C47.9182 48.9481 48.7973 48.7824 49.6128 48.4373C49.8363 48.4887 50.065 48.5145 50.2943 48.5142C50.4128 48.5141 50.5311 48.5067 50.6487 48.4919C51.6821 48.3753 53.033 47.8223 53.6014 45.8457L53.6334 45.7341L53.6555 45.62L54.0615 43.3632V43.3086V43.2516C54.241 41.8839 53.8883 40.4991 53.0773 39.3877C52.066 37.9939 49.9843 34.8939 47.3982 29.8C46.1679 27.3671 43.9239 25.5368 41.0524 24.5919C40.7105 22.0716 40.1414 19.5879 39.3521 17.1717C39.2783 16.9584 39.2045 16.7476 39.1307 16.5467C39.0569 16.3458 38.9757 16.1276 38.8846 15.9218L38.7591 15.6093C38.5647 15.1331 38.358 14.6669 38.1415 14.2229C38.0628 14.0617 37.989 13.9179 37.9201 13.7815L37.9004 13.7443C37.8143 13.5806 37.7257 13.4145 37.6322 13.2483C37.5387 13.0821 37.4698 12.9631 37.3861 12.8242C37.2459 12.5886 37.0958 12.3555 36.9432 12.1298C36.7907 11.9041 36.6332 11.6784 36.4782 11.4751C36.1977 11.1056 35.9073 10.7311 35.5874 10.3169L35.2922 9.93747C35.0732 9.65723 34.8542 9.38194 34.6401 9.11162C31.6726 5.37422 29.1604 2.55692 29.0546 2.44036L27.1624 0.270339C27.0585 0.154179 26.9247 0.0694074 26.7758 0.0255007C26.6269 -0.018406 26.4688 -0.0197152 26.3192 0.0217089C26.1696 0.063133 26.0344 0.145659 25.9287 0.260076C25.823 0.374494 25.7509 0.516288 25.7205 0.669619L25.1545 3.51173Z" fill="#01051D"/>
<path id="Vector_3" d="M39.0322 26.7371C39.0322 26.7371 38.3482 17.6652 34.6967 12.849C31.0452 8.03279 27.3887 3.95316 27.3887 3.95316C27.3887 3.95316 26.4956 8.49903 28.9438 14.6544C30.599 18.71 32.5116 22.654 34.6696 26.4618L39.0322 26.7371Z" fill="url(#paint0_linear_24_5383)"/>
<path id="Vector_4" d="M33.9068 12.9184C37.3221 17.4147 38.1415 25.641 38.2326 26.6851L39.0347 26.7347C39.0347 26.7347 38.3507 17.6627 34.6992 12.8465C31.0477 8.03032 27.3912 3.95068 27.3912 3.95068C27.3912 3.95068 27.3765 4.035 27.3543 4.19869C28.6806 5.98926 31.3257 9.52329 33.9068 12.9184Z" fill="url(#paint1_linear_24_5383)"/>
<path id="Vector_5" d="M33.7789 25.7029C34.6262 25.6297 35.4782 25.6297 36.3256 25.7029C37.3369 25.8393 38.048 25.9832 38.9018 26.5561L36.5003 26.7297L34.3571 26.7073L33.646 25.8468L33.7789 25.7029Z" fill="#01051D"/>
<path id="Vector_6" d="M51.2687 40.7418C50.2033 39.2711 48.0503 36.067 45.4003 30.8465C43.1218 26.3577 36.9112 25.326 32.4773 26.8388C28.0433 28.3516 26.8794 36.3323 29.5418 41.2229C32.2041 46.1135 35.9565 46.927 41.7586 46.245L45.6365 46.5748C46.0302 46.6071 46.4239 46.6343 46.82 46.6566C48.9164 46.7385 49.5267 45.6944 49.5267 45.6944C49.5982 45.8624 49.7203 46.0036 49.8757 46.0979C50.0311 46.1922 50.212 46.235 50.3928 46.2202C51.0178 46.1483 51.2466 45.7887 51.4115 45.2282L51.8199 42.9713C51.9294 42.1843 51.7319 41.3851 51.2687 40.7418Z" fill="#EBF2FF"/>
<path id="Vector_7" d="M45.0336 31.4492C43.8353 28.297 40.046 26.7024 39.8664 26.623L39.7901 26.6032L39.7384 26.5883C38.03 26.151 36.2514 26.0666 34.5097 26.3403C35.3906 27.1091 36.8866 27.4291 37.7823 27.682C39.3226 28.1185 41.9013 29.2791 43.1956 32.2651C45.2009 36.8779 47.5508 40.6773 49.192 42.0661L50.6339 41.6197C48.9902 40.5955 46.2615 34.6806 45.0336 31.4492Z" fill="url(#paint2_linear_24_5383)"/>
<path id="Vector_8" d="M49.1871 42.0736C47.5459 40.6947 45.196 36.8854 43.1906 32.2626C41.8914 29.2866 39.3128 28.116 37.7774 27.6795C36.8817 27.4315 35.3857 27.1066 34.5048 26.3378C32.7331 24.5423 30.9123 21.296 28.4517 18.9201C25.7869 16.3334 17.2585 10.3541 13.7916 9.0372C13.7916 9.0372 13.826 10.4657 17.79 16.4202C21.754 22.3748 24.4336 25.2615 27.0886 27.129C27.9908 27.7706 28.9574 28.3151 29.9724 28.7534C30.532 28.7344 31.0922 28.7468 31.6505 28.7906C34.7754 28.9419 37.5362 30.0306 39.3005 31.3723C41.1188 32.7462 41.8841 35.199 43.326 37.7013C45.0336 40.6575 48.1733 42.3761 48.1733 42.3761L50.6339 41.6321L49.1871 42.0736Z" fill="url(#paint3_linear_24_5383)"/>
<path id="Vector_9" d="M44.9647 41.0096C41.3477 41.0766 37.049 40.1144 34.9206 38.0336C33.6428 36.7579 32.8711 35.0558 32.7504 33.2472L30.6933 33.9639C30.4793 38.7404 31.9236 42.1182 34.7902 43.8716C37.6568 45.625 41.7586 46.2474 41.7586 46.2474L45.6365 46.5773C46.0302 46.6095 46.4239 46.6368 46.82 46.6591C43.5573 45.1364 44.9647 41.0096 44.9647 41.0096Z" fill="url(#paint4_linear_24_5383)"/>
<path id="Vector_10" d="M34.9157 44.0625C33.4147 43.2367 31.2248 40.4764 30.2209 36.749C28.9119 31.8509 29.9355 28.86 29.9355 28.86C28.0851 31.0102 27.1772 36.8779 29.5418 41.2155C32.2041 46.0986 35.9565 46.9195 41.7586 46.2375C41.7586 46.2375 37.8881 45.6994 34.9157 44.0625Z" fill="url(#paint5_linear_24_5383)"/>
<path id="Vector_11" d="M34.773 26.6206C32.9251 24.8845 31.0304 21.4125 28.4518 18.9201C25.7869 16.3334 17.2586 10.3541 13.7916 9.0372C13.7906 9.05372 13.7906 9.07028 13.7916 9.0868C17.2807 10.4409 25.2333 17.1741 27.8858 19.7509C30.3464 22.1342 32.2066 25.4549 33.9758 27.2654C34.2209 27.0257 34.4878 26.8098 34.773 26.6206Z" fill="url(#paint6_linear_24_5383)"/>
<path id="Vector_12" d="M25.4695 18.9945C20.6172 13.9228 14.3034 9.25544 14.2837 9.24056C14.1114 9.16368 13.9466 9.09672 13.7916 9.0372C13.7916 9.0372 13.826 10.4682 17.79 16.4202C21.754 22.3723 24.4336 25.2615 27.0886 27.129C28.469 28.1036 29.0767 28.3987 29.9355 28.7162C29.8887 28.2946 31.3774 25.1697 25.4695 18.9945Z" fill="url(#paint7_linear_24_5383)"/>
<path id="Vector_13" d="M29.0201 23.2452C28.003 21.7312 26.8437 20.3193 25.5581 19.0292C25.0003 18.4605 24.4311 17.9041 23.8504 17.3601C21.8254 15.4381 19.7216 13.6029 17.6006 11.7875C17.2413 11.4775 16.8771 11.1675 16.513 10.86C16.5023 10.849 16.4959 10.8344 16.495 10.8191C16.494 10.8037 16.4986 10.7885 16.5078 10.7762C16.517 10.7639 16.5303 10.7553 16.5453 10.7521C16.5602 10.7488 16.5758 10.751 16.5893 10.7583C16.9854 11.0237 17.3766 11.299 17.7654 11.5743C19.7169 12.9811 21.5814 14.5066 23.3485 16.1425C24.5341 17.2314 25.654 18.3908 26.7023 19.6145C27.6335 20.7367 28.4374 21.9604 29.0989 23.2626C29.1678 23.3866 29.1161 23.3841 29.0201 23.2452Z" fill="#01051D"/>
<path id="Vector_14" d="M51.2687 40.7418C50.2033 39.2711 48.0503 36.067 45.4003 30.8465C43.1218 26.3577 36.9112 25.326 32.4773 26.8388C28.0433 28.3516 26.8794 36.3323 29.5418 41.2229C32.2041 46.1135 35.9565 46.927 41.7586 46.245L45.6365 46.5748C46.0302 46.6071 46.4239 46.6343 46.82 46.6566C48.9164 46.7385 49.5267 45.6944 49.5267 45.6944C49.5982 45.8624 49.7203 46.0036 49.8757 46.0979C50.0311 46.1922 50.212 46.235 50.3928 46.2202C51.0178 46.1483 51.2466 45.7887 51.4115 45.2282L51.8199 42.9713C51.9294 42.1843 51.7319 41.3851 51.2687 40.7418Z" fill="url(#paint8_linear_24_5383)"/>
<path id="Vector_15" d="M36.0377 34.9906C35.9993 34.8468 36.0143 34.6938 36.08 34.5604C36.1457 34.427 36.2576 34.3225 36.3945 34.2665C36.8733 34.0627 37.3884 33.9601 37.9081 33.9648C38.4278 33.9694 38.941 34.0814 39.4161 34.2938C40.4594 34.7898 41.1754 35.7991 41.5593 36.4836C41.6057 36.5665 41.6323 36.6591 41.6369 36.7541C41.6415 36.8492 41.624 36.944 41.5857 37.031C41.5474 37.118 41.4895 37.1948 41.4166 37.2552C41.3436 37.3156 41.2577 37.3579 41.1656 37.3789C40.4102 37.55 39.1971 37.6839 38.0628 37.1656C36.6701 36.5134 36.1977 35.5635 36.0377 34.9906Z" fill="#01051D"/>
<path id="Vector_16" d="M48.1905 42.7928C48.1449 42.7133 48.1157 42.6253 48.1047 42.5341C48.0936 42.4429 48.101 42.3505 48.1262 42.2622C48.1515 42.174 48.1942 42.0918 48.2518 42.0206C48.3093 41.9494 48.3806 41.8907 48.4612 41.8479C48.8183 41.6607 49.2058 41.5397 49.6054 41.4908C50.0081 41.423 50.4213 41.5116 50.7618 41.7388C50.8767 41.82 50.9636 41.9353 51.0104 42.0687C51.0571 42.2021 51.0614 42.3468 51.0227 42.4828C50.8764 43.013 50.5947 43.4953 50.2057 43.8815C50.1167 43.9728 50.004 44.0373 49.8806 44.0675C49.7571 44.0977 49.6277 44.0926 49.5069 44.0526C49.1625 43.9187 48.663 43.6112 48.1905 42.7928Z" fill="#01051D"/>
<path id="Vector_17" d="M29.6525 32.3048C29.6525 32.3048 29.9355 41.337 34.9305 44.0179C34.9485 44.0318 34.9611 44.0517 34.966 44.0741C34.9709 44.0964 34.9677 44.1198 34.9571 44.1401C34.9464 44.1603 34.929 44.1761 34.9079 44.1846C34.8868 44.1931 34.8634 44.1938 34.8419 44.1866C33.5175 43.5353 32.3939 42.5332 31.5915 41.2874C29.5467 38.1973 29.4729 32.3023 29.4729 32.3023L29.6525 32.3048Z" fill="#01051D"/>
<path id="Vector_18" d="M50.1197 41.766C48.6218 39.6012 47.3347 37.2956 46.2762 34.8815C46.1064 34.4797 46.2762 34.5938 46.4189 34.8815C46.665 35.3775 47.2482 36.434 47.5705 37.0044C48.5234 38.6937 49.564 40.3311 50.688 41.9099L50.0138 41.6619L50.1197 41.766Z" fill="#01051D"/>
<path id="Vector_19" d="M48.3824 42.763C47.2287 42.0915 46.168 41.2692 45.228 40.3177C45.0828 40.1515 44.854 39.906 44.7359 39.7324C44.3276 39.2361 43.9691 38.7003 43.6655 38.1328C43.4195 37.6938 43.2005 37.2202 42.9692 36.7787C42.5779 36.0347 42.1769 35.2907 41.7586 34.5467C41.4264 33.9614 41.4977 33.9614 41.8644 34.5467C42.3073 35.2485 42.7329 35.9628 43.1488 36.682C43.3948 37.111 43.6409 37.5748 43.9017 37.9989C44.1581 38.4268 44.446 38.8346 44.7629 39.219L45.1296 39.6407L45.5208 40.0424C46.0546 40.5605 46.6354 41.0271 47.2555 41.4362C47.5606 41.6321 48.3086 42.1132 48.6334 42.2695L49.1428 42.7655L48.3824 42.763Z" fill="#01051D"/>
<path id="Vector_20" d="M37.8093 35.5982C38.1626 35.5982 38.4491 35.3095 38.4491 34.9534C38.4491 34.5973 38.1626 34.3086 37.8093 34.3086C37.456 34.3086 37.1696 34.5973 37.1696 34.9534C37.1696 35.3095 37.456 35.5982 37.8093 35.5982Z" fill="#EBF2FF"/>
<path id="Vector_21" d="M35.5874 38.5891C37.0908 39.6754 39.9254 40.3971 41.2664 40.6922C41.2834 40.6945 41.2988 40.7035 41.3092 40.7172C41.3195 40.7309 41.3241 40.7482 41.3218 40.7653C41.3195 40.7824 41.3106 40.7979 41.297 40.8084C41.2834 40.8189 41.2662 40.8235 41.2492 40.8212C39.9402 40.7418 37.2089 40.412 35.3241 39.0405C34.2647 38.2552 33.4571 37.1739 33.0013 35.9305C32.9945 35.9161 32.9936 35.8995 32.9989 35.8843C33.0042 35.8692 33.0153 35.8569 33.0296 35.85C33.044 35.843 33.0605 35.8422 33.0755 35.8475C33.0905 35.8529 33.1027 35.864 33.1096 35.8785C33.7438 36.9427 34.5869 37.8651 35.5874 38.5891Z" fill="#01051D"/>
<path id="Vector_22" d="M34.1996 26.0303C34.1996 26.0303 34.2169 26.4271 36.1337 27.2133C37.9619 27.9573 38.3974 27.5109 40.6193 29.0758C40.7251 29.1477 40.8408 29.2072 40.6513 29.051C39.8789 28.4019 38.9972 27.8978 38.048 27.5629C36.3404 26.9901 35.1962 26.4965 34.773 26.0253L34.1996 26.0303Z" fill="#01051D"/>
<path id="Vector_23" d="M40.3265 42.4654C40.1445 42.4803 39.9599 42.5076 39.7803 42.5398C39.6007 42.5721 39.5785 42.6018 39.7803 42.5795C41.0673 42.4674 42.3635 42.6175 43.5917 43.0209C43.6263 43.0319 43.6638 43.0287 43.696 43.012C43.7283 42.9952 43.7527 42.9664 43.764 42.9317C43.7695 42.9133 43.7713 42.8939 43.7692 42.8748C43.7671 42.8557 43.7611 42.8372 43.7517 42.8205C43.7423 42.8038 43.7295 42.7892 43.7143 42.7776C43.6991 42.766 43.6816 42.7577 43.6631 42.7531C42.5734 42.4775 41.4468 42.3804 40.3265 42.4654Z" fill="#01051D"/>
<path id="Vector (Stroke)" fill-rule="evenodd" clip-rule="evenodd" d="M40.3173 42.3417C41.4507 42.2557 42.5905 42.354 43.693 42.6328C43.7275 42.6414 43.76 42.657 43.7884 42.6786C43.817 42.7003 43.8409 42.7277 43.8586 42.7591C43.8763 42.7905 43.8875 42.8252 43.8915 42.8611C43.8954 42.897 43.8921 42.9333 43.8816 42.9678L43.8809 42.9702L43.8809 42.9702C43.8595 43.036 43.8133 43.0906 43.7523 43.1222C43.6913 43.1538 43.6203 43.16 43.5549 43.1392L43.5536 43.1388L43.5536 43.1388C42.3415 42.7407 41.0623 42.5924 39.7923 42.7029C39.7409 42.7085 39.6994 42.7114 39.6691 42.7112C39.6554 42.7111 39.6361 42.7105 39.6173 42.7062C39.6101 42.7046 39.5878 42.6994 39.5656 42.6829C39.5533 42.6738 39.5351 42.6569 39.5237 42.6293C39.5113 42.5992 39.5118 42.5682 39.5201 42.5421C39.5333 42.5008 39.5632 42.4797 39.5696 42.4752C39.5697 42.4751 39.5698 42.4751 39.5699 42.475C39.5808 42.4673 39.5914 42.4621 39.5981 42.4591C39.6122 42.4528 39.6279 42.4477 39.6423 42.4435C39.6721 42.4349 39.7116 42.4262 39.7587 42.4177C39.9407 42.3851 40.1293 42.3571 40.3166 42.3418L40.3173 42.3417L40.3173 42.3417ZM43.2132 42.7765C43.3528 42.8155 43.4918 42.8577 43.6298 42.903L43.5917 43.0209L43.6286 42.9026C43.6323 42.9038 43.6363 42.9034 43.6398 42.9017C43.6428 42.9001 43.6453 42.8974 43.6466 42.8942C43.647 42.8923 43.6471 42.8904 43.6469 42.8885C43.6467 42.8861 43.6459 42.8838 43.6448 42.8818C43.6436 42.8798 43.6421 42.878 43.6402 42.8765C43.6383 42.8751 43.6362 42.8741 43.6339 42.8735L43.6331 42.8733C43.4937 42.8381 43.3537 42.8058 43.2132 42.7765Z" fill="#01051D"/>
<path id="Vector_24" d="M39.1159 43.8592C38.8699 43.9088 38.6238 43.9683 38.3777 44.0377C38.3236 44.0551 38.3359 44.0873 38.3777 44.0774C40.0411 43.6831 41.8029 43.7625 43.4736 44.0774C43.4914 44.081 43.5097 44.0811 43.5275 44.0775C43.5453 44.074 43.5622 44.067 43.5773 44.0568C43.5924 44.0467 43.6053 44.0337 43.6154 44.0185C43.6255 44.0033 43.6325 43.9862 43.636 43.9683C43.6395 43.9494 43.6393 43.9299 43.6352 43.9111C43.6311 43.8923 43.6234 43.8745 43.6123 43.8588C43.6013 43.8431 43.5873 43.8297 43.5711 43.8196C43.5549 43.8094 43.5368 43.8027 43.5179 43.7997C42.0569 43.5816 40.5706 43.6017 39.1159 43.8592Z" fill="#01051D"/>
<path id="Vector (Stroke)_2" fill-rule="evenodd" clip-rule="evenodd" d="M39.0947 43.7371C40.5623 43.4773 42.0619 43.457 43.5359 43.677L43.537 43.6772L43.537 43.6772C43.5721 43.6827 43.6058 43.6953 43.636 43.7143C43.6662 43.7332 43.6924 43.758 43.7129 43.7873C43.7334 43.8166 43.7479 43.8497 43.7554 43.8847C43.763 43.9197 43.7635 43.9559 43.757 43.9912L43.7567 43.9924L43.7567 43.9924C43.75 44.0264 43.7367 44.0587 43.7177 44.0874C43.6986 44.1161 43.6741 44.1408 43.6455 44.16C43.617 44.1792 43.585 44.1925 43.5513 44.1992C43.5179 44.2058 43.4836 44.2058 43.4503 44.1992C41.7904 43.8863 40.0472 43.8091 38.4059 44.1981M38.3778 44.0774L38.4059 44.1981C38.3815 44.2039 38.3497 44.2066 38.3167 44.1965C38.2849 44.1867 38.2321 44.1563 38.2205 44.0889C38.2096 44.0249 38.2453 43.9801 38.2664 43.9608C38.2896 43.9396 38.3168 43.9272 38.3405 43.9196L38.3425 43.9189L38.3446 43.9183C38.5936 43.8481 38.8427 43.7878 39.0918 43.7376L39.0947 43.737L39.0947 43.7371M42.7445 43.8312C42.9968 43.867 43.2476 43.9087 43.4962 43.9555L43.498 43.9559L43.4979 43.9559C43.4998 43.9563 43.5018 43.9563 43.5037 43.9559C43.5056 43.9555 43.5074 43.9548 43.5091 43.9537C43.5107 43.9526 43.512 43.9512 43.5131 43.9496C43.5141 43.9481 43.5148 43.9464 43.5152 43.9448C43.5156 43.9424 43.5155 43.9399 43.515 43.9375C43.5144 43.9349 43.5134 43.9325 43.5119 43.9303C43.5103 43.9282 43.5084 43.9263 43.5062 43.9249C43.504 43.9236 43.5016 43.9227 43.4991 43.9222C43.2482 43.8848 42.9966 43.8544 42.7445 43.8312Z" fill="#01051D"/>
<path id="Vector_25" d="M40.2109 45.1935C40.0288 45.2505 39.8492 45.3175 39.6745 45.3919C39.581 45.4315 39.6154 45.4563 39.7212 45.4191C41.0087 45.0117 42.3637 44.8667 43.7074 44.9926C43.7434 44.9947 43.7788 44.9827 43.8063 44.9592C43.8338 44.9356 43.8513 44.9023 43.855 44.8661C43.8563 44.847 43.8539 44.8278 43.8478 44.8097C43.8416 44.7916 43.832 44.7749 43.8194 44.7605C43.8068 44.7462 43.7915 44.7346 43.7744 44.7263C43.7572 44.718 43.7386 44.7133 43.7197 44.7123C42.532 44.6819 41.3473 44.8444 40.2109 45.1935Z" fill="#01051D"/>
<path id="Vector (Stroke)_3" fill-rule="evenodd" clip-rule="evenodd" d="M40.175 45.0748C41.324 44.7219 42.5219 44.5576 43.7228 44.5884L43.7257 44.5884L43.7257 44.5885C43.761 44.5902 43.7956 44.5991 43.8275 44.6145C43.8594 44.6299 43.8879 44.6516 43.9114 44.6782C43.9349 44.7049 43.9528 44.736 43.9642 44.7698C43.9756 44.8035 43.9802 44.8392 43.9777 44.8748L43.9776 44.8768L43.9773 44.8789C43.9703 44.9468 43.9376 45.0094 43.886 45.0536C43.8344 45.0978 43.7679 45.1203 43.7002 45.1163L43.6981 45.1162L43.696 45.116C42.3692 44.9918 41.0312 45.1348 39.7598 45.5369C39.7287 45.5477 39.6992 45.5554 39.6727 45.559C39.6594 45.5608 39.6439 45.562 39.6279 45.5611C39.6156 45.5603 39.5862 45.5576 39.557 45.5389C39.5405 45.5284 39.5202 45.51 39.5077 45.4809C39.4947 45.4508 39.495 45.421 39.501 45.3973C39.5111 45.3572 39.5369 45.3331 39.5462 45.3249C39.5696 45.3042 39.5997 45.289 39.6266 45.2776C39.6267 45.2776 39.6267 45.2776 39.6267 45.2776L39.6415 45.313C39.6415 45.313 39.6414 45.313 39.6414 45.313M39.6417 45.3135L39.6415 45.313C39.6485 45.3118 39.6615 45.3088 39.6807 45.302L39.6825 45.3014L39.6843 45.3008C39.8546 45.2469 40.0259 45.1976 40.1983 45.1528C40.1984 45.1528 40.1985 45.1528 40.1986 45.1528C41.1857 44.8963 42.2053 44.7892 43.2239 44.8348C42.2153 44.8548 41.2135 45.0151 40.247 45.312C40.2471 45.3119 40.2473 45.3119 40.2474 45.3118L40.2108 45.1934L40.2467 45.3121C40.2468 45.312 40.2469 45.312 40.247 45.312C40.0779 45.3649 39.9107 45.4268 39.7476 45.4954L39.7373 45.4657C39.7381 45.4633 39.7389 45.4608 39.7395 45.4581C39.7448 45.4372 39.7453 45.4098 39.7332 45.3819C39.7231 45.3584 39.7075 45.3428 39.6945 45.3333C39.6931 45.3324 39.6918 45.3315 39.6906 45.3306C39.6901 45.3303 39.6896 45.33 39.6891 45.3297C39.6657 45.3147 39.645 45.3136 39.6427 45.3135C39.6427 45.3135 39.6426 45.3135 39.6426 45.3135C39.6423 45.3135 39.642 45.3135 39.6417 45.3135ZM39.7365 45.4682L39.7212 45.4191L39.7373 45.4657C39.7371 45.4666 39.7368 45.4674 39.7365 45.4682ZM39.7365 45.4682L39.7453 45.4964C39.7376 45.4996 39.73 45.5028 39.7223 45.5061L39.7222 45.5061C39.7095 45.5115 39.7047 45.5146 39.7047 45.5145C39.7046 45.5145 39.7061 45.5134 39.7086 45.5112C39.7087 45.5112 39.7087 45.5111 39.7088 45.5111C39.7097 45.5103 39.7141 45.5065 39.7195 45.4996C39.7195 45.4996 39.7195 45.4995 39.7196 45.4995C39.7251 45.4923 39.7317 45.4819 39.7365 45.4682ZM39.7453 45.4964C39.746 45.496 39.7468 45.4957 39.7476 45.4954L39.7453 45.4964ZM43.7156 44.8688C43.7152 44.8688 43.7148 44.8688 43.7145 44.8688L43.7073 44.9926L43.7187 44.8691C43.7177 44.869 43.7166 44.8689 43.7156 44.8688ZM43.7323 44.8552C43.7324 44.8546 43.7325 44.8539 43.7326 44.8532L43.855 44.8661L43.7322 44.8574C43.7323 44.8567 43.7323 44.8559 43.7323 44.8552ZM43.7144 44.8362C43.7141 44.8362 43.7138 44.8362 43.7136 44.8362L43.7196 44.7123L43.7165 44.8363C43.7158 44.8363 43.7151 44.8362 43.7144 44.8362Z" fill="#01051D"/>
<path id="Vector_26" d="M46.6182 54C46.6707 53.9943 46.7193 53.9692 46.7546 53.9297C46.7899 53.8901 46.8094 53.8387 46.8094 53.7855C46.8094 53.7322 46.7899 53.6809 46.7546 53.6413C46.7193 53.6017 46.6707 53.5767 46.6182 53.571C46.5657 53.5767 46.5171 53.6017 46.4819 53.6413C46.4466 53.6809 46.4271 53.7322 46.4271 53.7855C46.4271 53.8387 46.4466 53.8901 46.4819 53.9297C46.5171 53.9692 46.5657 53.9943 46.6182 54Z" fill="#01051D"/>
<path id="Vector_27" d="M105.687 19.2524V41.3643C105.687 41.4899 105.662 41.6142 105.615 41.7302C105.567 41.8463 105.497 41.9516 105.409 42.0403C105.32 42.129 105.216 42.1993 105.101 42.2471C104.985 42.295 104.862 42.3194 104.737 42.3191H100.943C100.692 42.3191 100.451 42.2185 100.273 42.0394C100.096 41.8604 99.9957 41.6175 99.9957 41.3643V32.7388H87.8355V41.3643C87.8355 41.6175 87.7357 41.8604 87.558 42.0394C87.3804 42.2185 87.1394 42.3191 86.8882 42.3191H83.0915C82.8402 42.3191 82.5993 42.2185 82.4216 42.0394C82.244 41.8604 82.1442 41.6175 82.1442 41.3643V19.2524C82.1442 18.9992 82.244 18.7563 82.4216 18.5773C82.5993 18.3982 82.8402 18.2976 83.0915 18.2976H86.8882C87.1394 18.2976 87.3804 18.3982 87.558 18.5773C87.7357 18.7563 87.8355 18.9992 87.8355 19.2524V28.0664H99.9957V19.2524C99.9957 19.127 100.02 19.0029 100.068 18.887C100.115 18.7712 100.185 18.6659 100.273 18.5773C100.361 18.4886 100.466 18.4183 100.58 18.3703C100.695 18.3223 100.819 18.2976 100.943 18.2976H104.73C104.855 18.2963 104.979 18.32 105.095 18.3674C105.211 18.4148 105.317 18.4849 105.406 18.5737C105.495 18.6625 105.566 18.7682 105.614 18.8847C105.662 19.0012 105.687 19.1262 105.687 19.2524Z" fill="#EBF2FF"/>
<path id="Vector_28" d="M131.058 32.6892H115.608C115.743 34.3276 116.312 35.6115 117.316 36.5406C118.32 37.4695 119.644 37.9692 121.007 37.9344C122.903 37.9344 124.309 37.1987 125.224 35.7272C125.326 35.5626 125.468 35.4268 125.636 35.3327C125.804 35.2385 125.994 35.1891 126.186 35.189H129.995C130.188 35.1882 130.378 35.2368 130.547 35.3304C130.716 35.4239 130.859 35.5593 130.962 35.7237C131.065 35.8882 131.124 36.0763 131.135 36.2704C131.146 36.4645 131.108 36.6582 131.024 36.8333C130.297 38.3118 129.233 39.5953 127.918 40.5781C126.075 41.9868 123.815 42.687 121.139 42.6787C119.105 42.7144 117.096 42.2161 115.31 41.2328C113.604 40.2785 112.207 38.8493 111.285 37.116C110.324 35.3403 109.843 33.291 109.843 30.968C109.843 28.617 110.317 26.5503 111.265 24.768C112.168 23.0389 113.554 21.6145 115.251 20.671C117.051 19.7354 119.045 19.2437 121.07 19.2364C123.096 19.2291 125.093 19.7063 126.9 20.6288C128.567 21.5379 129.935 22.9167 130.837 24.5969C131.796 26.4036 132.279 28.4283 132.239 30.477C132.239 30.8812 132.239 31.2656 132.2 31.6302C132.178 31.9196 132.048 32.19 131.836 32.3865C131.624 32.5831 131.346 32.6912 131.058 32.6892ZM126.339 28.8352C126.351 28.1632 126.215 27.4969 125.941 26.8841C125.667 26.2714 125.261 25.7274 124.754 25.2913C123.698 24.394 122.351 23.92 120.97 23.9595C119.665 23.9209 118.393 24.3816 117.412 25.2491C116.447 26.1105 115.857 27.3059 115.643 28.8352H126.339Z" fill="#EBF2FF"/>
<path id="Vector_29" d="M144.946 20.3114C145.884 19.7752 146.923 19.444 147.997 19.3392C148.123 19.3267 148.25 19.3411 148.371 19.3813C148.491 19.4215 148.602 19.4867 148.696 19.5727C148.79 19.6587 148.865 19.7635 148.916 19.8805C148.967 19.9975 148.994 20.124 148.993 20.2519V24.396C148.993 24.6387 148.898 24.8714 148.727 25.0431C148.557 25.2147 148.326 25.3111 148.085 25.3111H147.487C145.699 25.3111 144.351 25.7352 143.442 26.5833C142.533 27.4315 142.079 28.9063 142.079 31.0077V41.404C142.079 41.6467 141.983 41.8794 141.813 42.0511C141.643 42.2227 141.412 42.3191 141.171 42.3191H137.293C137.053 42.3184 136.823 42.2217 136.653 42.0502C136.483 41.8786 136.388 41.6462 136.388 41.404V20.5296C136.388 20.2873 136.483 20.0549 136.653 19.8834C136.823 19.7118 137.053 19.6151 137.293 19.6145H141.171C141.412 19.6145 141.643 19.7109 141.813 19.8825C141.983 20.0541 142.079 20.2869 142.079 20.5296V23.1386C142.782 21.9674 143.769 20.9947 144.946 20.3114Z" fill="#EBF2FF"/>
<path id="Vector_30" d="M187.479 21.8465C189.172 23.5528 190.019 25.9361 190.021 28.9964V41.3395C190.018 41.6004 189.913 41.8496 189.728 42.033C189.544 42.2163 189.296 42.3191 189.037 42.3191H185.289C185.03 42.3191 184.782 42.2163 184.598 42.033C184.413 41.8496 184.308 41.6004 184.305 41.3395V29.7826C184.305 28.0052 183.858 26.6454 182.964 25.703C182.07 24.7605 180.85 24.2893 179.305 24.2893C177.758 24.2893 176.528 24.7605 175.614 25.703C174.701 26.6454 174.257 28.0052 174.283 29.7826V41.3395C174.28 41.6004 174.175 41.8496 173.991 42.033C173.806 42.2163 173.558 42.3191 173.299 42.3191H169.551C169.293 42.3191 169.044 42.2163 168.86 42.033C168.676 41.8496 168.57 41.6004 168.567 41.3395V29.7826C168.567 28.0052 168.119 26.6454 167.224 25.703C166.328 24.7605 165.108 24.2893 163.565 24.2893C161.992 24.2893 160.752 24.7605 159.844 25.703C158.937 26.6454 158.491 28.0052 158.506 29.7826V41.3395C158.503 41.6004 158.398 41.8496 158.213 42.033C158.029 42.2163 157.781 42.3191 157.522 42.3191H153.774C153.517 42.3159 153.272 42.2116 153.09 42.0286C152.909 41.8456 152.805 41.5983 152.802 41.3395V20.6065C152.802 20.3456 152.904 20.0951 153.086 19.9094C153.268 19.7237 153.515 19.6178 153.774 19.6145H157.522C157.783 19.6145 158.033 19.719 158.218 19.9051C158.402 20.0911 158.506 20.3434 158.506 20.6065V22.3698C159.253 21.4009 160.219 20.6262 161.323 20.1105C162.514 19.5563 163.813 19.2767 165.125 19.2921C166.766 19.2637 168.388 19.6508 169.842 20.418C171.203 21.1519 172.321 22.273 173.055 23.6421C173.808 22.3092 174.916 21.2155 176.254 20.485C177.636 19.6974 179.199 19.2879 180.786 19.2971C183.559 19.2904 185.79 20.1403 187.479 21.8465Z" fill="#EBF2FF"/>
<path id="Vector_31" d="M215.493 32.6892H199.745C199.881 34.3276 200.451 35.6115 201.453 36.5407C202.458 37.4695 203.781 37.9692 205.144 37.9344C207.093 37.9344 208.523 37.1573 209.435 35.6032C209.507 35.4783 209.61 35.3744 209.734 35.3017C209.857 35.2291 209.998 35.1903 210.141 35.189H214.642C214.776 35.1907 214.907 35.2256 215.025 35.2908C215.142 35.356 215.242 35.4495 215.315 35.5628C215.388 35.6762 215.432 35.8059 215.443 35.9406C215.455 36.0753 215.433 36.2107 215.38 36.3348C214.661 38.0213 213.511 39.4855 212.048 40.5781C210.219 41.9868 207.96 42.687 205.269 42.6787C203.231 42.7127 201.22 42.211 199.433 41.2229C197.726 40.2693 196.328 38.84 195.407 37.1061C194.444 35.3304 193.963 33.2811 193.963 30.9581C193.963 28.6071 194.438 26.5404 195.388 24.7581C196.29 23.0297 197.675 21.6054 199.371 20.6611C201.171 19.7251 203.166 19.2332 205.192 19.2259C207.217 19.2185 209.215 19.696 211.022 20.6189C212.689 21.528 214.057 22.9068 214.959 24.5869C215.918 26.3937 216.401 28.4184 216.362 30.4671C216.362 30.9953 216.339 31.4864 216.295 31.9551C216.275 32.1555 216.181 32.3412 216.033 32.4767C215.885 32.6122 215.693 32.6878 215.493 32.6892ZM210.473 28.8352C210.485 28.163 210.349 27.4964 210.075 26.8836C209.8 26.2708 209.394 25.7269 208.886 25.2913C207.831 24.394 206.485 23.9199 205.104 23.9595C203.799 23.9209 202.528 24.3816 201.546 25.2491C200.583 26.1105 199.995 27.3059 199.78 28.8352H210.473Z" fill="#EBF2FF"/>
<path id="Vector_32" d="M224.176 41.6867C222.806 41.0908 221.609 40.1517 220.7 38.9587C220.045 38.0969 219.601 37.0918 219.403 36.0248C219.383 35.9165 219.388 35.8052 219.416 35.6988C219.444 35.5925 219.495 35.4937 219.566 35.4098C219.636 35.3258 219.725 35.2586 219.824 35.2132C219.924 35.1677 220.032 35.1451 220.141 35.1469H224.427C224.589 35.1476 224.745 35.2005 224.874 35.2979C225.003 35.3953 225.097 35.5319 225.143 35.6875C225.349 36.3434 225.758 36.9154 226.31 37.3194C227.116 37.9132 228.097 38.2163 229.095 38.1799C230.179 38.1799 231.027 37.9617 231.637 37.5252C231.918 37.3458 232.149 37.0974 232.31 36.8034C232.47 36.5093 232.553 36.1792 232.552 35.8438C232.552 35.0997 232.178 34.5541 231.435 34.1846C230.287 33.676 229.096 33.2709 227.877 32.9744C226.472 32.6525 225.092 32.2281 223.748 31.7046C222.68 31.2697 221.732 30.5804 220.985 29.6958C220.212 28.7947 219.826 27.5795 219.826 26.0501C219.818 24.8163 220.195 23.6111 220.904 22.6054C221.688 21.5139 222.757 20.6631 223.992 20.1477C225.491 19.5156 227.106 19.2081 228.731 19.245C231.413 19.245 233.555 19.9212 235.156 21.2736C236.538 22.4366 237.444 24.0748 237.697 25.8716C237.714 25.9794 237.708 26.0896 237.679 26.1947C237.65 26.2998 237.598 26.3973 237.528 26.4805C237.458 26.5636 237.371 26.6305 237.273 26.6765C237.174 26.7226 237.067 26.7466 236.959 26.747H232.98C232.811 26.7483 232.646 26.6923 232.513 26.588C232.379 26.4836 232.284 26.337 232.242 26.1717C232.085 25.5461 231.726 24.9911 231.221 24.5944C230.565 24.0603 229.677 23.7941 228.559 23.7958C227.528 23.7958 226.733 23.9868 226.179 24.3687C225.915 24.5398 225.699 24.7771 225.553 25.0575C225.407 25.3379 225.335 25.6517 225.345 25.9683C225.345 26.7321 225.725 27.3108 226.484 27.7043C227.244 28.0978 228.423 28.5004 230.023 28.9121C231.392 29.2413 232.736 29.6664 234.046 30.1843C235.111 30.6263 236.053 31.3225 236.792 32.213C237.564 33.1273 237.965 34.3359 237.993 35.8388C238.008 37.0981 237.631 38.3306 236.915 39.3629C236.133 40.4528 235.062 41.2986 233.824 41.8032C232.338 42.4158 230.742 42.7138 229.137 42.6787C227.432 42.7109 225.74 42.3725 224.176 41.6867Z" fill="#EBF2FF"/>
</g>
<defs>
<linearGradient id="paint0_linear_24_5383" x1="27.9032" y1="15.7376" x2="38.1498" y2="14.9625" gradientUnits="userSpaceOnUse">
<stop stop-color="#B7CDF5"/>
<stop offset="1" stop-color="#EBF2FF"/>
</linearGradient>
<linearGradient id="paint1_linear_24_5383" x1="37.7279" y1="22.009" x2="29.9281" y2="6.80699" gradientUnits="userSpaceOnUse">
<stop stop-color="#B7CDF5"/>
<stop offset="1" stop-color="white"/>
</linearGradient>
<linearGradient id="paint2_linear_24_5383" x1="46.1483" y1="40.9997" x2="40.6175" y2="30.3463" gradientUnits="userSpaceOnUse">
<stop stop-color="#B7CDF5"/>
<stop offset="1" stop-color="#EBF2FF"/>
</linearGradient>
<linearGradient id="paint3_linear_24_5383" x1="19.5616" y1="16.1797" x2="41.9872" y2="34.6114" gradientUnits="userSpaceOnUse">
<stop stop-color="#B7CDF5"/>
<stop offset="1" stop-color="#EBF2FF"/>
</linearGradient>
<linearGradient id="paint4_linear_24_5383" x1="43.9436" y1="44.4271" x2="33.6506" y2="38.5747" gradientUnits="userSpaceOnUse">
<stop stop-color="#B7CDF5"/>
<stop offset="1" stop-color="#EBF2FF"/>
</linearGradient>
<linearGradient id="paint5_linear_24_5383" x1="31.8744" y1="34.9113" x2="38.3101" y2="49.8093" gradientUnits="userSpaceOnUse">
<stop stop-color="#B7CDF5"/>
<stop offset="1" stop-color="#EBF2FF"/>
</linearGradient>
<linearGradient id="paint6_linear_24_5383" x1="17.6276" y1="10.8451" x2="31.9268" y2="23.5278" gradientUnits="userSpaceOnUse">
<stop stop-color="#B7CDF5"/>
<stop offset="0.59" stop-color="white"/>
<stop offset="0.99" stop-color="white" stop-opacity="0"/>
</linearGradient>
<linearGradient id="paint7_linear_24_5383" x1="30.0719" y1="28.0294" x2="21.6731" y2="18.2531" gradientUnits="userSpaceOnUse">
<stop stop-color="#B7CDF5"/>
<stop offset="1" stop-color="#EBF2FF"/>
</linearGradient>
<linearGradient id="paint8_linear_24_5383" x1="55.4567" y1="28.6839" x2="29.636" y2="42.9351" gradientUnits="userSpaceOnUse">
<stop offset="0.65" stop-color="#C9DDF1" stop-opacity="0"/>
<stop offset="0.68" stop-color="#C7DDF2" stop-opacity="0.04"/>
<stop offset="0.73" stop-color="#C1DDF3" stop-opacity="0.14"/>
<stop offset="0.79" stop-color="#B7DCF5" stop-opacity="0.3"/>
<stop offset="0.87" stop-color="#A9DBF8" stop-opacity="0.53"/>
<stop offset="0.95" stop-color="#98DBFC" stop-opacity="0.81"/>
<stop offset="1" stop-color="#8CDAFF"/>
</linearGradient>
<clipPath id="clip0_24_5383">
<rect width="238" height="54" fill="white"/>
</clipPath>
</defs>
</svg>
