<?xml version="1.0" standalone="no"?>
<!DOCTYPE svg PUBLIC "-//W3C//DTD SVG 20010904//EN"
 "http://www.w3.org/TR/2001/REC-SVG-20010904/DTD/svg10.dtd">
<svg version="1.0" xmlns="http://www.w3.org/2000/svg"
 width="800.000000pt" height="800.000000pt" viewBox="0 0 800.000000 800.000000"
 preserveAspectRatio="xMidYMid meet">
<metadata>
Created by potrace 1.14, written by Peter Selinger 2001-2017
</metadata>
<g transform="translate(0.000000,800.000000) scale(0.100000,-0.100000)"
fill="#000000" stroke="none">
<path d="M2729 6794 c-20 -6 -47 -52 -54 -95 -3 -19 -8 -41 -10 -49 -2 -8 -7
-35 -10 -60 -4 -24 -8 -47 -10 -50 -2 -3 -6 -23 -9 -45 -12 -81 -16 -91 -37
-92 -54 -4 -197 -65 -271 -115 -103 -70 -186 -164 -272 -308 -71 -117 -96
-149 -96 -120 0 6 -4 10 -9 10 -5 0 -51 24 -103 54 -118 68 -259 136 -368 176
-47 18 -94 36 -105 41 -29 13 -76 13 -107 1 -28 -12 -71 -69 -62 -83 2 -4 0
-10 -5 -13 -8 -5 47 -205 68 -243 5 -10 9 -22 10 -28 5 -51 95 -269 202 -493
70 -144 77 -166 59 -177 -6 -4 -31 -49 -56 -101 -26 -52 -56 -107 -68 -122
-19 -22 -53 -76 -146 -232 -93 -156 -181 -313 -191 -344 -8 -21 -20 -41 -26
-43 -7 -3 -13 -9 -13 -14 0 -6 -9 -20 -21 -32 -11 -12 -40 -55 -62 -95 -47
-83 -53 -93 -83 -142 -93 -153 -173 -294 -192 -340 -12 -30 -33 -66 -46 -80
-13 -14 -32 -39 -43 -57 -10 -17 -47 -80 -82 -140 -63 -106 -81 -136 -134
-220 -15 -24 -27 -45 -27 -48 0 -3 -11 -22 -23 -43 -13 -20 -32 -58 -42 -85
-10 -26 -29 -59 -42 -75 -28 -31 -59 -77 -96 -145 -15 -26 -33 -58 -41 -70
-22 -32 -74 -167 -81 -207 -3 -19 -10 -52 -15 -73 -8 -39 -6 -244 4 -303 3
-17 10 -43 15 -57 6 -15 9 -27 6 -27 -5 0 16 -51 53 -130 113 -244 343 -417
607 -458 68 -11 4325 -9 4370 2 79 18 144 39 185 58 25 12 48 21 53 20 4 -1 7
3 7 8 0 6 4 10 9 10 20 0 108 66 167 125 57 56 174 221 174 245 0 5 4 10 9 10
5 0 11 8 14 18 4 9 17 35 30 57 121 202 147 247 147 255 0 4 6 15 13 22 14 14
77 115 77 123 0 3 16 29 35 59 19 30 35 60 35 66 0 5 4 10 9 10 5 0 14 12 20
27 13 34 32 65 46 75 6 4 6 8 2 8 -4 0 3 15 17 33 15 19 26 36 26 39 0 3 25
47 55 97 30 51 55 96 55 101 0 6 3 10 8 10 4 0 12 10 18 23 19 40 49 92 55 97
3 3 16 25 30 50 13 25 27 47 30 50 3 3 8 12 12 20 4 8 18 33 32 55 14 22 28
47 32 55 9 18 117 200 148 250 12 19 34 54 48 77 15 24 27 45 27 48 0 3 16 31
35 61 19 30 35 56 35 59 0 2 36 63 80 136 44 72 80 133 80 136 0 2 16 29 35
59 19 30 35 56 35 59 0 4 63 108 70 115 3 3 13 21 23 40 32 59 52 95 57 100 8
8 70 111 70 116 0 3 15 28 33 57 18 29 39 64 46 80 8 15 18 27 23 27 4 0 8 7
8 16 0 9 8 28 19 42 16 23 138 228 202 339 10 17 29 49 42 70 13 21 25 41 26
45 1 4 10 28 21 53 26 61 49 140 58 200 9 64 8 238 -2 290 -10 50 -14 70 -16
70 -1 0 -3 11 -6 23 -9 49 -66 171 -113 243 -55 82 -187 219 -212 219 -4 0
-14 6 -21 14 -26 26 -163 87 -230 102 -13 3 -43 10 -68 16 -30 7 -688 11
-1963 12 l-1918 1 -30 35 c-30 34 -111 125 -199 223 -25 27 -56 62 -70 77 -25
28 -77 43 -111 34z"/>
<path d="M4850 1231 c-7 -15 -6 -20 6 -25 19 -7 34 1 34 19 0 22 -29 26 -40 6z"/>
</g>
</svg>
