<svg width="169" height="70" viewBox="0 0 169 70" fill="none" xmlns="http://www.w3.org/2000/svg">
<g id="Layer_1" clip-path="url(#clip0_64_1863)">
<path id="Vector" d="M10.1536 63.8083C8.99616 63.8013 7.86173 63.4839 6.86836 62.8891C5.87499 62.2943 5.05897 61.4439 4.50522 60.4263C3.85581 59.2868 3.51856 57.9957 3.52758 56.6838C3.5366 55.3718 3.89158 54.0855 4.5566 52.955L5.3369 51.637C5.63709 51.128 6.05994 50.7024 6.56677 50.3992C6.58623 49.8083 6.75528 49.2319 7.05808 48.7243L10.3463 43.1562C10.6466 42.6493 11.0682 42.225 11.5729 41.9217C11.5963 41.3338 11.7639 40.7608 12.061 40.2532L15.3813 34.6497C15.6755 34.1528 16.0867 33.7356 16.5791 33.4345C16.6053 32.8562 16.7729 32.2932 17.0672 31.7949L20.1178 26.6351C20.4133 26.1363 20.8268 25.7178 21.322 25.4167C21.345 24.8358 21.5128 24.27 21.81 23.7707L25.0019 18.3698C25.3085 17.8498 25.743 17.417 26.2639 17.1127C26.2794 16.51 26.4485 15.9213 26.7552 15.4024L29.0351 11.5446C29.5984 10.5535 30.4119 9.728 31.3943 9.15079C32.3766 8.57359 33.4932 8.26497 34.6321 8.25586H86.081C87.2388 8.26331 88.3735 8.58086 89.3673 9.17557C90.3611 9.77029 91.1778 10.6205 91.7326 11.6379C92.3833 12.7795 92.721 14.073 92.7114 15.3873C92.7018 16.7016 92.3453 17.9901 91.678 19.122L67.1995 60.5324C66.6353 61.5218 65.8213 62.3453 64.8389 62.9202C63.8565 63.4952 62.7404 63.8015 61.6025 63.8083H10.1536Z" fill="#FFC152"/>
<path id="Vector_2" d="M86.081 11.7856C88.56 11.7856 90.0307 14.9587 88.6499 17.3087L64.165 58.732C63.9106 59.194 63.5394 59.581 63.0885 59.8541C62.6376 60.1272 62.1229 60.2768 61.5961 60.288H10.1536C7.67783 60.288 6.20713 57.1149 7.5847 54.7649L8.3618 53.4468L60.0965 50.5341H10.083L13.3744 44.966L64.9067 42.0727H15.0988L18.4319 36.4499L69.1198 33.5887H20.1049L23.1523 28.4449L74.036 25.5805H24.8542L28.0493 20.1764L80.728 17.193H29.7929L32.0729 13.3352C32.327 12.8729 32.6981 12.4857 33.1491 12.2126C33.6 11.9395 34.1148 11.79 34.6418 11.7792H86.081M86.081 4.70654H34.6321C32.879 4.71192 31.1582 5.17908 29.6425 6.06109C28.1268 6.9431 26.8697 8.20891 25.9974 9.73134L23.7175 13.5892C23.4213 14.0944 23.1883 14.6343 23.0239 15.1966C22.6155 15.6087 22.2596 16.0698 21.9642 16.5693L18.7723 21.9735C18.4868 22.4557 18.2604 22.9705 18.098 23.507C17.7061 23.9077 17.3642 24.3546 17.08 24.8379L14.0295 29.9977C13.7467 30.479 13.5204 30.9914 13.3551 31.5248C12.967 31.926 12.6275 32.3716 12.3436 32.8525L9.02651 38.4688C8.73786 38.9575 8.50826 39.4787 8.34253 40.0216C7.94633 40.4277 7.60026 40.8799 7.31176 41.3686L4.02034 46.9367C3.72896 47.4273 3.49923 47.9521 3.33637 48.4991C2.93714 48.9054 2.58883 49.3588 2.29917 49.8494L1.52207 51.1675C0.540732 52.8352 0.0162567 54.7326 0.00159769 56.6681C-0.0130613 58.6036 0.482617 60.5087 1.43858 62.1912C2.30035 63.75 3.56281 65.0499 5.09515 65.956C6.62748 66.8621 8.37396 67.3415 10.1536 67.3446H61.6025C63.3556 67.3392 65.0764 66.872 66.5921 65.99C68.1078 65.108 69.3649 63.8422 70.2372 62.3197L94.7158 20.8965C95.6973 19.2293 96.2216 17.3322 96.2357 15.3971C96.2498 13.4619 95.7532 11.5573 94.796 9.87601C93.9367 8.31405 92.6752 7.01106 91.1425 6.10252C89.6099 5.19398 87.8622 4.71306 86.081 4.70976V4.70654Z" fill="#001751"/>
<path id="Vector_3" d="M61.397 61.9628C61.2814 61.9628 61.1658 61.9628 61.0438 61.9628H61.0181C60.4818 61.9338 59.9487 61.8953 59.4318 61.8535L54.5155 61.4355C53.1356 61.6043 51.7472 61.6934 50.3571 61.7024C44.1596 61.7024 40.1168 59.3716 37.2492 54.1475C37.1593 53.9803 37.0694 53.8099 36.9859 53.6395L36.9153 53.5013C36.851 53.3631 36.7868 53.228 36.7258 53.0898C34.3817 47.885 34.9821 41.5582 36.9409 37.9254C36.0992 37.4725 35.2883 36.9645 34.5133 36.4048L34.4459 36.3565C30.5283 33.5982 26.9093 29.4671 21.9835 22.1212C20.5352 19.9608 19.3439 18.0448 18.4512 16.4277C18.0691 15.743 17.7383 15.1064 17.4686 14.5406C17.3594 14.3156 17.2663 14.1098 17.1828 13.9234C16.8408 13.2438 16.6161 12.5112 16.5181 11.7566L16.4635 9.54154L18.5315 10.3292L18.7755 10.4256L18.9104 10.4803C22.7638 12.0652 30.5026 17.2314 35.3289 21.0378L35.4446 21.1278C36.4914 21.9605 37.3488 22.687 37.991 23.2914C37.4515 22.0826 36.9153 20.8321 36.4079 19.5622C33.0779 11.2615 34.2436 5.09541 34.295 4.8543L34.873 1.96094L36.8575 4.16311C36.8896 4.19847 40.2452 7.93412 44.0889 12.7435C44.3683 13.0939 44.6509 13.4476 44.9335 13.8076L45.3156 14.2963C45.6977 14.7849 46.0831 15.2832 46.4684 15.7848C46.6546 16.0259 46.8345 16.2799 47.0271 16.5628C47.2198 16.8457 47.39 17.1157 47.5634 17.3986C47.6661 17.569 47.7657 17.7394 47.862 17.913C47.9584 18.0866 48.0836 18.3084 48.1831 18.5142L48.2217 18.5849C48.3116 18.7585 48.4047 18.9385 48.4914 19.1186C48.7611 19.6651 49.018 20.2405 49.2589 20.8256L49.4162 21.2114C49.5158 21.4686 49.6153 21.7258 49.7116 21.9862C49.808 22.2466 49.8979 22.507 49.9878 22.7674C51.0816 26.1136 51.8442 29.5593 52.2645 33.0549L52.3448 33.0806L52.4058 33.0999C56.1275 34.1094 59.0336 36.3148 60.5717 39.3303C63.9916 46.0236 66.7596 50.1161 68.105 51.9582C68.9356 53.0904 69.2958 54.5007 69.1101 55.8932V55.9317L68.5578 58.9665L68.5353 59.0373C68.3844 59.5677 67.9188 61.1848 65.9472 61.4034C65.8481 61.4162 65.7484 61.4227 65.6485 61.4227C65.2966 61.4224 64.9486 61.348 64.6274 61.2041C63.6384 61.7434 62.5223 62.0055 61.397 61.9628Z" fill="#001751"/>
<path id="Vector_4" d="M35.7464 5.14041C35.7464 5.14041 39.0603 8.83426 42.9233 13.6565L43.7614 14.7142L44.1403 15.1964C44.5192 15.683 44.9003 16.1759 45.2835 16.6753C45.4569 16.9035 45.6271 17.1382 45.7909 17.3825C45.9546 17.6269 46.112 17.8905 46.2854 18.1541C46.3817 18.3116 46.4716 18.4756 46.5647 18.6299C46.6579 18.7842 46.7702 18.9996 46.8698 19.1893C46.8698 19.2118 46.8923 19.2311 46.9019 19.2536C46.9918 19.4207 47.0753 19.5911 47.1588 19.7615C47.4189 20.2855 47.6597 20.8256 47.8845 21.3689C47.9359 21.4911 47.9841 21.6133 48.0322 21.7354C48.1318 21.983 48.2249 22.2305 48.3148 22.4781C48.4047 22.7256 48.4946 22.9764 48.5813 23.2239C49.7476 26.8058 50.527 30.5026 50.9062 34.2508L51.1567 34.3022L51.359 34.344C51.5195 34.3805 51.6769 34.4191 51.831 34.4598L51.9113 34.4791L51.998 34.5048C55.0646 35.3374 57.778 37.1152 59.2455 39.97C62.7039 46.7212 65.5105 50.9005 66.9009 52.7972C67.5041 53.6222 67.7674 54.6478 67.6362 55.6617L67.1032 58.5872C66.888 59.3298 66.5862 59.796 65.7738 59.8892H65.6421C65.4276 59.8795 65.2202 59.8095 65.0436 59.6873C64.8669 59.565 64.7283 59.3955 64.6435 59.198C64.6435 59.198 63.892 60.455 61.3938 60.455H61.0984C60.5814 60.4261 60.0676 60.3907 59.5538 60.3457L54.493 59.9503C53.1208 60.1214 51.7399 60.2126 50.3571 60.2235C45.0651 60.2235 41.3466 58.5357 38.5529 53.4434C38.4695 53.2923 38.3924 53.138 38.3153 52.9837L38.2511 52.8583C38.1933 52.7394 38.1355 52.614 38.0809 52.4918C35.7593 47.3481 36.6519 40.9184 38.6493 37.9736C38.797 37.7357 38.9511 37.5042 39.1149 37.2856C38.9608 37.2213 38.7938 37.1474 38.6332 37.0734C37.7181 36.7102 36.9121 36.2762 35.3579 35.1863C31.8995 32.7623 28.3993 29.0203 23.223 21.3046C21.6174 18.9224 20.5192 17.0996 19.7485 15.7172C19.3535 15.0035 19.0453 14.4056 18.8077 13.9105C18.7081 13.7015 18.6214 13.5119 18.5443 13.3383C18.0145 12.1359 18.0049 11.7308 18.0049 11.7308L18.22 11.8144L18.2907 11.8433L18.3452 11.8659C22.1408 13.4315 29.793 18.5624 34.4009 22.2144L34.5165 22.3045C35.5859 23.1564 36.4882 23.9119 37.1304 24.5388C37.1362 24.5478 37.1439 24.5555 37.1529 24.5613L37.4355 24.841L37.5446 24.9535L37.7341 25.1464L37.8658 25.2846L38.0295 25.4582L38.1644 25.6061L38.3217 25.7765L38.4566 25.9276C38.508 25.9855 38.5594 26.0401 38.6075 26.098C38.6557 26.1558 38.7007 26.2041 38.7488 26.2587L38.8901 26.4227L39.0314 26.5898L39.1663 26.7474L39.3108 26.9242L39.4392 27.0785L39.5869 27.2617C39.6255 27.31 39.6672 27.3582 39.7057 27.4096L39.8599 27.5993L39.9658 27.7375C40.0204 27.805 40.075 27.8726 40.1264 27.9433L40.2227 28.0655L40.3961 28.2873L40.47 28.3837C40.5342 28.4673 40.5952 28.5509 40.6595 28.6313L40.7044 28.6923C41.9728 30.3641 43.1256 32.0133 44.2367 33.3121L44.6605 33.2864C42.079 28.6703 39.7778 23.9026 37.7694 19.0092C34.5583 11.0236 35.7368 5.14683 35.7368 5.14683M32.8211 4.56495C32.7729 4.82214 31.6779 10.5864 34.3913 18.4499C29.5553 14.8203 23.0624 10.5928 19.4627 9.10431L19.3985 9.07859H19.3824L19.3086 9.04966L19.0389 8.94356L17.0158 8.17843C16.7832 8.09023 16.5325 8.06071 16.2858 8.09246C16.0391 8.12421 15.804 8.21627 15.6012 8.3605C15.3984 8.50473 15.2342 8.69671 15.1231 8.9195C15.0119 9.14229 14.9573 9.38903 14.9639 9.63797C14.9639 9.63797 16.8906 17.0803 20.744 22.9571C25.7694 30.4541 29.4943 34.6945 33.5885 37.575L33.6367 37.6071H33.6527C34.1569 37.9607 34.6161 38.2501 35.0143 38.5201C34.314 40.3378 33.898 42.2528 33.7812 44.1975C33.5281 47.4508 34.0738 50.7166 35.3707 53.7103L35.5762 54.1539C35.5955 54.1989 35.618 54.2407 35.6404 54.2857V54.3082C35.7432 54.5108 35.8395 54.694 35.9327 54.8644C37.58 57.8671 39.5901 59.9888 42.0788 61.3455C44.3523 62.5864 47.056 63.1908 50.341 63.1908C51.7363 63.1815 53.1299 63.0946 54.5155 62.9304L59.2841 63.3355C59.8075 63.3773 60.3566 63.4159 60.9121 63.448H60.9635H61.3745C62.5299 63.4699 63.6764 63.2429 64.7366 62.7825C65.0273 62.8492 65.3246 62.8826 65.6228 62.8822C65.7774 62.8833 65.9318 62.8747 66.0852 62.8565C67.4339 62.7054 69.2001 61.9885 69.9386 59.4263L69.9804 59.2816L70.006 59.1305L70.5391 56.2082V56.1343V56.0635C70.7724 54.2906 70.3121 52.496 69.2546 51.0548C67.9349 49.2481 65.215 45.2295 61.8401 38.6262C60.2346 35.4725 57.3092 33.0999 53.5586 31.875C53.1156 28.6074 52.3728 25.3875 51.3397 22.2562C51.2466 21.9798 51.1502 21.7065 51.0539 21.4429C50.9576 21.1793 50.8516 20.8996 50.7328 20.6359C50.6771 20.4988 50.6225 20.3638 50.569 20.2309C50.3153 19.6136 50.0456 19.0092 49.763 18.4338C49.6571 18.2248 49.5639 18.0351 49.4708 17.8615L49.4451 17.8133C49.3327 17.6011 49.2139 17.3857 49.0951 17.1703C48.9763 16.955 48.8832 16.8039 48.774 16.6238C48.5877 16.3184 48.3951 16.0162 48.196 15.7205C47.9969 15.4247 47.7914 15.1386 47.5891 14.875C47.223 14.3959 46.8409 13.9105 46.4267 13.3736C46.295 13.2064 46.1666 13.0521 46.0413 12.8817L45.1872 11.808C41.3177 6.96322 38.0359 3.31438 37.8979 3.16006L35.3932 0.376009C35.2578 0.224504 35.0829 0.113795 34.8882 0.0563198C34.6934 -0.00115577 34.4865 -0.00311953 34.2907 0.0506491C34.0949 0.104418 33.9179 0.211785 33.7797 0.360694C33.6415 0.509602 33.5475 0.694145 33.5083 0.893594L32.8211 4.56495Z" fill="#001751"/>
<path id="Vector_5" d="M50.9415 34.6593C50.9415 34.6593 50.0456 22.8994 45.2835 16.6723C40.5213 10.4451 35.7464 5.14062 35.7464 5.14062C35.7464 5.14062 34.5775 11.0174 37.779 19.003C39.9399 24.2599 42.4358 29.3724 45.2514 34.3089L50.9415 34.6593Z" fill="url(#paint0_linear_64_1863)"/>
<path id="Vector_6" d="M44.2495 16.7494C48.7033 22.5747 49.7759 33.2416 49.8947 34.595L50.9415 34.6593C50.9415 34.6593 50.0456 22.8994 45.2835 16.6723C40.5213 10.4451 35.7464 5.14062 35.7464 5.14062C35.7464 5.14062 35.7239 5.24993 35.695 5.46211C37.429 7.76072 40.881 12.3451 44.2495 16.7494Z" fill="url(#paint1_linear_64_1863)"/>
<path id="Vector_7" d="M44.0793 33.3187C45.1851 33.2238 46.297 33.2238 47.4028 33.3187C48.7226 33.4956 49.6506 33.682 50.7681 34.4246L47.634 34.6497L44.8243 34.6111L43.8962 33.4955L44.0793 33.3187Z" fill="#001751"/>
<path id="Vector_8" d="M66.9201 52.8133C65.5297 50.9069 62.7232 46.7501 59.2648 39.9861C56.2913 34.1673 48.1864 32.8299 42.3967 34.7909C36.607 36.752 35.0945 47.0974 38.569 53.437C42.0434 59.7767 46.9404 60.8312 54.5091 59.9439L59.5731 60.3714C60.0868 60.4164 60.6006 60.4518 61.1176 60.4807C63.8535 60.5836 64.6499 59.2302 64.6499 59.2302C64.7427 59.4486 64.9018 59.6322 65.1047 59.7551C65.3075 59.878 65.5439 59.9339 65.7802 59.9149C66.5926 59.8217 66.8945 59.3555 67.1096 58.6129L67.6427 55.6874C67.78 54.672 67.5213 53.6427 66.9201 52.8133Z" fill="#EBF2FF"/>
<path id="Vector_9" d="M58.767 40.7641C57.2064 36.6813 52.2613 34.6141 52.0236 34.5113L51.9241 34.4823H51.8535C49.6239 33.9153 47.3027 33.806 45.0298 34.1608C46.1794 35.1574 48.1318 35.5689 49.3006 35.9001C51.314 36.4659 54.6793 37.9704 56.3651 41.8411C58.9822 47.8207 62.0488 52.7426 64.1874 54.5429L66.0724 53.9675C63.9338 52.6237 60.3726 44.9563 58.767 40.7641Z" fill="url(#paint2_linear_64_1863)"/>
<path id="Vector_10" d="M64.1875 54.5367C62.0489 52.7364 58.9822 47.8145 56.3651 41.8349C54.6697 37.9771 51.3044 36.4597 49.3006 35.8938C48.1318 35.5724 46.1794 35.1512 45.0298 34.1546C42.7306 31.8142 40.3383 27.606 37.1433 24.5101C33.6656 21.1602 22.5326 13.4092 18.0113 11.7021C18.0113 11.7021 18.053 13.5539 23.2294 21.2727C28.4057 28.9916 31.8995 32.7304 35.3643 35.1544C36.5403 35.9858 37.8007 36.6905 39.1245 37.2569C39.8562 37.24 40.5882 37.2604 41.3177 37.318C45.3959 37.5141 48.9988 38.9254 51.3012 40.6647C53.671 42.4457 54.6729 45.6252 56.5546 48.8657C58.7799 52.701 62.8773 54.9289 62.8773 54.9289L66.0885 53.9484L64.1875 54.5367Z" fill="url(#paint3_linear_64_1863)"/>
<path id="Vector_11" d="M58.6804 53.1606C53.96 53.2474 48.3469 52.0001 45.5693 49.3028C43.9032 47.648 42.8963 45.4423 42.7371 43.0981L40.0558 44.0272C39.7764 50.219 41.6613 54.5976 45.4023 56.8705C49.1433 59.1434 54.493 59.9504 54.493 59.9504L59.557 60.3779C60.0708 60.4229 60.5846 60.4583 61.1016 60.4872C56.8404 58.5101 58.6804 53.1606 58.6804 53.1606Z" fill="url(#paint4_linear_64_1863)"/>
<path id="Vector_12" d="M45.5661 57.1181C43.6041 56.0476 40.7494 52.4695 39.4392 47.6343C37.7309 41.2882 39.0667 37.4111 39.0667 37.4111C36.652 40.1984 35.467 47.8047 38.5529 53.4275C42.0242 59.7575 46.9244 60.8216 54.493 59.9343C54.493 59.9504 49.4451 59.2367 45.5661 57.1181Z" fill="url(#paint5_linear_64_1863)"/>
<path id="Vector_13" d="M45.3766 34.5049C42.9683 32.2545 40.4957 27.7537 37.1304 24.5228C33.6528 21.1729 22.5197 13.4219 17.9985 11.7148C17.9971 11.7352 17.9971 11.7556 17.9985 11.7759C22.5486 13.5312 32.927 22.2595 36.3919 25.5998C39.603 28.6892 42.0274 32.9939 44.3394 35.3407C44.6574 35.0293 45.0048 34.7494 45.3766 34.5049Z" fill="url(#paint6_linear_64_1863)"/>
<path id="Vector_14" d="M33.2353 24.6192C26.9061 18.0481 18.6663 11.9945 18.6406 11.9785C18.4127 11.8788 18.1975 11.7888 17.9984 11.7148C17.9984 11.7148 18.0402 13.5666 23.2165 21.2854C28.3929 29.0043 31.8866 32.7431 35.3514 35.1671C37.1497 36.4306 37.946 36.8131 39.0667 37.2246C39.0057 36.691 40.9484 32.6242 33.2353 24.6192Z" fill="url(#paint7_linear_64_1863)"/>
<path id="Vector_15" d="M37.8722 30.1326C36.5457 28.1693 35.0326 26.3391 33.3541 24.6674C32.622 23.9301 31.8791 23.2078 31.1256 22.5006C28.4828 20.0123 25.7373 17.6301 22.9693 15.28C22.4973 14.875 22.0252 14.4763 21.55 14.0777C21.5321 14.0645 21.5202 14.0447 21.5169 14.0227C21.5136 14.0007 21.5191 13.9783 21.5323 13.9603C21.5455 13.9424 21.5653 13.9305 21.5873 13.9272C21.6092 13.9239 21.6316 13.9295 21.6495 13.9427C22.1676 14.2899 22.6792 14.6435 23.1844 15.0036C25.7318 16.8241 28.1651 18.7996 30.4705 20.9189C32.0177 22.3305 33.4793 23.8334 34.8473 25.4197C36.0597 26.8754 37.1086 28.4602 37.9749 30.1455C38.0649 30.3159 37.9974 30.3126 37.8722 30.1326Z" fill="#001751"/>
<path id="Vector_16" d="M66.9201 52.8133C65.5297 50.9069 62.7232 46.7501 59.2648 39.9861C56.2913 34.1673 48.1864 32.8299 42.3967 34.7909C36.607 36.752 35.0945 47.0974 38.569 53.437C42.0434 59.7767 46.9404 60.8312 54.5091 59.9439L59.5731 60.3714C60.0868 60.4164 60.6006 60.4518 61.1176 60.4807C63.8535 60.5836 64.6499 59.2302 64.6499 59.2302C64.7427 59.4486 64.9018 59.6322 65.1047 59.7551C65.3075 59.878 65.5439 59.9339 65.7802 59.9149C66.5926 59.8217 66.8945 59.3555 67.1096 58.6129L67.6427 55.6874C67.78 54.672 67.5213 53.6427 66.9201 52.8133Z" fill="url(#paint8_linear_64_1863)"/>
<path id="Vector_17" d="M47.0304 45.3488C46.9801 45.1624 46.9998 44.964 47.0855 44.7911C47.1713 44.6182 47.3173 44.4827 47.496 44.4101C48.1206 44.1452 48.793 44.0117 49.4713 44.0178C50.1496 44.0239 50.8195 44.1694 51.4393 44.4454C52.8008 45.0691 53.732 46.3968 54.2362 47.2841C54.2968 47.3915 54.3315 47.5116 54.3375 47.6348C54.3434 47.758 54.3206 47.8809 54.2706 47.9937C54.2207 48.1065 54.1451 48.206 54.0499 48.2843C53.9547 48.3626 53.8426 48.4175 53.7224 48.4447C52.7366 48.6665 51.1535 48.8401 49.6731 48.165C47.8556 47.3323 47.2391 46.1011 47.0304 45.3488Z" fill="#001751"/>
<path id="Vector_18" d="M62.8902 55.4721C62.8307 55.369 62.7925 55.255 62.7781 55.1368C62.7637 55.0186 62.7733 54.8987 62.8063 54.7844C62.8392 54.67 62.895 54.5634 62.9701 54.4711C63.0452 54.3788 63.1382 54.3027 63.2434 54.2472C63.7092 54.0041 64.2151 53.8473 64.7366 53.7843C65.2622 53.6971 65.8012 53.812 66.2458 54.1058C66.3956 54.2112 66.5086 54.3608 66.5691 54.5338C66.6295 54.7068 66.6344 54.8944 66.583 55.0702C66.3928 55.7562 66.0263 56.3802 65.5201 56.8802C65.404 56.9988 65.2572 57.0827 65.0961 57.1225C64.935 57.1622 64.766 57.1563 64.6081 57.1052C64.1554 56.9381 63.5067 56.533 62.8902 55.4721Z" fill="#001751"/>
<path id="Vector_19" d="M38.6942 41.8735C38.6942 41.8735 39.0667 53.5852 45.5853 57.0605C45.6089 57.0785 45.6253 57.1043 45.6317 57.1333C45.638 57.1623 45.6339 57.1926 45.62 57.2188C45.6061 57.245 45.5834 57.2655 45.5559 57.2765C45.5284 57.2876 45.4978 57.2885 45.4697 57.2791C43.7435 56.4329 42.2786 55.1342 41.231 53.5209C38.5625 49.5152 38.4694 41.8735 38.4694 41.8735H38.6942Z" fill="#001751"/>
<path id="Vector_20" d="M65.4045 54.1412C63.452 51.3339 61.7735 48.3454 60.3919 45.2168C60.1703 44.696 60.3919 44.8439 60.5781 45.2168C60.8992 45.8598 61.6571 47.2261 62.0809 47.9687C63.3233 50.1592 64.6814 52.2819 66.1495 54.3277L65.2664 54.0062L65.4045 54.1412Z" fill="#001751"/>
<path id="Vector_21" d="M63.131 55.4305C61.6234 54.5629 60.2388 53.4968 59.0143 52.2606C58.8249 52.0485 58.5262 51.7302 58.3528 51.5052C57.8219 50.8604 57.3541 50.166 56.956 49.4316C56.6349 48.8626 56.3523 48.2485 56.0504 47.6763C55.5399 46.7118 55.0165 45.7313 54.4674 44.7829C54.0371 44.0274 54.1302 44.0274 54.6086 44.7829C55.1867 45.6959 55.7422 46.6218 56.2849 47.5509C56.606 48.1071 56.9271 48.7082 57.2675 49.2612C57.602 49.8151 57.9766 50.3437 58.3882 50.8429L58.8698 51.3894L59.3772 51.9102C60.0758 52.5809 60.8347 53.1857 61.6443 53.717C62.0424 53.9709 63.0186 54.5946 63.4393 54.7972L64.1072 55.4401L63.131 55.4305Z" fill="#001751"/>
<path id="Vector_22" d="M49.3423 46.1458C49.8034 46.1458 50.1772 45.7716 50.1772 45.31C50.1772 44.8483 49.8034 44.4741 49.3423 44.4741C48.8812 44.4741 48.5074 44.8483 48.5074 45.31C48.5074 45.7716 48.8812 46.1458 49.3423 46.1458Z" fill="#EBF2FF"/>
<path id="Vector_23" d="M46.4363 50.0232C48.3951 51.4313 52.0943 52.3636 53.8476 52.7493C53.8697 52.7523 53.8898 52.764 53.9033 52.7818C53.9169 52.7996 53.9228 52.822 53.9199 52.8442C53.9169 52.8663 53.9052 52.8864 53.8875 52.9C53.8697 52.9136 53.8473 52.9195 53.8251 52.9165C52.1136 52.8136 48.5524 52.3861 46.0927 50.6083C44.7094 49.5889 43.6545 48.1863 43.0582 46.5736C43.0542 46.5559 43.0563 46.5372 43.0643 46.5209C43.0722 46.5045 43.0855 46.4913 43.1019 46.4834C43.1183 46.4756 43.1369 46.4735 43.1547 46.4777C43.1724 46.4818 43.1882 46.4918 43.1995 46.5061C44.0283 47.8866 45.1297 49.0834 46.4363 50.0232Z" fill="#001751"/>
<path id="Vector_24" d="M44.6284 33.743C44.6284 33.743 44.6541 34.2574 47.1524 35.2765C49.5415 36.241 50.1098 35.6623 53.0095 37.6909C53.1444 37.7841 53.2985 37.8613 53.0512 37.6555C52.0416 36.8148 50.8899 36.1615 49.6506 35.7266C47.4221 34.984 45.9321 34.341 45.3766 33.7334L44.6284 33.743Z" fill="#001751"/>
<path id="Vector_25" d="M52.6274 55.0477C52.3865 55.067 52.1489 55.0991 51.9113 55.1409C51.6737 55.1827 51.6512 55.2245 51.9113 55.1956C53.59 55.0521 55.2804 55.2478 56.8821 55.771C56.9043 55.778 56.9276 55.7806 56.9507 55.7785C56.9738 55.7765 56.9963 55.7699 57.0169 55.7592C57.0375 55.7484 57.0557 55.7337 57.0706 55.7159C57.0855 55.6981 57.0968 55.6775 57.1037 55.6553C57.1115 55.6317 57.1143 55.6067 57.112 55.5819C57.1097 55.5572 57.1022 55.5331 57.0902 55.5114C57.0781 55.4896 57.0616 55.4706 57.0419 55.4556C57.0221 55.4405 56.9994 55.4297 56.9753 55.4238C55.5554 55.0664 54.0874 54.9394 52.6274 55.0477Z" fill="#001751"/>
<path id="Vector (Stroke)" fill-rule="evenodd" clip-rule="evenodd" d="M52.6155 54.8875C54.0925 54.7779 55.5774 54.9064 57.0138 55.2679C57.0592 55.279 57.1018 55.2994 57.1391 55.3278C57.1765 55.3563 57.2076 55.3922 57.2305 55.4334C57.2533 55.4746 57.2674 55.5201 57.2718 55.5669C57.2762 55.6134 57.271 55.6603 57.2565 55.7047C57.2432 55.7465 57.2219 55.7854 57.1937 55.8192C57.1652 55.8532 57.1304 55.8813 57.0911 55.9018C57.0519 55.9223 57.0089 55.9349 56.9648 55.9387C56.9206 55.9426 56.8761 55.9378 56.8339 55.9245L56.8323 55.924L56.8323 55.924C55.2517 55.4076 53.5836 55.2143 51.9269 55.3557C51.8603 55.363 51.8059 55.3666 51.7655 55.3659C51.7471 55.3656 51.7212 55.3644 51.696 55.3582C51.6856 55.3557 51.6577 55.3483 51.6299 55.3274C51.6147 55.3159 51.5934 55.2957 51.5789 55.264C51.5632 55.2297 51.5603 55.1925 51.5683 55.1584C51.5817 55.1008 51.6209 55.0701 51.6303 55.0628C51.6453 55.0512 51.66 55.0436 51.6692 55.0392C51.6885 55.03 51.7097 55.0228 51.7288 55.0172C51.7684 55.0054 51.8209 54.9937 51.8835 54.9827C52.1253 54.9402 52.3679 54.9073 52.6145 54.8876L52.6155 54.8875L52.6155 54.8875ZM56.3872 55.4537C56.5698 55.5045 56.7514 55.5594 56.9319 55.6183L56.8821 55.7711L56.9303 55.6178C56.9324 55.6185 56.9345 55.6187 56.9366 55.6185C56.9386 55.6183 56.9407 55.6177 56.9426 55.6167C56.9445 55.6157 56.9461 55.6144 56.9475 55.6128C56.9488 55.6112 56.9498 55.6093 56.9505 55.6073L56.9512 55.605L56.9512 55.605C56.9521 55.6024 56.9524 55.5998 56.9521 55.5971C56.9519 55.5944 56.9511 55.5919 56.9498 55.5895C56.9485 55.5872 56.9467 55.5852 56.9446 55.5836C56.9425 55.582 56.9401 55.5808 56.9375 55.5802L56.9361 55.5798L56.9361 55.5798C56.7539 55.534 56.5709 55.4919 56.3872 55.4537Z" fill="#001751"/>
<path id="Vector_26" d="M51.0475 56.8546C50.7264 56.9157 50.4053 56.9961 50.0842 57.0861C50.0135 57.1054 50.0264 57.1504 50.0842 57.1343C52.2791 56.6826 54.5428 56.6826 56.7377 57.1343C56.7845 57.1427 56.8327 57.1323 56.8719 57.1051C56.911 57.078 56.9378 57.0365 56.9464 56.9896C56.9514 56.9653 56.9514 56.9401 56.9463 56.9157C56.9411 56.8914 56.931 56.8683 56.9165 56.8481C56.902 56.8278 56.8835 56.8108 56.8621 56.7981C56.8407 56.7854 56.8169 56.7773 56.7922 56.7742C54.8855 56.4907 52.9456 56.5179 51.0475 56.8546Z" fill="#001751"/>
<path id="Vector (Stroke)_2" fill-rule="evenodd" clip-rule="evenodd" d="M56.8141 56.6151C56.86 56.6211 56.9042 56.6363 56.944 56.66C56.9845 56.6841 57.0196 56.7163 57.047 56.7546C57.0744 56.7929 57.0936 56.8365 57.1033 56.8826C57.1129 56.9281 57.1131 56.9751 57.1039 57.0206C57.0873 57.1086 57.0367 57.1864 56.9632 57.2374C56.8891 57.2887 56.7978 57.3086 56.7092 57.2926L56.7053 57.2919L56.7053 57.2919C54.5331 56.8448 52.2929 56.8445 50.1206 57.291C50.0895 57.2988 50.0494 57.3029 50.0073 57.2914C49.9629 57.2792 49.8896 57.2379 49.8769 57.1455C49.8654 57.0618 49.9145 57.0053 49.942 56.9818C49.9732 56.9552 50.0092 56.9401 50.0413 56.9313C50.3649 56.8405 50.6906 56.759 51.0175 56.6968L51.0194 56.6964L51.0194 56.6964C52.934 56.3568 54.8908 56.3293 56.8141 56.6151ZM55.9801 56.8341C56.2432 56.8752 56.5056 56.9226 56.767 56.9764C56.7717 56.977 56.7765 56.9758 56.7804 56.9731C56.7846 56.9702 56.7875 56.9657 56.7884 56.9607L56.7891 56.957L56.7891 56.957C56.7897 56.9544 56.7897 56.9517 56.7891 56.949C56.7886 56.9464 56.7875 56.944 56.7859 56.9418C56.7844 56.9396 56.7824 56.9378 56.7801 56.9365C56.7778 56.9351 56.7752 56.9342 56.7726 56.9339L56.7686 56.9334L56.7686 56.9333C56.5063 56.8943 56.2435 56.8613 55.9801 56.8341ZM50.1264 57.2413L50.1264 57.2413C50.1257 57.2415 50.1257 57.2415 50.1264 57.2413Z" fill="#001751"/>
<path id="Vector_27" d="M52.47 58.5841C52.2356 58.658 52.0012 58.7448 51.7732 58.8412C51.648 58.8927 51.6961 58.9216 51.8342 58.8766C53.5099 58.3482 55.2742 58.1602 57.0234 58.3237C57.047 58.3254 57.0708 58.3225 57.0933 58.315C57.1158 58.3075 57.1365 58.2957 57.1545 58.2802C57.1724 58.2646 57.187 58.2457 57.1976 58.2245C57.2082 58.2033 57.2145 58.1802 57.2161 58.1565C57.2183 58.1318 57.2154 58.1069 57.2076 58.0834C57.1997 58.0599 57.1871 58.0383 57.1705 58.0198C57.154 58.0014 57.1337 57.9866 57.1112 57.9764C57.0886 57.9662 57.0642 57.9607 57.0395 57.9604C55.4928 57.9225 53.9501 58.1331 52.47 58.5841Z" fill="#001751"/>
<path id="Vector (Stroke)_3" fill-rule="evenodd" clip-rule="evenodd" d="M57.0427 57.7998C57.0892 57.8005 57.1351 57.8109 57.1775 57.8301C57.2202 57.8495 57.2584 57.8775 57.2898 57.9123C57.3212 57.9471 57.345 57.9881 57.3599 58.0326C57.3745 58.0766 57.3801 58.1231 57.3762 58.1693C57.3729 58.2135 57.3611 58.2566 57.3413 58.2963C57.3213 58.3365 57.2935 58.3723 57.2596 58.4017C57.2258 58.4311 57.1864 58.4535 57.1438 58.4677C57.1012 58.4818 57.0563 58.4874 57.0116 58.4841L57.0085 58.4838L57.0085 58.4838C55.2808 58.3223 53.5383 58.508 51.8832 59.0298C51.8423 59.0431 51.8036 59.0525 51.7692 59.0569C51.7521 59.059 51.7326 59.0605 51.7125 59.0594C51.6972 59.0585 51.6605 59.0555 51.6236 59.0337C51.6028 59.0215 51.5749 58.9991 51.5567 58.9612C51.5375 58.9212 51.5371 58.8803 51.5455 58.8475C51.5592 58.7932 51.5956 58.7617 51.6069 58.7521C51.6373 58.7264 51.6764 58.7074 51.7115 58.693C51.9437 58.5948 52.1826 58.5063 52.4218 58.4308L52.4233 58.4304L52.4233 58.4304C53.9196 57.9745 55.4791 57.7616 57.0427 57.7998ZM56.4042 58.1197C56.6149 58.1293 56.8256 58.1439 57.036 58.1635C57.0383 58.1636 57.0406 58.1633 57.0428 58.1625C57.0452 58.1617 57.0474 58.1605 57.0493 58.1588C57.0513 58.1571 57.0528 58.1551 57.054 58.1528C57.0551 58.1506 57.0558 58.1481 57.0559 58.1455L57.0562 58.1422L57.0562 58.1422C57.0564 58.1396 57.0561 58.1369 57.0553 58.1344C57.0544 58.1319 57.0531 58.1296 57.0513 58.1276C57.0495 58.1256 57.0474 58.124 57.045 58.1229C57.0425 58.1218 57.0399 58.1212 57.0373 58.1212L57.0356 58.1212V58.1212C56.825 58.116 56.6145 58.1155 56.4042 58.1197Z" fill="#001751"/>
<path id="Vector_28" d="M60.835 69.9998C60.9091 69.9998 60.9802 69.9704 61.0326 69.9179C61.085 69.8654 61.1144 69.7943 61.1144 69.7201C61.1144 69.646 61.085 69.5748 61.0326 69.5224C60.9802 69.4699 60.9091 69.4404 60.835 69.4404C60.7609 69.4404 60.6899 69.4699 60.6375 69.5224C60.5851 69.5748 60.5557 69.646 60.5557 69.7201C60.5557 69.7943 60.5851 69.8654 60.6375 69.9179C60.6899 69.9704 60.7609 69.9998 60.835 69.9998Z" fill="#001751"/>
<path id="Vector_29" d="M149.864 13.7497V58.3428C149.864 58.8544 149.661 59.345 149.3 59.7067C148.938 60.0685 148.448 60.2717 147.937 60.2717H140.23C139.719 60.2717 139.229 60.0685 138.868 59.7067C138.507 59.345 138.304 58.8544 138.304 58.3428V40.9473H113.62V58.3428C113.62 58.8544 113.417 59.345 113.055 59.7067C112.694 60.0685 112.204 60.2717 111.693 60.2717H103.986C103.475 60.2717 102.985 60.0685 102.624 59.7067C102.263 59.345 102.06 58.8544 102.06 58.3428V13.7497C102.06 13.2381 102.263 12.7475 102.624 12.3858C102.985 12.024 103.475 11.8208 103.986 11.8208H111.693C112.204 11.8208 112.694 12.024 113.055 12.3858C113.417 12.7475 113.62 13.2381 113.62 13.7497V31.5246H138.304V13.7497C138.304 13.2381 138.507 12.7475 138.868 12.3858C139.229 12.024 139.719 11.8208 140.23 11.8208H147.937C148.448 11.8208 148.938 12.024 149.3 12.3858C149.661 12.7475 149.864 13.2381 149.864 13.7497Z" fill="#EBF2FF"/>
<path id="Vector_30" d="M163.042 60.2718C166.215 60.2718 168.787 57.6968 168.787 54.5204C168.787 51.344 166.215 48.769 163.042 48.769C159.87 48.769 157.298 51.344 157.298 54.5204C157.298 57.6968 159.87 60.2718 163.042 60.2718Z" fill="#FFC152"/>
</g>
<defs>
<linearGradient id="paint0_linear_64_1863" x1="36.4194" y1="20.4074" x2="49.7873" y2="19.3894" gradientUnits="userSpaceOnUse">
<stop stop-color="#B7CDF5"/>
<stop offset="1" stop-color="#EBF2FF"/>
</linearGradient>
<linearGradient id="paint1_linear_64_1863" x1="49.2411" y1="28.5403" x2="39.1667" y2="8.77925" gradientUnits="userSpaceOnUse">
<stop stop-color="#B7CDF5"/>
<stop offset="1" stop-color="white"/>
</linearGradient>
<linearGradient id="paint2_linear_64_1863" x1="60.2217" y1="53.1445" x2="53.08" y2="39.2984" gradientUnits="userSpaceOnUse">
<stop stop-color="#B7CDF5"/>
<stop offset="1" stop-color="#EBF2FF"/>
</linearGradient>
<linearGradient id="paint3_linear_64_1863" x1="25.5254" y1="20.9705" x2="54.6359" y2="45.0585" gradientUnits="userSpaceOnUse">
<stop stop-color="#B7CDF5"/>
<stop offset="1" stop-color="#EBF2FF"/>
</linearGradient>
<linearGradient id="paint4_linear_64_1863" x1="57.3477" y1="57.5907" x2="43.9593" y2="49.9269" gradientUnits="userSpaceOnUse">
<stop stop-color="#B7CDF5"/>
<stop offset="1" stop-color="#EBF2FF"/>
</linearGradient>
<linearGradient id="paint5_linear_64_1863" x1="41.5971" y1="45.2554" x2="49.9012" y2="64.6082" gradientUnits="userSpaceOnUse">
<stop stop-color="#B7CDF5"/>
<stop offset="1" stop-color="#EBF2FF"/>
</linearGradient>
<linearGradient id="paint6_linear_64_1863" x1="23.0046" y1="14.0553" x2="41.5519" y2="30.6226" gradientUnits="userSpaceOnUse">
<stop stop-color="#B7CDF5"/>
<stop offset="0.59" stop-color="white"/>
<stop offset="0.99" stop-color="white" stop-opacity="0"/>
</linearGradient>
<linearGradient id="paint7_linear_64_1863" x1="39.2498" y1="36.3444" x2="28.3737" y2="23.5992" gradientUnits="userSpaceOnUse">
<stop stop-color="#B7CDF5"/>
<stop offset="1" stop-color="#EBF2FF"/>
</linearGradient>
<linearGradient id="paint8_linear_64_1863" x1="72.3727" y1="37.1828" x2="38.7787" y2="55.8474" gradientUnits="userSpaceOnUse">
<stop offset="0.65" stop-color="#C9DDF1" stop-opacity="0"/>
<stop offset="0.68" stop-color="#C7DDF2" stop-opacity="0.04"/>
<stop offset="0.73" stop-color="#C1DDF3" stop-opacity="0.14"/>
<stop offset="0.79" stop-color="#B7DCF5" stop-opacity="0.3"/>
<stop offset="0.87" stop-color="#A9DBF8" stop-opacity="0.53"/>
<stop offset="0.95" stop-color="#98DBFC" stop-opacity="0.81"/>
<stop offset="1" stop-color="#8CDAFF"/>
</linearGradient>
<clipPath id="clip0_64_1863">
<rect width="168.79" height="70" fill="white"/>
</clipPath>
</defs>
</svg>
