<svg width="31" height="34" viewBox="0 0 31 34" fill="none" xmlns="http://www.w3.org/2000/svg">
<g id="Group 6">
<path id="Vector" d="M14.7299 27L23 16L14.7299 22.5L10 20.5526L14.7299 27Z" fill="#EBF2FF"/>
<path id="Vector_2" d="M2 12H29M2 12V26.667C2 28.5338 2 29.4668 2.36785 30.1798C2.69143 30.807 3.20736 31.3175 3.84241 31.637C4.56365 32 5.5083 32 7.39479 32H23.6052C25.4917 32 26.435 32 27.1562 31.637C27.7913 31.3175 28.3089 30.807 28.6325 30.1798C29 29.4675 29 28.5358 29 26.6726V12M2 12V10.667C2 8.80015 2 7.86603 2.36785 7.15299C2.69143 6.52579 3.20736 6.01622 3.84241 5.69665C4.56436 5.33333 5.51015 5.33333 7.40033 5.33333H8.75M29 12V10.6615C29 8.79832 29 7.86534 28.6325 7.15299C28.3089 6.52579 27.7913 6.01622 27.1562 5.69665C26.4343 5.33333 25.4905 5.33333 23.6003 5.33333H22.25M8.75 5.33333H22.25M8.75 5.33333V2M22.25 5.33333V2" stroke="#EBF2FF" stroke-width="2.8" stroke-linecap="square" stroke-linejoin="round"/>
</g>
</svg>
