<svg width="50" height="50" viewBox="0 0 50 50" fill="none" xmlns="http://www.w3.org/2000/svg">
<rect width="50" height="50" rx="10" fill="#FF734D"/>
<path d="M28.75 21.2501H28.7658M19.25 21.2501H19.2658M39.8333 26.0001C39.8333 34.7446 32.7445 41.8334 24 41.8334C15.2555 41.8334 8.16667 34.7446 8.16667 26.0001C8.16667 17.2556 15.2555 10.1667 24 10.1667C32.7445 10.1667 39.8333 17.2556 39.8333 26.0001ZM29.5417 21.2501C29.5417 21.6873 29.1872 22.0417 28.75 22.0417C28.3128 22.0417 27.9583 21.6873 27.9583 21.2501C27.9583 20.8129 28.3128 20.4584 28.75 20.4584C29.1872 20.4584 29.5417 20.8129 29.5417 21.2501ZM20.0417 21.2501C20.0417 21.6873 19.6872 22.0417 19.25 22.0417C18.8128 22.0417 18.4583 21.6873 18.4583 21.2501C18.4583 20.8129 18.8128 20.4584 19.25 20.4584C19.6872 20.4584 20.0417 20.8129 20.0417 21.2501ZM24 34.7084C27.9591 34.7084 31.125 31.8062 31.125 29.1667H16.875C16.875 31.8062 20.0409 34.7084 24 34.7084Z" stroke="#001751" stroke-width="3" stroke-linecap="round" stroke-linejoin="round"/>
</svg>
