<svg width="27" height="32" viewBox="0 0 27 32" fill="none" xmlns="http://www.w3.org/2000/svg">
<g id="Group">
<path id="Vector" d="M13.5 4.12417L6.28126 11.3429C4.8537 12.7706 3.88155 14.5896 3.48775 16.5698C3.09394 18.55 3.29616 20.6025 4.06884 22.4677C4.84151 24.333 6.14994 25.9273 7.82867 27.0489C9.5074 28.1706 11.481 28.7693 13.5 28.7693C15.519 28.7693 17.4926 28.1706 19.1713 27.0489C20.8501 25.9273 22.1585 24.333 22.9312 22.4677C23.7039 20.6025 23.9061 18.55 23.5123 16.5698C23.1185 14.5896 22.1463 12.7706 20.7188 11.3429L13.5 4.12417ZM13.5 0L22.7808 9.28083C24.6164 11.1164 25.8664 13.4551 26.3728 16.0011C26.8792 18.547 26.6193 21.186 25.6259 23.5843C24.6325 25.9826 22.9502 28.0324 20.7918 29.4746C18.6335 30.9168 16.0959 31.6866 13.5 31.6866C10.9041 31.6866 8.36656 30.9168 6.20816 29.4746C4.04977 28.0324 2.36751 25.9826 1.3741 23.5843C0.380697 21.186 0.120769 18.547 0.627187 16.0011C1.13361 13.4551 2.38362 11.1164 4.21917 9.28083L13.5 0ZM14.9583 15.645H18.6042L12.0417 25.1242V18.5617H8.39584L14.9583 9.0825V15.645Z" fill="#EBF2FF"/>
</g>
</svg>
