<svg width="30" height="30" viewBox="0 0 30 30" fill="none" xmlns="http://www.w3.org/2000/svg">
<g clip-path="url(#clip0_64_2295)">
<path d="M27.7793 0H2.21484C0.990234 0 0 0.966797 0 2.16211V27.832C0 29.0273 0.990234 30 2.21484 30H27.7793C29.0039 30 30 29.0273 30 27.8379V2.16211C30 0.966797 29.0039 0 27.7793 0ZM8.90039 25.5645H4.44727V11.2441H8.90039V25.5645ZM6.67383 9.29297C5.24414 9.29297 4.08984 8.13867 4.08984 6.71484C4.08984 5.29102 5.24414 4.13672 6.67383 4.13672C8.09766 4.13672 9.25195 5.29102 9.25195 6.71484C9.25195 8.13281 8.09766 9.29297 6.67383 9.29297ZM25.5645 25.5645H21.1172V18.6035C21.1172 16.9453 21.0879 14.8066 18.8027 14.8066C16.4883 14.8066 16.1367 16.6172 16.1367 18.4863V25.5645H11.6953V11.2441H15.9609V13.2012H16.0195C16.6113 12.0762 18.0645 10.8867 20.2266 10.8867C24.7324 10.8867 25.5645 13.8516 25.5645 17.707V25.5645Z" fill="#EBF2FF"/>
</g>
<defs>
<clipPath id="clip0_64_2295">
<rect width="30" height="30" fill="white"/>
</clipPath>
</defs>
</svg>
