<svg width="50" height="50" viewBox="0 0 50 50" fill="none" xmlns="http://www.w3.org/2000/svg">
<rect width="50" height="50" rx="10" fill="#61F0FF"/>
<path d="M12.9166 26.5833C12.9166 29.1933 13.9691 31.5574 15.6728 33.2744C15.8371 33.44 15.9192 33.5228 15.9677 33.6025C16.014 33.6784 16.0409 33.7438 16.0616 33.8303C16.0832 33.921 16.0832 34.0242 16.0832 34.2306V37.9833C16.0832 38.4267 16.0832 38.6484 16.1695 38.8177C16.2454 38.9667 16.3665 39.0878 16.5155 39.1637C16.6848 39.25 16.9065 39.25 17.3499 39.25H20.3582C20.8016 39.25 21.0233 39.25 21.1927 39.1637C21.3416 39.0878 21.4627 38.9667 21.5386 38.8177C21.6249 38.6484 21.6249 38.4267 21.6249 37.9833V37.35C21.6249 36.9066 21.6249 36.6849 21.7112 36.5156C21.7871 36.3666 21.9082 36.2455 22.0572 36.1696C22.2265 36.0833 22.4482 36.0833 22.8916 36.0833H25.1082C25.5516 36.0833 25.7733 36.0833 25.9427 36.1696C26.0916 36.2455 26.2127 36.3666 26.2886 36.5156C26.3749 36.6849 26.3749 36.9066 26.3749 37.35V37.9833C26.3749 38.4267 26.3749 38.6484 26.4612 38.8177C26.5371 38.9667 26.6582 39.0878 26.8072 39.1637C26.9765 39.25 27.1982 39.25 27.6416 39.25H30.65C31.0934 39.25 31.3151 39.25 31.4844 39.1637C31.6334 39.0878 31.7545 38.9667 31.8304 38.8177C31.9167 38.6484 31.9167 38.4267 31.9167 37.9833V36.4385C31.9167 36.1186 31.9167 35.9586 31.9622 35.8302C32.0059 35.7071 32.0609 35.621 32.1541 35.5296C32.2514 35.4342 32.4162 35.3577 32.7459 35.2046C34.301 34.4826 35.6281 33.3522 36.5893 31.9511C36.7583 31.7047 36.8428 31.5815 36.9331 31.5088C37.0194 31.4392 37.0968 31.3984 37.203 31.3666C37.3141 31.3333 37.446 31.3333 37.7097 31.3333H38.5667C39.0101 31.3333 39.2318 31.3333 39.4011 31.247C39.5501 31.1711 39.6712 31.05 39.7471 30.9011C39.8334 30.7317 39.8334 30.51 39.8334 30.0667V24.6608C39.8334 24.2387 39.8334 24.0276 39.7549 23.8648C39.6771 23.7032 39.5468 23.5729 39.3852 23.4951C39.2224 23.4167 39.0114 23.4167 38.5893 23.4167C38.2837 23.4167 38.131 23.4167 38.0079 23.3752C37.8752 23.3305 37.7822 23.271 37.6859 23.1693C37.5967 23.075 37.5238 22.9173 37.378 22.602C36.9102 21.5899 36.2695 20.674 35.4938 19.8922C35.3295 19.7266 35.2474 19.6438 35.1989 19.5642C35.1526 19.4882 35.1257 19.4228 35.105 19.3363C35.0834 19.2456 35.0834 19.1425 35.0834 18.9361V17.1792C35.0834 16.6092 35.0834 16.3241 34.9646 16.1326C34.8606 15.9647 34.6977 15.8418 34.5078 15.7879C34.2909 15.7264 34.0169 15.8047 33.4687 15.9613L29.7121 17.0346C29.6483 17.0528 29.6164 17.062 29.5839 17.0684C29.5551 17.074 29.526 17.0781 29.4967 17.0806C29.4638 17.0833 29.4306 17.0833 29.3642 17.0833H28.6852M12.9166 26.5833C12.9166 22.9352 14.9729 19.7674 17.9896 18.1757M12.9166 26.5833H11.3334C9.58445 26.5833 8.16669 25.1656 8.16669 23.4167C8.16669 22.2446 8.8035 21.2212 9.75002 20.6736M28.75 16.2917C28.75 19.3522 26.2689 21.8333 23.2084 21.8333C20.1478 21.8333 17.6667 19.3522 17.6667 16.2917C17.6667 13.2311 20.1478 10.75 23.2084 10.75C26.2689 10.75 28.75 13.2311 28.75 16.2917Z" stroke="#001751" stroke-width="3" stroke-linecap="round" stroke-linejoin="round"/>
</svg>
