<svg width="42" height="40" viewBox="0 0 42 40" fill="none" xmlns="http://www.w3.org/2000/svg">
<rect width="41.1429" height="40" rx="10" fill="#EBF2FF"/>
<g clip-path="url(#clip0_305_8682)">
<path d="M32.1422 14.4662C28.6557 12.4454 25.0843 10.3669 21.2187 8.11289C20.9571 7.96012 20.7216 7.96183 20.4554 8.11746C18.7139 9.13615 16.9399 10.1697 15.2245 11.165L13.5252 12.1535L12.4153 12.7999C11.4599 13.3574 10.4691 13.9344 9.49373 14.4976C9.23834 14.6446 9.12718 14.8396 9.14428 15.1098C9.15169 15.2329 9.14998 15.3606 9.1477 15.4843C9.1477 15.5414 9.1477 15.6035 9.1477 15.6628C9.1477 16.3999 9.52566 16.7738 10.2679 16.7744H11.1948V26.9477H10.7142C10.2787 26.9477 10.1157 27.1124 10.1128 27.5468C10.1128 27.7652 10.1128 27.9835 10.1128 28.2092V28.407H10.0398C9.90988 28.407 9.78674 28.407 9.66361 28.407C9.34722 28.419 9.15568 28.6066 9.15055 28.9081C9.14428 29.3596 9.14428 29.8339 9.15055 30.3578C9.15397 30.6269 9.31359 30.8042 9.5895 30.8452C9.66402 30.854 9.7391 30.8573 9.8141 30.8549H31.925C31.9558 30.8549 31.9877 30.8549 32.0197 30.852C32.3577 30.8287 32.5327 30.6445 32.5327 30.3048C32.5361 29.8373 32.5361 29.3813 32.5327 28.9492C32.5293 28.602 32.3412 28.4139 31.9877 28.4053C31.8737 28.4053 31.7552 28.4053 31.6326 28.4053H31.5693V28.2155C31.5693 28 31.5693 27.7937 31.5693 27.5884C31.5693 27.1045 31.4148 26.9488 30.9383 26.9477H30.4902V16.7733H30.7507C31.03 16.7733 31.2934 16.7733 31.5625 16.7698C31.6901 16.7698 31.8165 16.7446 31.9344 16.6956C32.0523 16.6466 32.1593 16.5749 32.2494 16.4844C32.3394 16.3939 32.4107 16.2865 32.4591 16.1684C32.5076 16.0503 32.5322 15.9238 32.5316 15.7962C32.5316 15.7129 32.5316 15.6291 32.5316 15.5476C32.5266 15.4231 32.5285 15.2985 32.5373 15.1742C32.5641 14.859 32.4427 14.6407 32.1422 14.4662ZM10.1328 29.8641V29.3944H31.5465V29.8641H10.1328ZM11.0871 28.0616C11.0871 28.0211 11.087 27.9795 11.0927 27.9356H30.5797V28.3917H11.0836V28.3677C11.0865 28.2645 11.0859 28.1631 11.0871 28.0616ZM14.4384 26.9289V16.7864H27.2431V26.9289H14.4384ZM13.4306 16.7778V26.9312H12.2009V16.7778H13.4306ZM31.5494 15.795C31.4925 15.8007 31.4353 15.8016 31.3784 15.7979C31.3293 15.7979 31.2729 15.7979 31.2073 15.7979C25.7211 15.7979 20.2348 15.7979 14.7485 15.7979H10.4987C10.3277 15.7979 10.163 15.7979 10.1362 15.7688C10.1094 15.7397 10.1168 15.6223 10.1265 15.4769H31.5562V15.5237C31.5624 15.6149 31.5601 15.7065 31.5494 15.7973V15.795ZM11.469 14.4805L13.4465 13.3295C15.8719 11.9192 18.2968 10.5077 20.7211 9.09511C20.822 9.0381 20.8607 9.03411 20.9411 9.08086C23.4557 10.5482 26.0147 12.0361 28.4893 13.4755L30.2149 14.4805H11.469ZM28.2436 26.9306V16.7869H29.4778V26.9306H28.2436Z" fill="#001751"/>
<path d="M20.2118 21.9358L20.1548 21.9079C20.7123 21.3145 20.8388 20.7005 20.8388 20.2781C20.8425 19.8311 20.7154 19.3928 20.4733 19.0171C20.2311 18.6413 19.8845 18.3446 19.4759 18.1632C19.0673 17.9819 18.6147 17.9239 18.1736 17.9964C17.7325 18.0689 17.3222 18.2688 16.9932 18.5713C16.7661 18.7815 16.5835 19.035 16.4562 19.3171C16.3289 19.5991 16.2595 19.9038 16.2521 20.2131C16.2436 20.6469 16.3593 21.282 16.9362 21.9107L16.8957 21.9295C15.5743 22.5515 14.7768 23.5953 14.5254 25.0312C14.4821 25.2792 14.5106 25.4582 14.6121 25.5796C14.7056 25.6902 14.8509 25.7444 15.0567 25.7444C16.2402 25.7444 17.382 25.7444 18.4982 25.7444C19.7021 25.7444 20.8748 25.7444 22.0354 25.7444C22.2326 25.7444 22.3809 25.6874 22.4761 25.5762C22.5713 25.4651 22.6038 25.3123 22.5741 25.1202C22.3484 23.65 21.5537 22.5788 20.2118 21.9358ZM19.4787 21.1947C19.357 21.3181 19.2121 21.4161 19.0523 21.4832C18.8925 21.5502 18.721 21.5849 18.5478 21.5852H18.5444C18.1987 21.5787 17.8694 21.4369 17.627 21.1903C17.3847 20.9438 17.2486 20.6121 17.248 20.2663C17.2474 19.9206 17.3823 19.5884 17.6238 19.341C17.8653 19.0937 18.1942 18.9508 18.5398 18.943H18.5586C18.9057 18.9482 19.2371 19.0888 19.482 19.3348C19.7269 19.5808 19.8661 19.9127 19.8697 20.2598C19.8695 20.4334 19.8349 20.6053 19.7677 20.7654C19.7006 20.9255 19.6024 21.0706 19.4787 21.1925V21.1947ZM21.4893 24.7588H15.5983C15.7362 23.7121 17.1278 22.6045 18.4064 22.56C20.1325 22.5002 21.2687 23.7594 21.4893 24.7588Z" fill="#001751"/>
<path d="M26.1293 22.6608C26.0734 22.6071 26.0386 22.5351 26.0313 22.4579C26.0216 22.105 26.0233 21.7447 26.025 21.3964C26.025 21.2613 26.025 21.1268 26.025 20.9917C26.025 20.9523 26.025 20.9119 26.025 20.872C26.0313 20.6331 26.0392 20.3429 25.7884 20.1508C26.0883 19.7814 26.0866 19.656 25.7776 19.2701C25.7981 19.2558 25.8172 19.2396 25.8346 19.2216C26.0877 18.9674 26.1008 18.4566 25.8614 18.1898C25.6128 17.9128 25.3603 17.642 25.1106 17.3849C24.9892 17.2601 24.8621 17.1968 24.7321 17.1968C24.5998 17.1968 24.4687 17.2629 24.3427 17.3934C24.2458 17.4943 24.1495 17.5987 24.0577 17.6996C23.934 17.8347 23.8052 17.9738 23.6741 18.1043C23.5944 18.1826 23.5321 18.2769 23.4915 18.3809C23.4508 18.485 23.4326 18.5964 23.4381 18.708C23.4381 19.3431 23.4381 19.9884 23.4381 20.6132C23.4381 21.206 23.4381 21.7991 23.4381 22.3923C23.4381 22.5411 23.4067 22.6158 23.3064 22.7007C23.0648 22.9004 22.8715 23.1521 22.7409 23.437C22.6103 23.7219 22.5458 24.0326 22.5522 24.3459C22.5547 24.838 22.7237 25.3147 23.0318 25.6985C23.3399 26.0822 23.7688 26.3503 24.2487 26.4591C24.4044 26.4967 24.564 26.5158 24.7241 26.5161C25.1716 26.5152 25.6079 26.3767 25.974 26.1194C26.3401 25.8621 26.6182 25.4984 26.7705 25.0777C26.9229 24.657 26.9421 24.1996 26.8257 23.7675C26.7093 23.3355 26.4628 22.9497 26.1196 22.6625L26.1293 22.6608ZM24.4191 20.132C24.4191 19.8261 24.4191 19.5196 24.4191 19.2125C24.4191 18.7359 24.4191 18.6995 24.7378 18.4087L24.9778 18.6675L24.9071 18.7411C24.7919 18.8496 24.6921 18.9736 24.6107 19.1093C24.4607 19.3881 24.6534 19.5756 24.7948 19.7119L24.8016 19.7187L24.7823 19.7387C24.6221 19.8966 24.5485 20.0442 24.5542 20.1902C24.5599 20.3361 24.642 20.4535 24.7971 20.5732C24.9909 20.7232 25.0622 20.8931 25.0502 21.1792C25.0382 21.4654 25.0405 21.7681 25.0422 22.0548C25.0422 22.2732 25.0422 22.4989 25.0422 22.7201C25.0365 22.9937 25.1391 23.1841 25.3746 23.3358C25.6026 23.4799 25.775 23.6973 25.8635 23.9522C25.952 24.2071 25.9513 24.4845 25.8616 24.739C25.7718 24.9935 25.5984 25.21 25.3696 25.3531C25.1408 25.4961 24.8702 25.5573 24.6021 25.5265C24.0093 25.4495 23.5829 25.0077 23.5407 24.4269C23.5183 24.2136 23.5572 23.9984 23.6529 23.8065C23.7487 23.6146 23.8972 23.4541 24.0811 23.3437C24.1916 23.2809 24.2823 23.1882 24.3428 23.0764C24.4033 22.9645 24.4311 22.8379 24.4231 22.711C24.4186 21.8513 24.4197 20.9769 24.4203 20.132H24.4191Z" fill="#001751"/>
<path d="M24.3073 25.1839C24.3634 25.2405 24.4302 25.2854 24.5038 25.3159C24.5774 25.3464 24.6563 25.362 24.736 25.3618C24.8163 25.3617 24.8958 25.3455 24.9698 25.3143C25.0438 25.2831 25.1108 25.2374 25.1669 25.1799C25.2243 25.122 25.2696 25.0532 25.3 24.9775C25.3305 24.9018 25.3455 24.8208 25.3442 24.7393C25.339 24.581 25.2724 24.4309 25.1584 24.3209C25.0445 24.2109 24.8921 24.1495 24.7337 24.1499C24.5753 24.1503 24.4233 24.2123 24.3099 24.3229C24.1964 24.4334 24.1305 24.5838 24.126 24.7421C24.1252 24.8241 24.1409 24.9055 24.172 24.9813C24.2032 25.0572 24.2491 25.1261 24.3073 25.1839Z" fill="#001751"/>
</g>
<defs>
<clipPath id="clip0_305_8682">
<rect width="23.3981" height="22.8571" fill="white" transform="translate(9.14258 8)"/>
</clipPath>
</defs>
</svg>
