<svg width="42" height="40" viewBox="0 0 42 40" fill="none" xmlns="http://www.w3.org/2000/svg">
<rect width="41.1429" height="40" rx="10" fill="#EBF2FF"/>
<g clip-path="url(#clip0_305_8895)">
<path d="M31.9637 22.3691V21.7399C31.9637 21.108 31.9637 20.4539 31.9604 19.8112C31.9591 19.6824 31.9368 19.5547 31.8945 19.4331C31.7838 19.117 31.5788 18.8425 31.3073 18.6466C31.0357 18.4506 30.7106 18.3426 30.3757 18.3372C30.3098 18.3372 30.2396 18.3372 30.1543 18.3372H29.9652H29.7605H29.7065V18.2832C29.7065 18.0979 29.7065 17.9164 29.7065 17.7366C29.7065 17.3439 29.7065 16.9729 29.7065 16.5964C29.7087 15.9181 29.4739 15.2604 29.0427 14.7368C28.612 14.2231 28.0074 13.8857 27.3441 13.7889C27.0879 13.7525 26.8293 13.7362 26.5706 13.7403C26.4691 13.7403 26.3654 13.7403 26.2649 13.7403C26.1644 13.7403 26.0602 13.7403 25.9581 13.7403C25.9003 13.7403 25.8425 13.7403 25.7847 13.7403C25.7183 13.7403 25.647 13.7403 25.5606 13.7403H25.1085V13.6863C25.1085 13.5782 25.1085 13.4772 25.1085 13.3757C25.1085 13.1353 25.1118 12.9085 25.1037 12.6806C25.0966 12.4807 25.1577 12.3754 25.3375 12.2911C25.6316 12.1469 25.876 11.9183 26.0396 11.6345C26.2031 11.3507 26.2784 11.0246 26.2557 10.6978C26.2331 10.3629 26.1099 10.0426 25.9022 9.77896C25.6945 9.51527 25.4121 9.32046 25.0918 9.22004C25.0378 9.20275 24.9838 9.18277 24.9346 9.16279L24.873 9.13956H24.3102L24.2481 9.16279C24.1941 9.18169 24.1439 9.20167 24.0904 9.2168C23.7747 9.31682 23.4957 9.50798 23.2884 9.76622C23.0811 10.0245 22.9548 10.3382 22.9254 10.6681C22.8962 10.9983 22.9677 11.3295 23.1304 11.6183C23.2931 11.907 23.5395 12.1397 23.8371 12.2857C24.0213 12.3749 24.0861 12.4796 24.0774 12.6725C24.0672 12.9004 24.0693 13.1262 24.0715 13.3649C24.0715 13.4648 24.0715 13.5653 24.0715 13.6673V13.7214H17.0716V13.6673C17.0716 13.5798 17.0716 13.4923 17.0716 13.4049C17.0716 13.1094 17.0716 12.8042 17.077 12.505C17.077 12.4343 17.1596 12.3613 17.2153 12.3381C17.5361 12.1989 17.805 11.9623 17.984 11.6618C18.1629 11.3613 18.2428 11.0122 18.2123 10.6638C18.1297 9.88438 17.6722 9.38045 16.8539 9.1671C16.8348 9.16101 16.8166 9.15229 16.7999 9.14118L16.7951 9.13794H16.2933C16.2817 9.15056 16.2667 9.15956 16.2501 9.16386C15.4426 9.35939 14.99 9.84981 14.9041 10.6222C14.8182 11.3945 15.152 11.9725 15.8974 12.3414C15.9411 12.363 16.0249 12.4218 16.0259 12.4899C16.0319 12.7994 16.0313 13.1035 16.0308 13.4254V13.7462H15.4939H15.1607H14.828C14.6049 13.7462 14.3116 13.7462 14.0178 13.7651C12.7318 13.8391 11.6175 14.8907 11.4793 16.1589C11.4418 16.5831 11.4277 17.0089 11.4371 17.4347C11.4371 17.6242 11.4371 17.8198 11.4371 18.012C11.4371 18.0693 11.4371 18.1282 11.4371 18.1897V18.3372H11.0428C10.9818 18.3372 10.9219 18.3372 10.8619 18.3372C9.85567 18.348 9.14973 19.0534 9.14541 20.0521C9.14163 20.758 9.14163 21.4763 9.14541 22.2492C9.13844 22.7069 9.31326 23.1486 9.63152 23.4775C9.96101 23.7966 10.4027 23.9735 10.8614 23.97H11.0482H11.4387V24.0241C11.4387 24.2682 11.4387 24.5094 11.4387 24.7478C11.4387 25.2787 11.4387 25.78 11.4387 26.2909C11.4358 26.6661 11.5078 27.0381 11.6505 27.3851C11.7932 27.7321 12.0037 28.0471 12.2697 28.3117C12.5357 28.5763 12.8519 28.7851 13.1996 28.926C13.5474 29.0668 13.9197 29.1368 14.2949 29.1319C14.6189 29.1319 14.9443 29.1319 15.2709 29.1319H17.1796V29.1859C17.1796 29.3977 17.1796 29.6067 17.1796 29.8141C17.1796 30.3396 17.1796 30.8365 17.1769 31.3426C17.1769 31.6483 17.2515 31.8185 17.4427 31.9297C17.5167 31.9751 17.6016 31.9995 17.6884 32.0005C17.8072 32.0005 17.9299 31.9557 18.0978 31.8503C19.7608 30.8057 21.0393 30.0091 22.2427 29.2659C22.3763 29.1853 22.529 29.1417 22.685 29.1395C23.2732 29.1357 23.8636 29.1352 24.3632 29.1352H25.4212C25.8658 29.1352 26.3935 29.1352 26.9233 29.1319C28.3584 29.1244 29.5699 28.0096 29.6779 26.5934C29.7114 26.1656 29.7087 25.7265 29.706 25.3025C29.706 25.1173 29.706 24.9244 29.706 24.737C29.706 24.5798 29.706 24.4194 29.706 24.2644C29.706 24.192 29.706 24.1197 29.706 24.0484V23.9981L29.7562 23.9944C29.8588 23.9873 29.9598 23.983 30.0576 23.9792C30.2599 23.975 30.4618 23.9581 30.662 23.9285C31.0286 23.8651 31.3608 23.6735 31.5992 23.3879C31.8376 23.1022 31.9668 22.7412 31.9637 22.3691ZM11.4285 19.4406V22.9098H11.3745C11.3026 22.9098 11.2303 22.9098 11.1584 22.9136C11.0866 22.9174 11.0175 22.9168 10.9472 22.9168C10.857 22.9177 10.7669 22.9133 10.6772 22.9039C10.5474 22.8857 10.4283 22.8223 10.3407 22.7249C10.2532 22.6275 10.2029 22.5022 10.1986 22.3713C10.1862 21.5071 10.1868 20.7056 10.1986 19.9278C10.2035 19.6464 10.4239 19.4207 10.7231 19.391C10.7955 19.3839 10.8732 19.3801 10.9678 19.3801C11.032 19.3801 11.0958 19.3801 11.1633 19.3834C11.2308 19.3866 11.3021 19.3866 11.3739 19.3866H11.4279L11.4285 19.4406ZM23.9683 10.8074C23.9691 10.7264 23.9859 10.6462 24.0176 10.5716C24.0493 10.497 24.0955 10.4294 24.1534 10.3726C24.2112 10.3159 24.2797 10.271 24.3549 10.2407C24.4301 10.2104 24.5106 10.1952 24.5916 10.196H24.6003C24.7606 10.204 24.9116 10.2737 25.0217 10.3905C25.1318 10.5073 25.1924 10.6621 25.191 10.8226C25.1895 10.9831 25.126 11.1368 25.0138 11.2516C24.9016 11.3663 24.7494 11.4332 24.5889 11.4383H24.5792C24.4974 11.4381 24.4165 11.4216 24.3412 11.3896C24.2659 11.3577 24.1977 11.3111 24.1406 11.2525C24.0265 11.1328 23.9645 10.9728 23.9683 10.8074ZM15.9293 10.8107C15.9297 10.7293 15.9462 10.6487 15.9778 10.5737C16.0095 10.4987 16.0557 10.4307 16.1137 10.3736C16.1717 10.3164 16.2404 10.2713 16.3159 10.2409C16.3914 10.2104 16.4722 10.1952 16.5536 10.196H16.5601C16.7204 10.2037 16.8715 10.2731 16.9818 10.3896C17.0921 10.5062 17.153 10.6609 17.1519 10.8213C17.1508 10.9818 17.0877 11.1356 16.9758 11.2506C16.8639 11.3655 16.7118 11.4328 16.5515 11.4383H16.545C16.463 11.4385 16.3817 11.4223 16.3061 11.3907C16.2304 11.359 16.1619 11.3125 16.1045 11.2539C16.0471 11.1953 16.002 11.1258 15.9719 11.0495C15.9418 10.9732 15.9273 10.8916 15.9293 10.8096V10.8107ZM28.6619 26.1937C28.6619 27.3431 27.9209 28.0841 26.7748 28.0873H24.6359C24.0002 28.0873 23.2457 28.0873 22.469 28.0965C22.2648 28.1006 22.0652 28.1573 21.8894 28.2613C21.0555 28.7695 20.2151 29.2967 19.4006 29.8071L18.5413 30.3472C18.5002 30.3726 18.4586 30.3969 18.4052 30.4282L18.3058 30.486L18.2248 30.5341V29.9129C18.2248 29.5284 18.2248 29.1568 18.2248 28.7868C18.2248 28.2737 18.0444 28.0917 17.5377 28.0911H14.3743C13.2265 28.0911 12.4839 27.349 12.4839 26.2045C12.4839 22.9563 12.4839 19.7496 12.4839 16.6731C12.4839 15.5253 13.2276 14.7827 14.377 14.7827H26.758C27.9144 14.7827 28.6614 15.5302 28.6619 16.6877C28.6625 19.7415 28.6625 22.8542 28.6619 26.1937ZM30.9488 22.334C30.945 22.6554 30.7009 22.9017 30.3682 22.9201C30.3023 22.9233 30.231 22.9249 30.1451 22.9249H29.9642C29.902 22.9249 29.8383 22.9249 29.774 22.9249H29.72V19.3845H29.774C29.8443 19.3845 29.9128 19.3845 29.9787 19.3845C30.0446 19.3845 30.1057 19.3812 30.1678 19.3812C30.2462 19.3806 30.3246 19.3841 30.4027 19.3915C30.5519 19.4005 30.6919 19.4667 30.7936 19.5762C30.8953 19.6857 30.9509 19.8302 30.9488 19.9797C30.9591 20.8185 30.9585 21.5876 30.9488 22.334Z" fill="#001751"/>
<path d="M20.6367 23.8064C20.1273 23.8051 19.6186 23.769 19.1141 23.6984C18.3157 23.5914 17.539 23.3601 16.8121 23.013C16.7281 22.9713 16.6358 22.949 16.542 22.9476C16.4421 22.9469 16.3442 22.9766 16.2615 23.0328C16.1787 23.0889 16.1149 23.1688 16.0786 23.262C15.9593 23.545 16.0905 23.8232 16.4135 23.9701C17.6955 24.5556 19.089 24.8569 20.4984 24.8532H20.6372C22.0499 24.8586 23.447 24.5578 24.7324 23.9717C24.8909 23.9079 25.0175 23.7838 25.0845 23.6266C25.1096 23.5503 25.1164 23.4692 25.1045 23.3898C25.0926 23.3104 25.0623 23.2348 25.016 23.1692C24.9697 23.1036 24.9087 23.0498 24.8379 23.0119C24.7671 22.9741 24.6884 22.9534 24.6081 22.9514C24.5055 22.9531 24.4045 22.977 24.3121 23.0216C23.1714 23.5499 21.968 23.8064 20.6367 23.8064Z" fill="#001751"/>
<path d="M23.4689 18.3302H23.4294C23.0122 18.3344 22.6118 18.4949 22.3072 18.78C22.0026 19.0651 21.816 19.4541 21.7842 19.8701C21.7561 20.2319 21.9279 20.4772 22.232 20.5096C22.2558 20.5096 22.2801 20.5133 22.3027 20.5133C22.589 20.5133 22.7759 20.3167 22.8148 19.9732C22.851 19.6546 23.0513 19.4277 23.3381 19.3791C23.3721 19.3737 23.4064 19.371 23.4408 19.371C23.5596 19.3696 23.6762 19.4029 23.7763 19.4669C23.8764 19.5309 23.9556 19.6228 24.0041 19.7313C24.0412 19.8257 24.0654 19.9247 24.0759 20.0256C24.1197 20.3292 24.3098 20.5117 24.5842 20.5117C24.6038 20.5128 24.6235 20.5128 24.6431 20.5117C24.9272 20.4863 25.1081 20.2644 25.1043 19.9457C25.0935 19.0761 24.36 18.3523 23.4689 18.3302Z" fill="#001751"/>
<path d="M17.7045 18.3026V18.3296H17.6926C16.7927 18.3361 16.0344 19.0858 16.0371 19.9678C16.0371 20.2789 16.2337 20.4976 16.5232 20.5122H16.5545C16.8332 20.5122 17.0352 20.321 17.0693 20.0261C17.1157 19.62 17.3393 19.3823 17.6855 19.3747H17.7028C18.0507 19.3747 18.2813 19.6097 18.3348 20.0196C18.3753 20.328 18.5654 20.5122 18.8436 20.5122C18.8598 20.5122 18.877 20.5122 18.8938 20.5122C19.1898 20.489 19.3691 20.2665 19.3621 19.9311C19.3566 19.7193 19.3093 19.5108 19.223 19.3173C19.1367 19.1239 19.0131 18.9494 18.8592 18.8038C18.5505 18.502 18.1362 18.3324 17.7045 18.3312V18.3042V18.3026Z" fill="#001751"/>
</g>
<defs>
<clipPath id="clip0_305_8895">
<rect width="22.822" height="22.8571" fill="white" transform="translate(9.14258 9.14282)"/>
</clipPath>
</defs>
</svg>
