<svg width="42" height="40" viewBox="0 0 42 40" fill="none" xmlns="http://www.w3.org/2000/svg">
<rect width="41.1429" height="40" rx="10" fill="#EBF2FF"/>
<g clip-path="url(#clip0_305_9100)">
<path d="M31.9987 29.6656C31.9987 23.6041 31.9987 17.5427 31.9987 11.4815C31.9987 10.5262 31.5873 9.79621 30.7192 9.38369C30.4023 9.24238 30.0601 9.16634 29.7131 9.1601C28.7069 9.13159 27.7047 9.15004 26.7008 9.15004C21.6271 9.15004 16.5536 9.15004 11.4804 9.15004C10.5251 9.15004 9.80958 9.56703 9.37413 10.4245C9.27184 10.6263 9.22041 10.8532 9.14551 11.0684V30.0809C9.28805 30.4107 9.3909 30.7662 9.58207 31.0647C9.89957 31.5606 10.392 31.8345 10.9661 31.9591C11.0003 31.9697 11.0335 31.9836 11.065 32.0005H30.082C30.485 31.8747 30.8853 31.7512 31.2134 31.4611C31.441 31.2635 31.6273 31.0228 31.7616 30.753C31.8959 30.4831 31.9756 30.1894 31.9959 29.8887C32.0015 29.8149 31.9987 29.74 31.9987 29.6656ZM10.0997 11.0276C10.2042 10.477 10.6933 10.1064 11.2646 10.0505C11.368 10.0405 11.4725 10.0416 11.5765 10.0416H29.561C30.5829 10.0416 31.1061 10.5687 31.1061 11.5972V12.3546H10.0136C10.0388 11.9069 10.0175 11.4575 10.0997 11.0276ZM30.8439 30.5538C30.5644 30.9351 30.1731 31.105 29.7069 31.1072C29.2508 31.1072 28.7947 31.1072 28.3386 31.1072C28.3084 31.1072 28.2782 31.1072 28.2469 31.1072C24.0741 31.1072 15.7605 31.1072 11.5894 31.1072C11.4854 31.1072 11.3809 31.1072 11.2769 31.1016C10.7397 31.0631 10.2238 30.6578 10.1533 30.2151H13.4122C13.7694 30.2151 14.1266 30.2212 14.4832 30.2151C14.8186 30.2067 15.0204 29.9568 14.9455 29.6561C14.8896 29.4398 14.7101 29.3269 14.4049 29.3263H10.0499V13.2675H31.1088V24.4744C31.1088 26.2001 31.1088 27.9255 31.1088 29.6505C31.1077 29.9792 31.0429 30.2861 30.8439 30.5538Z" fill="#001751"/>
<path d="M14.4443 19.8618C13.6617 19.8581 12.8806 19.8581 12.1011 19.8618C11.759 19.8618 11.5823 20.0239 11.5784 20.3615C11.5702 21.1575 11.5702 21.9533 11.5784 22.7489C11.5818 23.0882 11.7578 23.2475 12.0988 23.252C12.4856 23.2559 12.8725 23.252 13.2593 23.252C13.6461 23.252 14.048 23.2548 14.4421 23.252C14.7841 23.2486 14.9608 23.0899 14.9647 22.7517C14.9729 21.9561 14.9729 21.1603 14.9647 20.3643C14.9608 20.025 14.7853 19.8629 14.4443 19.8618ZM14.0603 22.3414H12.475V20.769H14.0603V22.3414Z" fill="#001751"/>
<path d="M14.4323 24.8601C13.6587 24.8572 12.885 24.8572 12.1114 24.8601C11.7559 24.8601 11.5815 25.0217 11.5781 25.3727C11.5703 26.1609 11.5703 26.9492 11.5781 27.7378C11.5815 28.0888 11.7559 28.2476 12.1114 28.2503C12.4982 28.2537 12.885 28.2503 13.2718 28.2503C13.6587 28.2503 14.0455 28.2503 14.4323 28.2503C14.7872 28.2476 14.9616 28.0888 14.9655 27.7378C14.9726 26.9496 14.9726 26.1613 14.9655 25.3727C14.9616 25.0217 14.7872 24.8613 14.4323 24.8601ZM14.0678 27.3409H12.4826V25.7696H14.0678V27.3409Z" fill="#001751"/>
<path d="M12.1178 18.2536C12.5046 18.2536 12.8914 18.2536 13.2783 18.2536C13.6651 18.2536 14.0519 18.2536 14.4387 18.2536C14.7914 18.2502 14.963 18.0898 14.9664 17.7354C14.9735 16.9472 14.9735 16.1589 14.9664 15.3703C14.963 15.0294 14.7892 14.8673 14.4504 14.8639C13.6679 14.8598 12.8866 14.8598 12.1066 14.8639C11.7545 14.8639 11.5829 15.0277 11.5795 15.3815C11.5724 16.1641 11.5724 16.9452 11.5795 17.7248C11.5801 18.0914 11.7495 18.2502 12.1178 18.2536ZM12.4834 15.7728H14.0692V17.3435H12.4834V15.7728Z" fill="#001751"/>
<path d="M29.3117 24.8998C29.0725 24.7958 28.8992 24.9132 28.7388 25.0759C28.4688 25.3503 28.1955 25.6214 27.9059 25.9143C27.6007 25.6046 27.3117 25.3062 27.0166 25.0132C26.874 24.8718 26.7024 24.8159 26.5074 24.9015C26.4239 24.9355 26.3532 24.9947 26.3051 25.0709C26.257 25.147 26.2339 25.2363 26.239 25.3263C26.239 26.129 26.2351 26.9317 26.239 27.7343C26.239 28.0138 26.4274 28.2011 26.6739 28.2056C26.9204 28.21 27.1127 28.025 27.125 27.7494C27.1379 27.4526 27.1289 27.1547 27.1289 26.8551C27.1289 26.7176 27.1289 26.5801 27.1289 26.4426L27.2077 26.39C27.2552 26.4722 27.3096 26.5502 27.3704 26.6231C27.8444 27.1027 27.9741 27.1033 28.442 26.6315C28.5089 26.5569 28.5716 26.4788 28.6298 26.3973L28.6935 26.4442V26.66C28.6935 27.0166 28.6874 27.3738 28.6935 27.7304C28.6997 28.0099 28.8825 28.1977 29.1278 28.2028C29.3732 28.2078 29.5666 28.015 29.5828 27.7265C29.5828 27.6896 29.5828 27.6522 29.5828 27.6147C29.5828 26.8881 29.5828 26.158 29.5828 25.4297C29.5918 25.1999 29.546 25.001 29.3117 24.8998Z" fill="#001751"/>
<path d="M18.9572 18.0356C19.0656 18.21 19.2299 18.2866 19.4345 18.2302C19.6581 18.1692 19.766 18.0105 19.7699 17.783C19.7744 17.3531 19.7699 16.9238 19.7699 16.494L19.856 16.4325C19.894 16.5052 19.9391 16.5739 19.9907 16.6376C20.467 17.1191 20.9454 17.5978 21.4262 18.0736C21.5737 18.2201 21.7431 18.2972 21.9516 18.2117C22.1601 18.1262 22.2311 17.9624 22.2311 17.7494C22.2311 16.9669 22.2311 16.1877 22.2283 15.4062C22.229 15.3248 22.2144 15.2441 22.1853 15.1681C22.1472 15.0784 22.0797 15.0043 21.994 14.9579C21.9083 14.9115 21.8094 14.8955 21.7135 14.9126C21.4972 14.9512 21.349 15.12 21.3418 15.3766C21.33 15.7556 21.3384 16.1351 21.3367 16.5147C21.3367 16.5666 21.3244 16.6186 21.311 16.7254C21.2165 16.6181 21.1612 16.5476 21.098 16.4845C20.6259 16.0105 20.1523 15.5374 19.6771 15.0652C19.5357 14.9244 19.3702 14.8567 19.1707 14.9361C19.0849 14.9651 19.0107 15.0209 18.959 15.0953C18.9072 15.1697 18.8808 15.2587 18.8834 15.3492C18.8774 16.1601 18.8774 16.9708 18.8834 17.7813C18.8848 17.8711 18.9103 17.959 18.9572 18.0356Z" fill="#001751"/>
<path d="M22.9748 22.9004C22.9969 22.9994 23.0547 23.0868 23.1372 23.1459C23.2197 23.205 23.3211 23.2316 23.422 23.2207C23.5231 23.2159 23.6193 23.1755 23.6934 23.1065C23.7675 23.0375 23.8148 22.9444 23.8267 22.8439C23.8396 22.7517 23.839 22.6572 23.8468 22.5303C24.2001 22.7427 24.5277 22.9434 24.8591 23.1374C25.114 23.2861 25.3773 23.2374 25.5098 23.0256C25.6501 22.802 25.5785 22.5426 25.3242 22.3755C25.1878 22.286 25.0447 22.2078 24.877 22.1038C24.9284 22.0697 24.9508 22.053 24.9748 22.0384C25.4639 21.7349 25.6814 21.2335 25.5416 20.7293C25.3924 20.1882 24.957 19.8657 24.3644 19.8595C24.0889 19.8562 23.8138 19.8595 23.5388 19.8595C23.1051 19.8595 22.9435 20.0183 22.9424 20.4487C22.9424 21.1776 22.9424 21.9065 22.9424 22.6354C22.9418 22.7247 22.9527 22.8138 22.9748 22.9004ZM23.8429 20.7595C24.0536 20.7595 24.2633 20.7332 24.4578 20.7718C24.5455 20.7885 24.6663 20.9395 24.6646 21.025C24.6629 21.1105 24.5394 21.2536 24.4494 21.2721C24.2588 21.3101 24.0553 21.2832 23.8407 21.2832L23.8429 20.7595Z" fill="#001751"/>
<path d="M20.5865 19.8618C19.6625 19.8528 18.8727 20.6399 18.8799 21.5622C18.8812 21.8965 18.9812 22.2229 19.1676 22.5005C19.354 22.778 19.6183 22.9942 19.9273 23.1219C20.2362 23.2495 20.5761 23.2829 20.904 23.2178C21.2319 23.1528 21.5332 22.9921 21.77 22.7562C22.0069 22.5202 22.1686 22.2195 22.2348 21.8918C22.3011 21.5641 22.2689 21.2242 22.1424 20.9147C22.0159 20.6053 21.8006 20.3402 21.5238 20.1528C21.2469 19.9655 20.9208 19.8642 20.5865 19.8618ZM20.5731 22.3582C20.466 22.3605 20.3595 22.3415 20.26 22.302C20.1604 22.2626 20.0697 22.2037 19.9933 22.1286C19.9168 22.0536 19.8562 21.964 19.815 21.8652C19.7737 21.7663 19.7527 21.6603 19.7531 21.5532C19.7535 21.4461 19.7753 21.3401 19.8174 21.2416C19.8594 21.1431 19.9207 21.054 19.9977 20.9795C20.0747 20.9051 20.1658 20.8468 20.2657 20.8082C20.3656 20.7695 20.4722 20.7512 20.5792 20.7545C20.7882 20.7607 20.9866 20.8484 21.1319 20.9987C21.2772 21.149 21.3581 21.3502 21.3573 21.5593C21.3565 21.7684 21.2741 21.9689 21.1276 22.1182C20.9811 22.2674 20.7821 22.3535 20.5731 22.3582Z" fill="#001751"/>
<path d="M24.0486 24.8607C23.1307 24.8451 22.3633 25.5952 22.3404 26.5309C22.3174 27.4477 23.067 28.223 24.0005 28.2492C24.9161 28.2744 25.6864 27.5309 25.7188 26.5902C25.7512 25.6684 24.9871 24.8775 24.0486 24.8607ZM24.0218 27.3571C23.8634 27.3563 23.7088 27.3087 23.5775 27.2202C23.4461 27.1317 23.3439 27.0064 23.2838 26.8599C23.2236 26.7134 23.2081 26.5524 23.2392 26.3971C23.2704 26.2419 23.3468 26.0993 23.4589 25.9874C23.5709 25.8755 23.7136 25.7993 23.8689 25.7683C24.0242 25.7374 24.1852 25.7531 24.3316 25.8135C24.478 25.8739 24.6032 25.9763 24.6915 26.1077C24.7798 26.2392 24.8273 26.3938 24.8278 26.5522C24.8282 26.6579 24.8078 26.7627 24.7675 26.8605C24.7273 26.9583 24.6681 27.0471 24.5934 27.1219C24.5187 27.1968 24.4299 27.2561 24.3322 27.2964C24.2345 27.3368 24.1297 27.3574 24.024 27.3571H24.0218Z" fill="#001751"/>
<path d="M29.2732 21.1407C28.9709 21.1122 28.6666 21.1122 28.3643 21.1407C28.2727 21.1474 28.1875 21.1902 28.1275 21.2597C28.0674 21.3292 28.0374 21.4197 28.044 21.5113C28.0541 21.6544 28.1508 21.8064 28.2469 21.9227C28.3028 21.9903 28.4336 21.9954 28.551 22.0345C28.3341 22.2961 28.0708 22.4034 27.7522 22.3397C27.5642 22.303 27.396 22.1992 27.2789 22.0476C27.1619 21.8959 27.104 21.7069 27.1161 21.5157C27.1368 21.111 27.4291 20.8114 27.8556 20.7572C28.2083 20.7119 28.376 20.5387 28.3436 20.2541C28.3134 19.9802 28.0826 19.8355 27.7449 19.8774C26.4895 20.0339 25.8332 21.3447 26.466 22.433C26.8305 23.0602 27.6337 23.3894 28.3324 23.1972C29.082 22.9914 29.6075 22.3235 29.6008 21.5845C29.5985 21.3531 29.4862 21.1602 29.2732 21.1407Z" fill="#001751"/>
<path d="M21.2067 27.0854C21.1441 27.1257 21.0899 27.1782 21.0278 27.2179C20.7455 27.3979 20.4526 27.4158 20.1653 27.2408C19.878 27.0659 19.7416 26.8004 19.7818 26.4689C19.8221 26.1374 20.0161 25.8976 20.3481 25.7931C20.6555 25.6964 20.911 25.7981 21.1525 25.991C21.3833 26.1749 21.6466 26.1475 21.8048 25.9451C21.963 25.7428 21.9278 25.503 21.7176 25.3113C21.4742 25.0869 21.1703 24.9388 20.8437 24.8852C20.517 24.8317 20.1817 24.875 19.8794 25.0099C19.5771 25.1449 19.321 25.3654 19.1427 25.6443C18.9644 25.9232 18.8717 26.2483 18.8761 26.5793C18.8806 26.9103 18.9819 27.2328 19.1676 27.5068C19.3534 27.7809 19.6153 27.9945 19.9212 28.1212C20.227 28.248 20.5632 28.2824 20.8884 28.2201C21.2135 28.1578 21.5133 28.0016 21.7506 27.7708C21.9339 27.5947 21.9501 27.3543 21.8065 27.1671C21.6628 26.9798 21.4174 26.9468 21.2067 27.0854Z" fill="#001751"/>
<path d="M23.8391 18.2536C24.189 18.257 24.5384 18.2536 24.8883 18.2536C25.227 18.2536 25.44 18.0725 25.4344 17.7997C25.4288 17.527 25.222 17.3654 24.8939 17.3621C24.6658 17.3621 24.4377 17.3621 24.2035 17.3621V17.0267C24.3455 17.0267 24.4774 17.0317 24.6093 17.0267C24.9129 17.0127 25.1001 16.8484 25.1085 16.5946C25.1169 16.3408 24.9224 16.1541 24.6116 16.1373C24.4802 16.1306 24.3489 16.1373 24.2119 16.1373V15.802C24.4674 15.802 24.7055 15.8081 24.9425 15.802C25.2365 15.793 25.431 15.6125 25.4344 15.3604C25.4378 15.1083 25.2348 14.9165 24.9313 14.9132C24.5669 14.9087 24.2047 14.9093 23.838 14.9132C23.4713 14.9171 23.3064 15.087 23.3041 15.4504C23.2997 16.2087 23.2997 16.9672 23.3041 17.726C23.3041 18.0787 23.4802 18.2492 23.8391 18.2536Z" fill="#001751"/>
<path d="M26.8678 15.794C27.0271 15.7985 27.1869 15.794 27.3569 15.794C27.3569 16.2809 27.3569 16.7331 27.3569 17.1853C27.3569 17.3933 27.3479 17.6023 27.3619 17.8091C27.3648 17.9261 27.4131 18.0372 27.4966 18.1192C27.58 18.2011 27.6921 18.2473 27.8091 18.2479C28.0461 18.2452 28.2272 18.0629 28.2479 17.8008C28.254 17.7192 28.2479 17.637 28.2479 17.5554V15.794C28.4346 15.794 28.59 15.7985 28.7454 15.794C29.0589 15.7834 29.2484 15.6113 29.244 15.3424C29.2395 15.0735 29.0517 14.9053 28.7359 14.9036C28.112 14.8995 27.4882 14.8995 26.8644 14.9036C26.5508 14.9036 26.3613 15.0791 26.3613 15.348C26.3613 15.6168 26.5531 15.7868 26.8678 15.794Z" fill="#001751"/>
<path d="M17.313 22.3626C17.2547 22.3636 17.1972 22.3761 17.1438 22.3994C17.0903 22.4227 17.042 22.4562 17.0015 22.4981C16.961 22.5401 16.9292 22.5896 16.9078 22.6438C16.8865 22.6981 16.876 22.756 16.877 22.8143C16.878 22.8726 16.8905 22.9301 16.9138 22.9835C16.9371 23.037 16.9706 23.0853 17.0125 23.1258C17.0545 23.1663 17.104 23.1981 17.1582 23.2195C17.2125 23.2408 17.2704 23.2513 17.3287 23.2503C17.387 23.2492 17.4445 23.2367 17.4979 23.2135C17.5514 23.1902 17.5997 23.1567 17.6402 23.1147C17.6807 23.0728 17.7125 23.0233 17.7339 22.9691C17.7552 22.9148 17.7657 22.8569 17.7647 22.7986C17.7637 22.7403 17.7512 22.6828 17.7279 22.6294C17.7046 22.5759 17.6711 22.5276 17.6292 22.4871C17.5872 22.4466 17.5377 22.4148 17.4835 22.3934C17.4292 22.3721 17.3713 22.3616 17.313 22.3626Z" fill="#001751"/>
<path d="M17.3239 17.3632C17.2058 17.3622 17.0922 17.4082 17.008 17.491C16.9238 17.5738 16.876 17.6867 16.875 17.8048C16.8741 17.9228 16.92 18.0365 17.0029 18.1207C17.0857 18.2048 17.1985 18.2527 17.3166 18.2536C17.3762 18.2561 17.4357 18.2465 17.4916 18.2255C17.5474 18.2045 17.5984 18.1724 17.6416 18.1312C17.6848 18.09 17.7192 18.0406 17.7429 17.9858C17.7665 17.931 17.7789 17.8721 17.7793 17.8124C17.7797 17.7527 17.768 17.6936 17.7451 17.6386C17.7221 17.5835 17.6883 17.5336 17.6456 17.4919C17.603 17.4502 17.5523 17.4175 17.4968 17.3958C17.4412 17.374 17.3818 17.3637 17.3222 17.3654L17.3239 17.3632Z" fill="#001751"/>
<path d="M17.3027 27.3208C17.2446 27.3219 17.1874 27.3345 17.1342 27.3577C17.081 27.381 17.0329 27.4145 16.9926 27.4564C16.9523 27.4983 16.9207 27.5476 16.8996 27.6017C16.8784 27.6558 16.8681 27.7135 16.8692 27.7716C16.8704 27.8296 16.8829 27.8869 16.9062 27.9401C16.9295 27.9933 16.963 28.0414 17.0049 28.0817C17.0467 28.1219 17.0961 28.1536 17.1502 28.1747C17.2043 28.1959 17.262 28.2062 17.32 28.2051C17.3781 28.2039 17.4354 28.1914 17.4886 28.1681C17.5418 28.1448 17.5899 28.1113 17.6301 28.0694C17.6704 28.0276 17.702 27.9782 17.7232 27.9241C17.7444 27.87 17.7547 27.8123 17.7535 27.7543C17.7524 27.6962 17.7398 27.6389 17.7166 27.5857C17.6933 27.5325 17.6598 27.4844 17.6179 27.4441C17.576 27.4039 17.5267 27.3723 17.4726 27.3511C17.4185 27.3299 17.3608 27.3196 17.3027 27.3208Z" fill="#001751"/>
<path d="M29.2927 10.7941C29.2004 10.7666 29.1044 10.7542 29.0082 10.7572C25.7352 10.7549 22.4625 10.7549 19.1903 10.7572C18.8292 10.7572 18.6123 10.9249 18.6123 11.2044C18.6123 11.4838 18.8286 11.6487 19.1897 11.6515H24.0987C25.7275 11.6515 27.3564 11.6515 28.9852 11.6515C29.0888 11.6554 29.1924 11.643 29.2921 11.6146C29.3766 11.585 29.4499 11.5299 29.5017 11.4568C29.5535 11.3838 29.5813 11.2964 29.5813 11.2069C29.5813 11.1173 29.5535 11.03 29.5017 10.9569C29.4499 10.8839 29.3766 10.8287 29.2921 10.7991L29.2927 10.7941Z" fill="#001751"/>
<path d="M12.0061 10.7593C11.9186 10.7578 11.8325 10.7823 11.7589 10.8297C11.6852 10.877 11.6273 10.9452 11.5924 11.0255C11.5574 11.1058 11.5471 11.1947 11.5628 11.2809C11.5784 11.3671 11.6192 11.4467 11.68 11.5096C11.7409 11.5726 11.8191 11.6161 11.9047 11.6347C11.9903 11.6532 12.0794 11.6459 12.1609 11.6138C12.2424 11.5816 12.3125 11.5261 12.3623 11.4541C12.4122 11.3821 12.4396 11.2969 12.441 11.2093C12.4388 11.0933 12.3927 10.9823 12.312 10.8989C12.2313 10.8154 12.1221 10.7655 12.0061 10.7593Z" fill="#001751"/>
<path d="M13.7867 10.7594C13.6993 10.759 13.6136 10.7844 13.5406 10.8326C13.4676 10.8808 13.4105 10.9495 13.3766 11.0301C13.3426 11.1107 13.3332 11.1996 13.3497 11.2855C13.3662 11.3714 13.4077 11.4505 13.4691 11.5128C13.5305 11.5751 13.6089 11.6178 13.6946 11.6356C13.7802 11.6534 13.8692 11.6454 13.9503 11.6126C14.0314 11.5798 14.101 11.5238 14.1503 11.4515C14.1995 11.3793 14.2263 11.294 14.2272 11.2066C14.2238 11.0902 14.1765 10.9794 14.0948 10.8965C14.0131 10.8135 13.903 10.7646 13.7867 10.7594Z" fill="#001751"/>
<path d="M15.5886 10.7594C15.5011 10.756 15.4146 10.7787 15.34 10.8245C15.2654 10.8703 15.206 10.9372 15.1694 11.0167C15.1328 11.0963 15.1206 11.1849 15.1344 11.2713C15.1482 11.3578 15.1873 11.4383 15.2468 11.5025C15.3062 11.5668 15.3834 11.6119 15.4686 11.6323C15.5537 11.6527 15.643 11.6473 15.7251 11.617C15.8073 11.5866 15.8785 11.5326 15.93 11.4617C15.9814 11.3909 16.0106 11.3063 16.014 11.2188C16.0138 11.1028 15.9699 10.9911 15.8911 10.906C15.8123 10.8208 15.7043 10.7685 15.5886 10.7594Z" fill="#001751"/>
</g>
<defs>
<clipPath id="clip0_305_9100">
<rect width="22.8571" height="22.8571" fill="white" transform="translate(9.14258 9.14282)"/>
</clipPath>
</defs>
</svg>
