<svg width="42" height="40" viewBox="0 0 42 40" fill="none" xmlns="http://www.w3.org/2000/svg">
<rect width="41.1429" height="40" rx="10" fill="#EBF2FF"/>
<g clip-path="url(#clip0_312_9261)">
<path d="M31.1518 16.0368C30.6113 15.1132 29.7745 14.3992 28.7774 14.0108C28.4501 13.8905 28.1148 13.7933 27.7739 13.7198C27.6568 13.6923 27.5364 13.6636 27.4177 13.6326C27.2939 12.8369 26.8899 12.1116 26.2784 11.5876C25.667 11.0635 24.8884 10.7753 24.0831 10.7748C23.8738 10.7745 23.6649 10.7933 23.459 10.831C23.4093 10.8183 23.364 10.7925 23.3279 10.7562C22.2873 9.68689 21.0885 9.1438 19.7648 9.1438C19.3141 9.14635 18.8655 9.20515 18.4293 9.31883C17.5086 9.55407 16.7359 9.98179 16.1315 10.589C15.5377 11.1856 15.1033 11.96 14.8404 12.8903C14.7863 13.0954 14.7439 13.3034 14.7132 13.5133C14.7042 13.5656 14.6958 13.6185 14.6862 13.672H14.6823C14.5945 13.6844 14.5084 13.6968 14.4217 13.708C13.1898 13.8712 12.0338 14.5736 11.2504 15.6361C10.467 16.6987 10.1383 18.0111 10.3499 19.238C10.557 20.4514 11.1378 21.4892 12.022 22.2405C12.9061 22.9918 14.0278 23.3891 15.2563 23.3897H17.2649H20.5657V24.8732H15.1894C14.8286 24.8811 14.6508 25.0561 14.644 25.4095C14.6406 25.6088 14.644 25.8108 14.644 26.0061C14.644 26.0894 14.644 26.1749 14.644 26.2554V27.7187H14.052C13.8651 27.7187 13.7143 27.7187 13.5708 27.7187C13.1583 27.722 12.9821 27.901 12.9815 28.3158C12.9815 29.0412 12.9815 29.779 12.9815 30.491V31.1866C12.9815 31.2147 12.9815 31.2429 12.9815 31.2704C12.979 31.3538 12.9808 31.4372 12.9872 31.5203C13.0131 31.8192 13.2027 31.9976 13.4937 31.9981C14.0463 31.9981 14.599 31.9981 15.1517 31.9981C15.7285 31.9981 16.2519 31.9981 16.7517 31.9981C17.0623 31.9981 17.2638 31.7978 17.2649 31.4916C17.2694 30.4026 17.27 29.3057 17.2649 28.2325C17.2649 27.9151 17.0702 27.7288 16.7342 27.7215C16.6104 27.7215 16.4798 27.7181 16.311 27.7181H15.7066C15.6818 27.7181 15.657 27.7181 15.6317 27.7181V25.8603H20.5584V27.7175H20.0052H19.5476C19.0974 27.7175 18.9285 27.8864 18.9285 28.3254C18.9285 29.42 18.9285 30.4263 18.9285 31.4016C18.9285 31.8253 19.1047 31.9987 19.5347 31.9987H22.5872C23.0285 31.9987 23.2001 31.8298 23.2007 31.3858C23.2007 30.3199 23.2007 29.2562 23.2007 28.3558C23.2007 27.8796 23.0403 27.7187 22.5653 27.7175H22.115H21.5691V25.8603H26.5915V27.7175H26.0326C25.8773 27.7175 25.722 27.7175 25.5672 27.7175C25.1271 27.7175 24.9554 27.8937 24.9554 28.3366C24.9554 29.3391 24.9554 30.3415 24.9554 31.3436C24.9554 31.8332 25.1187 31.9981 25.601 31.9987H28.5838C29.0807 31.9987 29.24 31.836 29.24 31.3301C29.24 30.514 29.24 29.698 29.24 28.882V28.4368C29.24 28.1982 29.2293 27.9905 29.097 27.8588C28.9648 27.7271 28.7593 27.7164 28.519 27.7164H27.5803V26.9848C27.5803 26.4925 27.5803 26.0001 27.5803 25.5075C27.5803 25.0308 27.4199 24.8698 26.9466 24.8698H21.572V23.3886H24.2801C25.3128 23.3886 26.1035 23.3886 26.8436 23.3852C27.1404 23.3889 27.4371 23.3701 27.7311 23.3289C28.7768 23.1581 29.7392 22.6537 30.4747 21.891C31.2073 21.1386 31.6722 20.1663 31.7978 19.1237C31.9252 18.0518 31.6982 16.9677 31.1518 16.0368ZM25.9443 31.0071V28.7109H28.2517V31.0071H25.9443ZM19.919 31.0127V28.7075H22.2068V31.0104L19.919 31.0127ZM13.972 31.0127V28.7075H16.2795V31.0076L13.972 31.0127ZM27.4858 22.3727C27.2746 22.399 27.062 22.4118 26.8492 22.411C25.7096 22.411 24.5727 22.411 23.7094 22.411H15.2575C13.2601 22.411 11.6776 21.0924 11.3179 19.1339C11.1395 18.1608 11.3883 17.1123 12 16.2575C12.6118 15.4026 13.528 14.8257 14.5101 14.6816C14.6768 14.6569 14.8448 14.6407 15.0132 14.6332C15.4893 14.6124 15.6396 14.4644 15.6565 13.999C15.6822 13.193 15.951 12.4137 16.4275 11.7631C16.9039 11.1126 17.5659 10.6212 18.3265 10.3535C19.0871 10.0857 19.9109 10.0541 20.6898 10.2628C21.4687 10.4714 22.1664 10.9106 22.6913 11.5227C22.8292 11.6848 23.0105 11.8508 23.3076 11.8508C23.3915 11.8497 23.4749 11.8389 23.5564 11.8187C23.7375 11.7763 23.9229 11.7548 24.109 11.7546C25.3674 11.7546 26.3787 12.7198 26.4626 13.9995C26.493 14.4689 26.6444 14.6186 27.1092 14.6304C29.1426 14.6929 30.7527 16.3121 30.8546 18.3972C30.9503 20.3394 29.4386 22.1217 27.4858 22.3727Z" fill="#001751"/>
<path d="M19.6834 11.0078H19.6783C18.6748 11.0219 17.8464 11.4192 17.2166 12.1897C16.7839 12.7176 16.5531 13.3518 16.5306 14.075C16.521 14.384 16.7197 14.6159 17.0033 14.6254H17.0208C17.278 14.6254 17.471 14.4301 17.5031 14.1392C17.5076 14.097 17.5115 14.0542 17.5155 14.012C17.5228 13.8961 17.5391 13.7809 17.5644 13.6676C17.7828 12.8003 18.3158 12.2572 19.1481 12.054C19.3348 12.0074 19.5264 11.9832 19.7188 11.982C20.3306 11.982 20.8725 12.2493 21.3306 12.7772C21.4635 12.9303 21.6171 13.0113 21.7747 13.0113C21.888 13.0104 21.997 12.9673 22.0803 12.8903C22.2936 12.6996 22.2919 12.4097 22.0769 12.1525C21.4561 11.4096 20.6514 11.0247 19.6834 11.0078Z" fill="#001751"/>
</g>
<defs>
<clipPath id="clip0_312_9261">
<rect width="21.543" height="22.8571" fill="white" transform="translate(10.2861 9.14282)"/>
</clipPath>
</defs>
</svg>
