<svg width="42" height="40" viewBox="0 0 42 40" fill="none" xmlns="http://www.w3.org/2000/svg">
<rect width="41.1429" height="40" rx="10" fill="#EBF2FF"/>
<g clip-path="url(#clip0_6_7)">
<path d="M31.726 23.4265C31.4537 23.0217 30.9975 22.7558 30.4419 22.6714C30.2697 22.6451 30.0958 22.6322 29.9216 22.6326C29.4697 22.6391 29.0211 22.7093 28.5889 22.8414C27.2308 23.2293 25.8791 23.6305 24.5712 24.0191C24.5523 24.025 24.533 24.0294 24.5134 24.0324C24.5061 24.0229 24.4994 24.0131 24.4932 24.0029C24.3704 23.7973 24.2077 23.6183 24.0147 23.4765C23.8216 23.3347 23.6022 23.233 23.3692 23.1773C23.2288 23.1403 23.0859 23.101 22.9483 23.0616C22.7749 23.0142 22.6014 22.9651 22.4239 22.92L22.4118 22.9165C21.4255 22.6639 20.494 22.4251 19.6366 21.8932C19.1472 21.5843 18.5803 21.4203 18.0016 21.4202C17.5153 21.4256 17.035 21.5284 16.5891 21.7226C16.0907 21.9325 15.5952 22.1672 15.1159 22.3944L14.6823 22.5997C14.2348 22.8096 13.7804 23.0269 13.3416 23.2357L12.8981 23.4473C12.5934 22.8784 12.1771 22.7569 11.8771 22.7569C11.6602 22.7619 11.4468 22.8119 11.2503 22.9038L10.7225 23.1351C10.4444 23.2559 10.1565 23.3814 9.87489 23.508C9.2233 23.8017 8.97469 24.433 9.25626 25.0731C10.1281 27.0648 11.0179 29.0878 11.9783 31.2594C12.1864 31.7301 12.5697 32.0001 13.0299 32.0001C13.2125 31.9976 13.3926 31.9582 13.5595 31.8844C14.0492 31.6774 14.5482 31.4577 15.0419 31.2323C15.6664 30.9472 15.9092 30.3222 15.6386 29.6781C15.5854 29.5486 15.5299 29.4214 15.4709 29.2867C15.4652 29.2729 15.4588 29.259 15.453 29.2445L15.7646 29.093L16.6776 28.649C16.865 28.5545 17.0718 28.5048 17.2818 28.5039C17.417 28.5039 17.5515 28.5234 17.6813 28.5617C18.4855 28.797 19.1619 28.993 19.8471 29.1844C19.9627 29.2168 20.0847 29.252 20.2009 29.2862C20.5815 29.4073 20.97 29.5021 21.3636 29.57C21.5081 29.5916 21.654 29.6025 21.8001 29.6024C22.4401 29.6024 23.0553 29.3989 23.5196 29.2214C26.2231 28.1905 28.4554 27.3302 30.5448 26.5144C31.2693 26.2317 31.7532 25.6559 31.9434 24.8493C32.0689 24.3261 31.9914 23.8196 31.726 23.4265ZM11.8054 23.7502L11.8204 23.7456C11.9297 23.7456 11.9754 23.7867 12.0361 23.9266C12.3252 24.5811 12.6142 25.2454 12.8975 25.8877L13.2346 26.6526L14.6898 29.9614C14.7477 30.0985 14.7719 30.1892 14.7552 30.232C14.7384 30.2748 14.6609 30.3274 14.5239 30.3876C14.1429 30.5558 13.6688 30.7651 13.2138 30.9617C13.1571 30.9899 13.0954 31.007 13.0322 31.012C12.9987 31.012 12.9432 31.012 12.8588 30.8252C12.0118 28.9005 11.1376 26.9134 10.1877 24.7493C10.0894 24.5261 10.1067 24.4816 10.3287 24.3833C10.7543 24.1954 11.196 24.0017 11.6811 23.7913C11.7217 23.7752 11.7632 23.7615 11.8054 23.7502ZM23.7734 25.213C23.6751 25.6056 23.3363 25.8594 22.9102 25.8594C22.8137 25.8591 22.7177 25.8463 22.6246 25.8212C21.7747 25.5975 20.912 25.3662 20.0772 25.1419L18.9787 24.8476L18.9654 24.8435C18.9174 24.8308 18.8677 24.8175 18.8162 24.8065C18.7697 24.7964 18.7222 24.7911 18.6745 24.7909C18.5902 24.7907 18.5072 24.8123 18.4336 24.8536C18.36 24.8948 18.2983 24.9544 18.2545 25.0265C18.2106 25.0986 18.1861 25.1808 18.1833 25.2651C18.1806 25.3494 18.1996 25.433 18.2386 25.5078C18.2748 25.5689 18.3229 25.6221 18.38 25.6643C18.4371 25.7065 18.5021 25.7369 18.5711 25.7536C18.9897 25.8692 19.4163 25.9848 19.8291 26.0953L20.0662 26.1583L21.0109 26.4092C21.4434 26.5248 21.8909 26.6405 22.3297 26.7602C22.5253 26.8137 22.7271 26.8413 22.9298 26.8423C23.4045 26.8488 23.8629 26.6697 24.2076 26.3433C24.5487 26.0137 24.7487 25.5581 24.7857 25.0251C24.7865 25.0099 24.7885 24.9948 24.7915 24.98C24.7986 24.9768 24.806 24.9743 24.8135 24.9725C25.3656 24.8135 25.9265 24.6499 26.4688 24.492C27.336 24.2388 28.2328 23.9774 29.1162 23.7283C29.3724 23.6541 29.6375 23.6152 29.9042 23.6126C30.0595 23.6124 30.2144 23.6273 30.3668 23.6571C30.6212 23.708 30.8119 23.8231 30.9189 23.9896C31.0259 24.1561 31.0484 24.3718 30.9894 24.6204C30.8738 25.1106 30.598 25.4431 30.1731 25.6079C27.7535 26.5468 25.3899 27.458 23.1484 28.3102C22.8465 28.4158 22.5373 28.4993 22.2233 28.56L22.2071 28.5634C22.0531 28.597 21.8959 28.6139 21.7382 28.6137C21.4847 28.6121 21.2328 28.5731 20.9907 28.4981C20.4848 28.3466 19.9696 28.1986 19.4707 28.0558C18.9949 27.9188 18.5028 27.7777 18.0212 27.6343C17.7841 27.5624 17.5377 27.5252 17.2898 27.5239C16.9008 27.5265 16.5179 27.621 16.1723 27.7997C15.8901 27.9413 15.6074 28.0778 15.3085 28.2218L15.057 28.3432L14.5563 27.2048L13.3005 24.3515L13.5855 24.2157C14.6083 23.7277 15.6669 23.2235 16.7076 22.7303C17.098 22.5376 17.5264 22.4345 17.9617 22.4285C18.482 22.4285 18.9931 22.5922 19.4811 22.9159C20.0593 23.2981 20.6814 23.486 21.1578 23.6097C21.666 23.7381 22.1811 23.8768 22.6795 24.011L23.068 24.1156C23.6086 24.259 23.8977 24.7106 23.7722 25.213H23.7734Z" fill="#001751"/>
<path d="M21.4792 17.687L21.5035 17.6934C21.5038 17.6951 21.5038 17.6968 21.5035 17.6986C21.4926 17.7816 21.4926 17.8658 21.5035 17.9489C21.5659 18.3236 21.4532 18.6005 21.1387 18.8474C21.0392 18.926 20.997 18.952 20.9456 18.952C20.9186 18.9512 20.8919 18.9465 20.8663 18.9381C20.7699 18.9091 20.6698 18.8943 20.5692 18.8942C20.3714 18.8977 20.1778 18.9519 20.0069 19.0516C19.836 19.1513 19.6936 19.2932 19.5932 19.4637C19.467 19.6754 19.41 19.9213 19.43 20.1669C19.45 20.4126 19.546 20.646 19.7048 20.8345C19.8644 21.0227 20.0794 21.1556 20.3191 21.214C20.5588 21.2725 20.8109 21.2536 21.0392 21.16C21.4931 20.9744 21.881 20.4778 21.7446 19.9667C21.6711 19.6932 21.7665 19.5724 21.9851 19.3799L22.0238 19.3457C22.1245 19.2662 22.2131 19.1726 22.2869 19.0676C22.3684 18.9393 22.4644 18.7693 22.4777 18.5878C22.495 18.3519 22.4916 18.1125 22.4887 17.8813V17.772H24.7973V17.8396C24.7973 18.0426 24.7973 18.2443 24.7973 18.4484C24.7973 19.0104 24.7973 19.592 24.8008 20.1644C24.8008 20.276 24.788 20.302 24.703 20.3489C24.4741 20.4754 24.2954 20.6766 24.1968 20.9189C24.0982 21.1612 24.0857 21.4299 24.1613 21.6804C24.232 21.9252 24.381 22.1402 24.5854 22.2924C24.7898 22.4447 25.0385 22.5258 25.2933 22.5233H25.3003C25.5564 22.5221 25.805 22.437 26.0081 22.2811C26.2113 22.1252 26.3578 21.9071 26.4254 21.6601C26.4956 21.4081 26.4782 21.1397 26.3762 20.8988C26.2741 20.6579 26.0933 20.4587 25.8634 20.3338C25.7877 20.2934 25.7784 20.276 25.779 20.1904C25.7842 19.6435 25.7836 19.0885 25.7831 18.5513V17.8217C25.7831 17.8032 25.7831 17.7839 25.7831 17.7639H28.0928C28.0928 17.8015 28.0928 17.8385 28.0928 17.8755C28.0928 18.0877 28.0969 18.2883 28.0876 18.4878C28.0749 18.7687 28.161 18.9786 28.3582 19.1497C28.442 19.222 28.5195 19.3024 28.6016 19.3874C28.6733 19.4614 28.7467 19.5377 28.8259 19.6094C28.871 19.6504 28.8803 19.6585 28.8548 19.747C28.8046 19.9194 28.7945 20.1009 28.8252 20.2778C28.856 20.4547 28.9269 20.6222 29.0323 20.7675C29.1338 20.9091 29.2664 21.0256 29.42 21.108C29.5735 21.1904 29.7439 21.2365 29.9181 21.2427C29.9372 21.2427 29.9562 21.2427 29.9759 21.2427C30.4523 21.2427 30.8154 21.019 31.0264 20.5957C31.2479 20.1506 31.1964 19.6978 30.8807 19.3238C30.646 19.0434 30.3477 18.8948 30.0175 18.8948C29.8941 18.896 29.7716 18.9155 29.6539 18.9526C29.6382 18.9581 29.6219 18.9613 29.6053 18.9618C29.5833 18.9618 29.5579 18.948 29.4931 18.8994C29.1335 18.6317 29.0005 18.312 29.0751 17.894C29.0832 17.8448 29.0832 17.7946 29.0751 17.7454C29.0738 17.7327 29.0738 17.7199 29.0751 17.7072C29.104 17.6933 29.1345 17.6828 29.1659 17.676C30.3517 17.3632 31.1016 16.5839 31.3352 15.4212C31.5624 14.2903 31.1848 13.2993 30.243 12.5552C29.7545 12.1702 29.1496 11.9628 28.5276 11.9672H28.1599H27.7089C27.4094 10.3033 26.049 9.14288 24.3949 9.14288C24.1902 9.14313 23.986 9.16093 23.7843 9.19608C22.3811 9.44006 21.2682 10.612 21.078 12.0464C21.0647 12.1464 21.0566 12.1499 21.0115 12.1684C19.8118 12.6766 19.0792 13.8382 19.1897 15.0592C19.3111 16.3954 20.1668 17.3783 21.4792 17.687ZM25.2887 21.16H25.2922C25.3418 21.1626 25.3885 21.1842 25.4224 21.2204C25.4564 21.2567 25.475 21.3046 25.4743 21.3543C25.4745 21.3785 25.4698 21.4026 25.4605 21.425C25.4512 21.4474 25.4376 21.4678 25.4204 21.4849C25.4031 21.5019 25.3827 21.5154 25.3602 21.5244C25.3376 21.5335 25.3136 21.538 25.2893 21.5376H25.2858C25.2613 21.5374 25.237 21.5324 25.2145 21.5226C25.192 21.5129 25.1716 21.4988 25.1547 21.481C25.1377 21.4633 25.1245 21.4423 25.1159 21.4193C25.1072 21.3963 25.1033 21.3719 25.1043 21.3474C25.1052 21.2984 25.1248 21.2517 25.1591 21.2169C25.1934 21.182 25.2398 21.1616 25.2887 21.16ZM21.5017 13.0328C21.9458 12.8882 21.9995 12.8189 22.0273 12.3557C22.0996 11.1416 23.1033 10.1622 24.3116 10.1298H24.3775C24.9634 10.1277 25.5294 10.3421 25.9669 10.7318C26.4044 11.1215 26.6826 11.659 26.748 12.2413C26.7521 12.2754 26.7555 12.3095 26.759 12.3442L26.7694 12.4448C26.8076 12.7871 26.9822 12.9478 27.3198 12.9513H27.6014H28.1038C28.2605 12.9513 28.3877 12.9513 28.5033 12.9541C29.5215 12.9703 30.3037 13.7006 30.4061 14.7303C30.498 15.6553 29.8279 16.5318 28.8791 16.7301C28.7114 16.7593 28.5411 16.7717 28.3709 16.7671C27.9338 16.7671 27.4672 16.7671 26.859 16.7671H25.2633H24.3082H23.3536C22.8732 16.7671 22.4777 16.7671 22.1094 16.7631C21.0889 16.755 20.3171 16.0693 20.1818 15.0627C20.0662 14.1897 20.6345 13.3155 21.5017 13.0328ZM20.7837 20.0656C20.7848 20.1151 20.7666 20.1631 20.7329 20.1995C20.6993 20.2359 20.6528 20.2577 20.6033 20.2604H20.5969C20.5484 20.2585 20.5025 20.238 20.4686 20.2033C20.4348 20.1685 20.4155 20.1221 20.4148 20.0735C20.4142 20.025 20.4321 19.978 20.465 19.9424C20.498 19.9067 20.5433 19.885 20.5917 19.8817H20.5975C20.6463 19.8827 20.693 19.9023 20.7279 19.9364C20.7628 19.9706 20.7834 20.0168 20.7854 20.0656H20.7837ZM29.9765 19.8817C30.0012 19.8818 30.0257 19.8869 30.0484 19.8967C30.0712 19.9065 30.0917 19.9207 30.1088 19.9385C30.126 19.9564 30.1394 19.9775 30.1482 20.0006C30.1571 20.0237 30.1612 20.0483 30.1603 20.0731C30.161 20.0976 30.1568 20.122 30.1478 20.1448C30.1389 20.1676 30.1254 20.1884 30.1083 20.2059C30.0911 20.2234 30.0706 20.2372 30.0479 20.2466C30.0253 20.2559 30.001 20.2606 29.9765 20.2604C29.9268 20.2591 29.8797 20.2385 29.8449 20.203C29.8102 20.1675 29.7906 20.1199 29.7903 20.0702C29.7919 20.0206 29.8124 19.9735 29.8475 19.9385C29.8826 19.9035 29.9298 19.8832 29.9794 19.8817H29.9765Z" fill="#001751"/>
</g>
<defs>
<clipPath id="clip0_6_7">
<rect width="22.8595" height="22.8571" fill="white" transform="translate(9.14258 9.14288)"/>
</clipPath>
</defs>
</svg>
