<svg width="42" height="40" viewBox="0 0 42 40" fill="none" xmlns="http://www.w3.org/2000/svg">
<rect width="41.1429" height="40" rx="10" fill="#EBF2FF"/>
<g clip-path="url(#clip0_305_9009)">
<path d="M32.3206 31.5418C32.1732 31.8024 31.9328 31.8602 31.6532 31.9041C30.7968 32.0399 29.9468 32.0584 29.1199 31.7758C28.7582 31.6516 28.4172 31.4569 28.085 31.2627C27.9382 31.1766 27.8319 31.1599 27.6765 31.2228C24.021 32.7021 19.9282 31.1651 18.1484 27.6443C17.6179 26.5948 17.3472 25.4334 17.3591 24.2575C17.3591 24.142 17.3591 24.0223 17.3591 23.8889C17.0124 23.9426 16.6853 24.0044 16.3519 24.0449C15.0965 24.2024 13.8218 24.0287 12.6543 23.541C12.489 23.4722 12.3775 23.4832 12.2284 23.5878C11.3616 24.2044 10.3793 24.3667 9.33919 24.2974C9.05027 24.2778 8.75847 24.2246 8.46839 24.187C8.20085 24.1529 8.02114 23.979 8.00149 23.7334C7.98184 23.4878 8.14769 23.2873 8.4135 23.2001C8.70242 23.1047 9.02196 23.0308 9.25888 22.8534C9.55531 22.6321 9.78413 22.3189 10.0361 22.0398C10.1378 21.9271 10.1072 21.8294 10.0003 21.7168C8.99827 20.6605 8.39385 19.4054 8.12342 17.977C7.4641 14.4972 9.41952 10.9643 12.7329 9.66585C16.9609 8.00917 21.6669 10.4321 22.733 14.8404C22.9064 15.5483 22.9353 16.2902 23.0329 17.0362C23.2473 16.9998 23.5218 16.9472 23.7974 16.9068C27.6649 16.3417 31.3284 18.9125 32.1501 22.7505C32.2206 23.0816 32.2622 23.4197 32.3171 23.7542V24.8464C32.3006 24.8981 32.2878 24.9511 32.279 25.0047C32.1288 26.6553 31.4295 28.2078 30.2929 29.4142C30.1987 29.5165 30.2016 29.591 30.2629 29.7031C30.6003 30.3087 31.1036 30.7074 31.7757 30.864C32.0288 30.9218 32.2154 31.02 32.3171 31.2604L32.3206 31.5418ZM29.9092 30.9374C29.8809 30.8836 29.8682 30.8571 29.8515 30.8316C29.6151 30.4329 29.3689 30.0394 29.1465 29.6332C29.0211 29.4021 29.0997 29.1906 29.2829 29.0126C30.9095 27.4322 31.5653 25.512 31.2284 23.2764C30.6055 19.1407 26.1192 16.6768 22.2869 18.3474C19.029 19.7671 17.5139 23.4503 18.832 26.7446C20.2188 30.2116 24.3423 31.7845 27.6828 30.1238C27.9931 29.9695 28.1451 29.9961 28.404 30.244C28.8206 30.6398 29.3216 30.8461 29.9092 30.9374ZM10.4827 23.2399C10.993 23.1712 11.4719 22.9545 11.8603 22.6165C12.2342 22.2882 12.2937 22.283 12.7392 22.4905C14.2289 23.1839 15.766 23.2833 17.34 22.8279C17.3873 22.8099 17.4301 22.7818 17.4656 22.7455C17.501 22.7093 17.5281 22.6659 17.5451 22.6182C18.153 20.2479 19.5601 18.5369 21.7663 17.4852C21.8071 17.4627 21.8423 17.4311 21.8691 17.393C21.8959 17.3548 21.9137 17.3111 21.9211 17.2651C21.9275 16.7525 21.9697 16.2313 21.8963 15.728C21.3034 11.6681 17.2822 9.19837 13.3928 10.4939C8.8151 12.0159 7.49241 18.0058 11.0069 21.3048C11.2438 21.5272 11.301 21.6954 11.1617 21.9802C10.9525 22.4055 10.7116 22.8187 10.4827 23.2399Z" fill="#001751"/>
<path d="M24.8496 23.9738C25.8863 23.9738 26.9235 23.9738 27.9601 23.9738C28.3132 23.9738 28.5189 24.1472 28.5345 24.4361C28.5451 24.5516 28.513 24.667 28.4442 24.7604C28.3754 24.8538 28.2747 24.9187 28.1612 24.9429C28.0528 24.9641 27.9423 24.9732 27.8318 24.97C25.8371 24.97 23.8424 24.97 21.8477 24.97C21.745 24.9728 21.6422 24.9656 21.5409 24.9486C21.4225 24.9288 21.3158 24.8652 21.242 24.7705C21.1682 24.6759 21.1326 24.5569 21.1422 24.4373C21.1438 24.3168 21.1921 24.2016 21.2769 24.116C21.3617 24.0305 21.4765 23.9811 21.5969 23.9784C22.0234 23.964 22.4516 23.9704 22.8786 23.9698C23.5358 23.9717 24.1928 23.9731 24.8496 23.9738Z" fill="#001751"/>
<path d="M24.8154 22.3067C23.977 22.3067 23.1397 22.3107 22.2995 22.3067C21.8679 22.3032 21.6148 21.9479 21.7829 21.5983C21.8841 21.3879 22.0632 21.3093 22.2868 21.3093C22.6745 21.3093 23.0623 21.3093 23.45 21.3093C24.7155 21.3093 25.9812 21.3093 27.247 21.3093C27.3496 21.3061 27.4523 21.3119 27.5539 21.3267C27.6613 21.3486 27.7584 21.406 27.8293 21.4897C27.9003 21.5734 27.9411 21.6785 27.9451 21.7881C27.9492 21.8977 27.9163 22.0056 27.8517 22.0943C27.7872 22.183 27.6947 22.2474 27.5891 22.2772C27.4886 22.2984 27.386 22.3077 27.2834 22.305C26.4606 22.3073 25.6379 22.3078 24.8154 22.3067Z" fill="#001751"/>
<path d="M24.8385 26.792C25.5972 26.792 26.3565 26.792 27.1152 26.792C27.4775 26.792 27.711 26.9907 27.7115 27.2906C27.7121 27.5905 27.4804 27.7899 27.1164 27.7899C25.5989 27.7899 24.0811 27.7899 22.563 27.7899C22.2001 27.7899 21.9678 27.5923 21.9678 27.2918C21.9678 26.9913 22.1989 26.7925 22.5618 26.792C23.3205 26.7908 24.0798 26.792 24.8385 26.792Z" fill="#001751"/>
<path d="M15.486 16.2891C16.5296 16.2891 17.573 16.2891 18.6162 16.2891C18.9247 16.2891 19.116 16.4237 19.1692 16.667C19.1855 16.7304 19.189 16.7964 19.1793 16.8611C19.1696 16.9258 19.147 16.9879 19.1129 17.0437C19.0787 17.0995 19.0336 17.1479 18.9804 17.1859C18.9271 17.2239 18.8667 17.2509 18.8028 17.2651C18.7336 17.2803 18.6628 17.2869 18.5919 17.2847C16.5202 17.2847 14.449 17.2847 12.3784 17.2847C12.038 17.2847 11.8283 17.1258 11.7942 16.8536C11.7526 16.5231 11.9675 16.2908 12.3321 16.2891C13.1463 16.285 13.9605 16.2891 14.7747 16.2891H15.486Z" fill="#001751"/>
<path d="M15.5076 13.6269C16.3386 13.6269 17.1693 13.6269 17.9998 13.6269C18.3639 13.6269 18.595 13.8263 18.5904 14.1273C18.5858 14.4284 18.3593 14.622 18.0126 14.6226C16.3276 14.6249 14.6426 14.6249 12.9576 14.6226C12.7166 14.6226 12.5219 14.5445 12.4208 14.3099C12.337 14.1152 12.363 13.9153 12.5219 13.7899C12.6516 13.6932 12.8075 13.638 12.9691 13.6316C13.8145 13.6194 14.6617 13.6269 15.5076 13.6269Z" fill="#001751"/>
<path d="M15.4861 20.1034C14.7274 20.1034 13.9681 20.1034 13.2094 20.1034C12.8419 20.1034 12.6143 19.9086 12.6143 19.607C12.6143 19.3054 12.8454 19.1054 13.2094 19.1049C14.7353 19.1049 16.2612 19.1049 17.7871 19.1049C18.1043 19.1049 18.3124 19.2701 18.3528 19.5348C18.3696 19.6493 18.3454 19.766 18.2847 19.8645C18.2239 19.963 18.1304 20.0369 18.0206 20.0733C17.9209 20.0972 17.8184 20.1069 17.716 20.1022C16.9712 20.1045 16.2275 20.1034 15.4861 20.1034Z" fill="#001751"/>
</g>
<defs>
<clipPath id="clip0_305_9009">
<rect width="24.3208" height="22.8571" fill="white" transform="translate(8 9.14288)"/>
</clipPath>
</defs>
</svg>
