<svg width="30" height="30" viewBox="0 0 30 30" fill="none" xmlns="http://www.w3.org/2000/svg">
<path fill-rule="evenodd" clip-rule="evenodd" d="M5.51239 13.8488C11.418 11.2759 15.3559 9.57959 17.3263 8.76003C22.9521 6.42005 24.1211 6.01357 24.883 6.00014C25.0506 5.99719 25.4253 6.03872 25.668 6.23567C25.873 6.40197 25.9294 6.62661 25.9563 6.78428C25.9833 6.94195 26.0169 7.30112 25.9902 7.58177C25.6854 10.785 24.3662 18.5585 23.6951 22.1462C23.4111 23.6643 22.852 24.1733 22.3107 24.2231C21.1343 24.3314 20.2409 23.4457 19.1015 22.6988C17.3186 21.53 16.3113 20.8025 14.5807 19.662C12.5806 18.3439 13.8772 17.6195 15.017 16.4356C15.3153 16.1258 20.4986 11.4112 20.5989 10.9835C20.6115 10.93 20.6231 10.7306 20.5046 10.6253C20.3862 10.52 20.2114 10.556 20.0852 10.5847C19.9064 10.6253 17.0581 12.5079 11.5404 16.2326C10.7319 16.7877 9.99958 17.0582 9.34347 17.044C8.62016 17.0284 7.2288 16.6351 6.19447 16.2988C4.92583 15.8865 3.91753 15.6684 4.00533 14.9681C4.05106 14.6033 4.55341 14.2302 5.51239 13.8488Z" fill="#EBF2FF"/>
</svg>
