<svg width="50" height="50" viewBox="0 0 50 50" fill="none" xmlns="http://www.w3.org/2000/svg">
<rect width="50" height="50" rx="10" fill="#FFC152"/>
<path d="M39.25 39.25H13.2833C12.3966 39.25 11.9532 39.25 11.6145 39.0774C11.3166 38.9256 11.0744 38.6834 10.9226 38.3855C10.75 38.0468 10.75 37.6034 10.75 36.7167V10.75M39.25 17.0833L30.6457 25.6877C30.3322 26.0012 30.1754 26.1579 29.9946 26.2167C29.8356 26.2683 29.6644 26.2683 29.5054 26.2167C29.3246 26.1579 29.1678 26.0012 28.8543 25.6877L25.8957 22.729C25.5822 22.4155 25.4254 22.2587 25.2446 22.2C25.0856 22.1483 24.9144 22.1483 24.7554 22.2C24.5746 22.2587 24.4178 22.4155 24.1043 22.729L17.0833 29.75M39.25 17.0833H32.9167M39.25 17.0833V23.4167" stroke="#001751" stroke-width="3" stroke-linecap="round" stroke-linejoin="round"/>
</svg>
